<?xml version="1.0" encoding="UTF-8" standalone="no"?>
<svg width="234.597mm" height="182.386mm"
 viewBox="0 0 665 517"
 xmlns="http://www.w3.org/2000/svg" xmlns:xlink="http://www.w3.org/1999/xlink"  version="1.2" baseProfile="tiny">
<title>PopART SVG Image</title>
<desc>A haplotype network image created by PopART.</desc>
<defs>
</defs>
<g fill="none" stroke="black" stroke-width="1" fill-rule="evenodd" stroke-linecap="square" stroke-linejoin="bevel" >

<g fill="none" stroke="#000000" stroke-opacity="1" stroke-width="1" stroke-linecap="square" stroke-linejoin="bevel" transform="matrix(1,0,0,1,0,0)"
font-family="MS Shell Dlg 2" font-size="8.25" font-weight="400" font-style="normal" 
>
</g>

<g fill="none" stroke="#000000" stroke-opacity="1" stroke-width="1" stroke-linecap="square" stroke-linejoin="bevel" transform="matrix(0.999658,0,0,0.999658,76.9737,0)"
font-family="MS Shell Dlg 2" font-size="8.25" font-weight="400" font-style="normal" 
>
</g>

<g fill="#000000" fill-opacity="0" stroke="none" transform="matrix(0.999658,0,0,0.999658,76.9737,0)"
font-family="MS Shell Dlg 2" font-size="8.25" font-weight="400" font-style="normal" 
>
<path vector-effect="non-scaling-stroke" fill-rule="evenodd" d="M-77,0 L588.227,0 L588.227,517.129 L-77,517.129 L-77,0"/>
</g>

<g fill="none" stroke="#000000" stroke-opacity="1" stroke-width="1" stroke-linecap="square" stroke-linejoin="bevel" transform="matrix(0.999658,0,0,0.999658,76.9737,0)"
font-family="MS Shell Dlg 2" font-size="8.25" font-weight="400" font-style="normal" 
>
</g>

<g fill="none" stroke="#000000" stroke-opacity="1" stroke-width="1" stroke-linecap="square" stroke-linejoin="bevel" transform="matrix(0.999658,0,0,0.999658,76.9737,0)"
font-family="MS Shell Dlg 2" font-size="8.25" font-weight="400" font-style="normal" 
>
</g>

<g fill="none" stroke="#000000" stroke-opacity="1" stroke-width="2" stroke-linecap="round" stroke-linejoin="bevel" transform="matrix(0.999658,0,0,0.999658,76.9737,0)"
font-family="MS Shell Dlg 2" font-size="8.25" font-weight="400" font-style="normal" 
>
<polyline fill="none" vector-effect="none" points="57.4261,110.462 22.5,44.0509 " />
<polyline fill="none" vector-effect="none" points="45,77 36,81 " />
</g>

<g fill="none" stroke="#000000" stroke-opacity="1" stroke-width="1" stroke-linecap="square" stroke-linejoin="bevel" transform="matrix(0.999658,0,0,0.999658,76.9737,0)"
font-family="MS Shell Dlg 2" font-size="8.25" font-weight="400" font-style="normal" 
>
</g>

<g fill="none" stroke="#000000" stroke-opacity="1" stroke-width="1" stroke-linecap="square" stroke-linejoin="bevel" transform="matrix(0.999658,0,0,0.999658,76.9737,0)"
font-family="MS Shell Dlg 2" font-size="8.25" font-weight="400" font-style="normal" 
>
</g>

<g fill="none" stroke="#000000" stroke-opacity="1" stroke-width="2" stroke-linecap="round" stroke-linejoin="bevel" transform="matrix(0.999658,0,0,0.999658,76.9737,0)"
font-family="MS Shell Dlg 2" font-size="8.25" font-weight="400" font-style="normal" 
>
<polyline fill="none" vector-effect="none" points="453.727,345.413 386.201,336.392 " />
<polyline fill="none" vector-effect="none" points="423,336 421,346 " />
</g>

<g fill="none" stroke="#000000" stroke-opacity="1" stroke-width="1" stroke-linecap="square" stroke-linejoin="bevel" transform="matrix(0.999658,0,0,0.999658,76.9737,0)"
font-family="MS Shell Dlg 2" font-size="8.25" font-weight="400" font-style="normal" 
>
</g>

<g fill="none" stroke="#000000" stroke-opacity="1" stroke-width="1" stroke-linecap="square" stroke-linejoin="bevel" transform="matrix(0.999658,0,0,0.999658,76.9737,0)"
font-family="MS Shell Dlg 2" font-size="8.25" font-weight="400" font-style="normal" 
>
</g>

<g fill="none" stroke="#000000" stroke-opacity="1" stroke-width="2" stroke-linecap="round" stroke-linejoin="bevel" transform="matrix(0.999658,0,0,0.999658,76.9737,0)"
font-family="MS Shell Dlg 2" font-size="8.25" font-weight="400" font-style="normal" 
>
<polyline fill="none" vector-effect="none" points="50.648,494.629 140.753,338.643 " />
<polyline fill="none" vector-effect="none" points="57,472 66,477 " />
<polyline fill="none" vector-effect="none" points="60,468 68,473 " />
<polyline fill="none" vector-effect="none" points="62,463 71,468 " />
<polyline fill="none" vector-effect="none" points="65,459 73,464 " />
<polyline fill="none" vector-effect="none" points="67,455 76,460 " />
<polyline fill="none" vector-effect="none" points="70,450 78,455 " />
<polyline fill="none" vector-effect="none" points="72,446 81,451 " />
<polyline fill="none" vector-effect="none" points="75,442 83,447 " />
<polyline fill="none" vector-effect="none" points="77,437 86,442 " />
<polyline fill="none" vector-effect="none" points="80,433 88,438 " />
<polyline fill="none" vector-effect="none" points="82,429 91,434 " />
<polyline fill="none" vector-effect="none" points="85,424 93,429 " />
<polyline fill="none" vector-effect="none" points="87,420 96,425 " />
<polyline fill="none" vector-effect="none" points="90,416 98,421 " />
<polyline fill="none" vector-effect="none" points="92,411 101,416 " />
<polyline fill="none" vector-effect="none" points="95,407 103,412 " />
<polyline fill="none" vector-effect="none" points="97,403 106,408 " />
<polyline fill="none" vector-effect="none" points="100,398 108,403 " />
<polyline fill="none" vector-effect="none" points="102,394 111,399 " />
<polyline fill="none" vector-effect="none" points="105,390 113,395 " />
<polyline fill="none" vector-effect="none" points="107,385 116,390 " />
<polyline fill="none" vector-effect="none" points="110,381 118,386 " />
<polyline fill="none" vector-effect="none" points="112,377 121,382 " />
<polyline fill="none" vector-effect="none" points="115,373 123,378 " />
<polyline fill="none" vector-effect="none" points="117,368 126,373 " />
<polyline fill="none" vector-effect="none" points="120,364 128,369 " />
<polyline fill="none" vector-effect="none" points="122,360 131,365 " />
</g>

<g fill="none" stroke="#000000" stroke-opacity="1" stroke-width="1" stroke-linecap="square" stroke-linejoin="bevel" transform="matrix(0.999658,0,0,0.999658,76.9737,0)"
font-family="MS Shell Dlg 2" font-size="8.25" font-weight="400" font-style="normal" 
>
</g>

<g fill="none" stroke="#000000" stroke-opacity="1" stroke-width="1" stroke-linecap="square" stroke-linejoin="bevel" transform="matrix(0.999658,0,0,0.999658,76.9737,0)"
font-family="MS Shell Dlg 2" font-size="8.25" font-weight="400" font-style="normal" 
>
</g>

<g fill="none" stroke="#000000" stroke-opacity="1" stroke-width="2" stroke-linecap="round" stroke-linejoin="bevel" transform="matrix(0.999658,0,0,0.999658,76.9737,0)"
font-family="MS Shell Dlg 2" font-size="8.25" font-weight="400" font-style="normal" 
>
<polyline fill="none" vector-effect="none" points="386.201,336.392 197.269,310.763 " />
<polyline fill="none" vector-effect="none" points="344,325 343,335 " />
<polyline fill="none" vector-effect="none" points="339,325 338,334 " />
<polyline fill="none" vector-effect="none" points="334,324 333,334 " />
<polyline fill="none" vector-effect="none" points="329,323 328,333 " />
<polyline fill="none" vector-effect="none" points="324,322 323,332 " />
<polyline fill="none" vector-effect="none" points="319,322 318,332 " />
<polyline fill="none" vector-effect="none" points="314,321 313,331 " />
<polyline fill="none" vector-effect="none" points="309,320 308,330 " />
<polyline fill="none" vector-effect="none" points="304,320 303,330 " />
<polyline fill="none" vector-effect="none" points="299,319 298,329 " />
<polyline fill="none" vector-effect="none" points="294,318 293,328 " />
<polyline fill="none" vector-effect="none" points="289,318 288,328 " />
<polyline fill="none" vector-effect="none" points="284,317 283,327 " />
<polyline fill="none" vector-effect="none" points="280,316 278,326 " />
<polyline fill="none" vector-effect="none" points="275,316 273,326 " />
<polyline fill="none" vector-effect="none" points="270,315 268,325 " />
<polyline fill="none" vector-effect="none" points="265,314 263,324 " />
<polyline fill="none" vector-effect="none" points="260,314 258,324 " />
<polyline fill="none" vector-effect="none" points="255,313 253,323 " />
<polyline fill="none" vector-effect="none" points="250,312 248,322 " />
<polyline fill="none" vector-effect="none" points="245,312 243,322 " />
</g>

<g fill="none" stroke="#000000" stroke-opacity="1" stroke-width="1" stroke-linecap="square" stroke-linejoin="bevel" transform="matrix(0.999658,0,0,0.999658,76.9737,0)"
font-family="MS Shell Dlg 2" font-size="8.25" font-weight="400" font-style="normal" 
>
</g>

<g fill="none" stroke="#000000" stroke-opacity="1" stroke-width="1" stroke-linecap="square" stroke-linejoin="bevel" transform="matrix(0.999658,0,0,0.999658,76.9737,0)"
font-family="MS Shell Dlg 2" font-size="8.25" font-weight="400" font-style="normal" 
>
</g>

<g fill="none" stroke="#000000" stroke-opacity="1" stroke-width="2" stroke-linecap="round" stroke-linejoin="bevel" transform="matrix(0.999658,0,0,0.999658,76.9737,0)"
font-family="MS Shell Dlg 2" font-size="8.25" font-weight="400" font-style="normal" 
>
<polyline fill="none" vector-effect="none" points="143.67,275.103 197.269,310.763 " />
<polyline fill="none" vector-effect="none" points="171,287 165,295 " />
</g>

<g fill="none" stroke="#000000" stroke-opacity="1" stroke-width="1" stroke-linecap="square" stroke-linejoin="bevel" transform="matrix(0.999658,0,0,0.999658,76.9737,0)"
font-family="MS Shell Dlg 2" font-size="8.25" font-weight="400" font-style="normal" 
>
</g>

<g fill="none" stroke="#000000" stroke-opacity="1" stroke-width="1" stroke-linecap="square" stroke-linejoin="bevel" transform="matrix(0.999658,0,0,0.999658,76.9737,0)"
font-family="MS Shell Dlg 2" font-size="8.25" font-weight="400" font-style="normal" 
>
</g>

<g fill="none" stroke="#000000" stroke-opacity="1" stroke-width="2" stroke-linecap="round" stroke-linejoin="bevel" transform="matrix(0.999658,0,0,0.999658,76.9737,0)"
font-family="MS Shell Dlg 2" font-size="8.25" font-weight="400" font-style="normal" 
>
<polyline fill="none" vector-effect="none" points="143.67,275.103 140.753,338.643 " />
<polyline fill="none" vector-effect="none" points="137,304 147,304 " />
</g>

<g fill="none" stroke="#000000" stroke-opacity="1" stroke-width="1" stroke-linecap="square" stroke-linejoin="bevel" transform="matrix(0.999658,0,0,0.999658,76.9737,0)"
font-family="MS Shell Dlg 2" font-size="8.25" font-weight="400" font-style="normal" 
>
</g>

<g fill="none" stroke="#000000" stroke-opacity="1" stroke-width="1" stroke-linecap="square" stroke-linejoin="bevel" transform="matrix(0.999658,0,0,0.999658,76.9737,0)"
font-family="MS Shell Dlg 2" font-size="8.25" font-weight="400" font-style="normal" 
>
</g>

<g fill="none" stroke="#000000" stroke-opacity="1" stroke-width="2" stroke-linecap="round" stroke-linejoin="bevel" transform="matrix(0.999658,0,0,0.999658,76.9737,0)"
font-family="MS Shell Dlg 2" font-size="8.25" font-weight="400" font-style="normal" 
>
<polyline fill="none" vector-effect="none" points="143.67,275.103 57.4261,110.462 " />
<polyline fill="none" vector-effect="none" points="129,236 120,241 " />
<polyline fill="none" vector-effect="none" points="127,232 118,237 " />
<polyline fill="none" vector-effect="none" points="124,228 115,232 " />
<polyline fill="none" vector-effect="none" points="122,223 113,228 " />
<polyline fill="none" vector-effect="none" points="120,219 111,223 " />
<polyline fill="none" vector-effect="none" points="117,214 108,219 " />
<polyline fill="none" vector-effect="none" points="115,210 106,215 " />
<polyline fill="none" vector-effect="none" points="113,205 104,210 " />
<polyline fill="none" vector-effect="none" points="110,201 101,206 " />
<polyline fill="none" vector-effect="none" points="108,197 99,201 " />
<polyline fill="none" vector-effect="none" points="106,192 97,197 " />
<polyline fill="none" vector-effect="none" points="103,188 94,192 " />
<polyline fill="none" vector-effect="none" points="101,183 92,188 " />
<polyline fill="none" vector-effect="none" points="99,179 90,184 " />
<polyline fill="none" vector-effect="none" points="96,174 87,179 " />
<polyline fill="none" vector-effect="none" points="94,170 85,175 " />
<polyline fill="none" vector-effect="none" points="92,166 83,170 " />
<polyline fill="none" vector-effect="none" points="89,161 81,166 " />
<polyline fill="none" vector-effect="none" points="87,157 78,161 " />
<polyline fill="none" vector-effect="none" points="85,152 76,157 " />
<polyline fill="none" vector-effect="none" points="82,148 74,153 " />
</g>

<g fill="none" stroke="#000000" stroke-opacity="1" stroke-width="1" stroke-linecap="square" stroke-linejoin="bevel" transform="matrix(0.999658,0,0,0.999658,76.9737,0)"
font-family="MS Shell Dlg 2" font-size="8.25" font-weight="400" font-style="normal" 
>
</g>

<g fill="none" stroke="#000000" stroke-opacity="1" stroke-width="1" stroke-linecap="square" stroke-linejoin="bevel" transform="matrix(0.999658,0,0,0.999658,76.9737,0)"
font-family="MS Shell Dlg 2" font-size="8.25" font-weight="400" font-style="normal" 
>
</g>

<g fill="none" stroke="#000000" stroke-opacity="1" stroke-width="2" stroke-linecap="round" stroke-linejoin="bevel" transform="matrix(0.999658,0,0,0.999658,76.9737,0)"
font-family="MS Shell Dlg 2" font-size="8.25" font-weight="400" font-style="normal" 
>
<polyline fill="none" vector-effect="none" points="197.269,310.763 140.753,338.643 " />
<polyline fill="none" vector-effect="none" points="169,319 173,328 " />
</g>

<g fill="none" stroke="#000000" stroke-opacity="1" stroke-width="1" stroke-linecap="square" stroke-linejoin="bevel" transform="matrix(0.999658,0,0,0.999658,76.9737,0)"
font-family="MS Shell Dlg 2" font-size="8.25" font-weight="400" font-style="normal" 
>
</g>

<g fill="none" stroke="#000000" stroke-opacity="1" stroke-width="1" stroke-linecap="square" stroke-linejoin="bevel" transform="matrix(0.999658,0,0,0.999658,76.9737,0)"
font-family="MS Shell Dlg 2" font-size="8.25" font-weight="400" font-style="normal" 
>
</g>

<g fill="#000000" fill-opacity="1" stroke="#000000" stroke-opacity="1" stroke-width="1" stroke-linecap="square" stroke-linejoin="bevel" transform="matrix(0.999658,0,0,0.999658,76.9737,0)"
font-family="MS Shell Dlg 2" font-size="8.25" font-weight="400" font-style="normal" 
>
<path vector-effect="none" fill-rule="evenodd" d="M68.0327,110.462 C68.0327,116.32 63.284,121.069 57.4261,121.069 C51.5683,121.069 46.8195,116.32 46.8195,110.462 C46.8195,104.604 51.5683,99.8557 57.4261,99.8557 C63.284,99.8557 68.0327,104.604 68.0327,110.462 "/>
</g>

<g fill="none" stroke="#000000" stroke-opacity="1" stroke-width="1" stroke-linecap="square" stroke-linejoin="bevel" transform="matrix(0.999658,0,0,0.999658,76.9737,0)"
font-family="MS Shell Dlg 2" font-size="8.25" font-weight="400" font-style="normal" 
>
</g>

<g fill="none" stroke="#000000" stroke-opacity="1" stroke-width="1" stroke-linecap="square" stroke-linejoin="bevel" transform="matrix(1,0,0,1,41.9857,116.316)"
font-family="MS Shell Dlg 2" font-size="8.25" font-weight="400" font-style="normal" 
>
</g>

<g fill="none" stroke="#000000" stroke-opacity="1" stroke-width="1" stroke-linecap="square" stroke-linejoin="bevel" transform="matrix(1,0,0,1,41.9857,116.316)"
font-family="Baskerville" font-size="10" font-weight="400" font-style="normal" 
>
<text fill="#000000" fill-opacity="1" stroke="none" xml:space="preserve" x="0" y="9" font-family="Baskerville" font-size="10" font-weight="400" font-style="normal" 
 >Oal_D2@COX1</text>
</g>

<g fill="none" stroke="#000000" stroke-opacity="1" stroke-width="1" stroke-linecap="square" stroke-linejoin="bevel" transform="matrix(1,0,0,1,41.9857,116.316)"
font-family="MS Shell Dlg 2" font-size="8.25" font-weight="400" font-style="normal" 
>
</g>

<g fill="none" stroke="#000000" stroke-opacity="1" stroke-width="1" stroke-linecap="square" stroke-linejoin="bevel" transform="matrix(0.999658,0,0,0.999658,76.9737,0)"
font-family="MS Shell Dlg 2" font-size="8.25" font-weight="400" font-style="normal" 
>
</g>

<g fill="#000000" fill-opacity="1" stroke="#000000" stroke-opacity="1" stroke-width="1" stroke-linecap="square" stroke-linejoin="bevel" transform="matrix(0.999658,0,0,0.999658,76.9737,0)"
font-family="MS Shell Dlg 2" font-size="8.25" font-weight="400" font-style="normal" 
>
<path vector-effect="none" fill-rule="evenodd" d="M461.227,345.413 C461.227,349.555 457.869,352.913 453.727,352.913 C449.585,352.913 446.227,349.555 446.227,345.413 C446.227,341.271 449.585,337.913 453.727,337.913 C457.869,337.913 461.227,341.271 461.227,345.413 "/>
</g>

<g fill="none" stroke="#000000" stroke-opacity="1" stroke-width="1" stroke-linecap="square" stroke-linejoin="bevel" transform="matrix(0.999658,0,0,0.999658,76.9737,0)"
font-family="MS Shell Dlg 2" font-size="8.25" font-weight="400" font-style="normal" 
>
</g>

<g fill="none" stroke="#000000" stroke-opacity="1" stroke-width="1" stroke-linecap="square" stroke-linejoin="bevel" transform="matrix(1,0,0,1,543.541,331.3)"
font-family="MS Shell Dlg 2" font-size="8.25" font-weight="400" font-style="normal" 
>
</g>

<g fill="none" stroke="#000000" stroke-opacity="1" stroke-width="1" stroke-linecap="square" stroke-linejoin="bevel" transform="matrix(1,0,0,1,543.541,331.3)"
font-family="Baskerville" font-size="10" font-weight="400" font-style="normal" 
>
<text fill="#000000" fill-opacity="1" stroke="none" xml:space="preserve" x="0" y="9" font-family="Baskerville" font-size="10" font-weight="400" font-style="normal" 
 >Ofl_D2@COX1</text>
</g>

<g fill="none" stroke="#000000" stroke-opacity="1" stroke-width="1" stroke-linecap="square" stroke-linejoin="bevel" transform="matrix(1,0,0,1,543.541,331.3)"
font-family="MS Shell Dlg 2" font-size="8.25" font-weight="400" font-style="normal" 
>
</g>

<g fill="none" stroke="#000000" stroke-opacity="1" stroke-width="1" stroke-linecap="square" stroke-linejoin="bevel" transform="matrix(0.999658,0,0,0.999658,76.9737,0)"
font-family="MS Shell Dlg 2" font-size="8.25" font-weight="400" font-style="normal" 
>
</g>

<g fill="#000000" fill-opacity="1" stroke="#000000" stroke-opacity="1" stroke-width="1" stroke-linecap="square" stroke-linejoin="bevel" transform="matrix(0.999658,0,0,0.999658,76.9737,0)"
font-family="MS Shell Dlg 2" font-size="8.25" font-weight="400" font-style="normal" 
>
<path vector-effect="none" fill-rule="evenodd" d="M58.148,494.629 C58.148,498.772 54.7901,502.129 50.648,502.129 C46.5059,502.129 43.148,498.772 43.148,494.629 C43.148,490.487 46.5059,487.129 50.648,487.129 C54.7901,487.129 58.148,490.487 58.148,494.629 "/>
</g>

<g fill="none" stroke="#000000" stroke-opacity="1" stroke-width="1" stroke-linecap="square" stroke-linejoin="bevel" transform="matrix(0.999658,0,0,0.999658,76.9737,0)"
font-family="MS Shell Dlg 2" font-size="8.25" font-weight="400" font-style="normal" 
>
</g>

<g fill="none" stroke="#000000" stroke-opacity="1" stroke-width="1" stroke-linecap="square" stroke-linejoin="bevel" transform="matrix(1,0,0,1,76.9737,486.463)"
font-family="MS Shell Dlg 2" font-size="8.25" font-weight="400" font-style="normal" 
>
</g>

<g fill="none" stroke="#000000" stroke-opacity="1" stroke-width="1" stroke-linecap="square" stroke-linejoin="bevel" transform="matrix(1,0,0,1,76.9737,486.463)"
font-family="Baskerville" font-size="10" font-weight="400" font-style="normal" 
>
<text fill="#000000" fill-opacity="1" stroke="none" xml:space="preserve" x="0" y="9" font-family="Baskerville" font-size="10" font-weight="400" font-style="normal" 
 >Ome_D2@COX1</text>
</g>

<g fill="none" stroke="#000000" stroke-opacity="1" stroke-width="1" stroke-linecap="square" stroke-linejoin="bevel" transform="matrix(1,0,0,1,76.9737,486.463)"
font-family="MS Shell Dlg 2" font-size="8.25" font-weight="400" font-style="normal" 
>
</g>

<g fill="none" stroke="#000000" stroke-opacity="1" stroke-width="1" stroke-linecap="square" stroke-linejoin="bevel" transform="matrix(0.999658,0,0,0.999658,76.9737,-0.999658)"
font-family="MS Shell Dlg 2" font-size="8.25" font-weight="400" font-style="normal" 
>
</g>

<g fill="#000000" fill-opacity="1" stroke="#000000" stroke-opacity="1" stroke-width="1" stroke-linecap="square" stroke-linejoin="bevel" transform="matrix(0.999658,0,0,0.999658,76.9737,-0.999658)"
font-family="MS Shell Dlg 2" font-size="8.25" font-weight="400" font-style="normal" 
>
<path vector-effect="none" fill-rule="evenodd" d="M393.701,337.392 C393.701,341.534 390.343,344.892 386.201,344.892 C382.059,344.892 378.701,341.534 378.701,337.392 C378.701,333.25 382.059,329.892 386.201,329.892 C390.343,329.892 393.701,333.25 393.701,337.392 "/>
</g>

<g fill="none" stroke="#000000" stroke-opacity="1" stroke-width="1" stroke-linecap="square" stroke-linejoin="bevel" transform="matrix(0.999658,0,0,0.999658,76.9737,-0.999658)"
font-family="MS Shell Dlg 2" font-size="8.25" font-weight="400" font-style="normal" 
>
</g>

<g fill="none" stroke="#000000" stroke-opacity="1" stroke-width="1" stroke-linecap="square" stroke-linejoin="bevel" transform="matrix(1,0,0,1,272.108,355.271)"
font-family="MS Shell Dlg 2" font-size="8.25" font-weight="400" font-style="normal" 
>
</g>

<g fill="none" stroke="#000000" stroke-opacity="1" stroke-width="1" stroke-linecap="square" stroke-linejoin="bevel" transform="matrix(1,0,0,1,272.108,355.271)"
font-family="Baskerville" font-size="10" font-weight="400" font-style="normal" 
>
<text fill="#000000" fill-opacity="1" stroke="none" xml:space="preserve" x="0" y="9" font-family="Baskerville" font-size="10" font-weight="400" font-style="normal" 
 >Ofl_transcriptome_NODE_59_length_11849_cov_9828.488305_g2_i5</text>
</g>

<g fill="none" stroke="#000000" stroke-opacity="1" stroke-width="1" stroke-linecap="square" stroke-linejoin="bevel" transform="matrix(1,0,0,1,272.108,355.271)"
font-family="MS Shell Dlg 2" font-size="8.25" font-weight="400" font-style="normal" 
>
</g>

<g fill="none" stroke="#000000" stroke-opacity="1" stroke-width="1" stroke-linecap="square" stroke-linejoin="bevel" transform="matrix(0.999658,0,0,0.999658,76.9737,0)"
font-family="MS Shell Dlg 2" font-size="8.25" font-weight="400" font-style="normal" 
>
</g>

<g fill="#000000" fill-opacity="1" stroke="#000000" stroke-opacity="1" stroke-width="1" stroke-linecap="square" stroke-linejoin="bevel" transform="matrix(0.999658,0,0,0.999658,76.9737,0)"
font-family="MS Shell Dlg 2" font-size="8.25" font-weight="400" font-style="normal" 
>
<path vector-effect="none" fill-rule="evenodd" d="M30,44.0509 C30,48.193 26.6421,51.5509 22.5,51.5509 C18.3579,51.5509 15,48.193 15,44.0509 C15,39.9087 18.3579,36.5509 22.5,36.5509 C26.6421,36.5509 30,39.9087 30,44.0509 "/>
</g>

<g fill="none" stroke="#000000" stroke-opacity="1" stroke-width="1" stroke-linecap="square" stroke-linejoin="bevel" transform="matrix(0.999658,0,0,0.999658,76.9737,0)"
font-family="MS Shell Dlg 2" font-size="8.25" font-weight="400" font-style="normal" 
>
</g>

<g fill="none" stroke="#000000" stroke-opacity="1" stroke-width="1" stroke-linecap="square" stroke-linejoin="bevel" transform="matrix(1,0,0,1,10.9962,21.0437)"
font-family="MS Shell Dlg 2" font-size="8.25" font-weight="400" font-style="normal" 
>
</g>

<g fill="none" stroke="#000000" stroke-opacity="1" stroke-width="1" stroke-linecap="square" stroke-linejoin="bevel" transform="matrix(1,0,0,1,10.9962,21.0437)"
font-family="Baskerville" font-size="10" font-weight="400" font-style="normal" 
>
<text fill="#000000" fill-opacity="1" stroke="none" xml:space="preserve" x="0" y="9" font-family="Baskerville" font-size="10" font-weight="400" font-style="normal" 
 >AY926686.1 Ommatogammarus albinus cytochrome oxidase subunit I (COI) gene, partial cds; mitochondrial</text>
</g>

<g fill="none" stroke="#000000" stroke-opacity="1" stroke-width="1" stroke-linecap="square" stroke-linejoin="bevel" transform="matrix(1,0,0,1,10.9962,21.0437)"
font-family="MS Shell Dlg 2" font-size="8.25" font-weight="400" font-style="normal" 
>
</g>

<g fill="none" stroke="#000000" stroke-opacity="1" stroke-width="1" stroke-linecap="square" stroke-linejoin="bevel" transform="matrix(0.999658,0,0,0.999658,76.9737,0)"
font-family="MS Shell Dlg 2" font-size="8.25" font-weight="400" font-style="normal" 
>
</g>

<g fill="#000000" fill-opacity="1" stroke="#000000" stroke-opacity="1" stroke-width="1" stroke-linecap="square" stroke-linejoin="bevel" transform="matrix(0.999658,0,0,0.999658,76.9737,0)"
font-family="MS Shell Dlg 2" font-size="8.25" font-weight="400" font-style="normal" 
>
<path vector-effect="none" fill-rule="evenodd" d="M148.67,275.103 C148.67,277.864 146.432,280.103 143.67,280.103 C140.909,280.103 138.67,277.864 138.67,275.103 C138.67,272.341 140.909,270.103 143.67,270.103 C146.432,270.103 148.67,272.341 148.67,275.103 "/>
</g>

<g fill="none" stroke="#000000" stroke-opacity="1" stroke-width="1" stroke-linecap="square" stroke-linejoin="bevel" transform="matrix(0.999658,0,0,0.999658,76.9737,0)"
font-family="MS Shell Dlg 2" font-size="8.25" font-weight="400" font-style="normal" 
>
</g>

<g fill="none" stroke="#000000" stroke-opacity="1" stroke-width="1" stroke-linecap="square" stroke-linejoin="bevel" transform="matrix(1,0,0,1,215.097,269.511)"
font-family="MS Shell Dlg 2" font-size="8.25" font-weight="400" font-style="normal" 
>
</g>

<g fill="none" stroke="#000000" stroke-opacity="1" stroke-width="1" stroke-linecap="square" stroke-linejoin="bevel" transform="matrix(1,0,0,1,215.097,269.511)"
font-family="MS Shell Dlg 2" font-size="8.25" font-weight="400" font-style="normal" 
>
</g>

<g fill="none" stroke="#000000" stroke-opacity="1" stroke-width="1" stroke-linecap="square" stroke-linejoin="bevel" transform="matrix(0.999658,0,0,0.999658,76.9737,0)"
font-family="MS Shell Dlg 2" font-size="8.25" font-weight="400" font-style="normal" 
>
</g>

<g fill="#000000" fill-opacity="1" stroke="#000000" stroke-opacity="1" stroke-width="1" stroke-linecap="square" stroke-linejoin="bevel" transform="matrix(0.999658,0,0,0.999658,76.9737,0)"
font-family="MS Shell Dlg 2" font-size="8.25" font-weight="400" font-style="normal" 
>
<path vector-effect="none" fill-rule="evenodd" d="M202.269,310.763 C202.269,313.525 200.03,315.763 197.269,315.763 C194.507,315.763 192.269,313.525 192.269,310.763 C192.269,308.002 194.507,305.763 197.269,305.763 C200.03,305.763 202.269,308.002 202.269,310.763 "/>
</g>

<g fill="none" stroke="#000000" stroke-opacity="1" stroke-width="1" stroke-linecap="square" stroke-linejoin="bevel" transform="matrix(0.999658,0,0,0.999658,76.9737,0)"
font-family="MS Shell Dlg 2" font-size="8.25" font-weight="400" font-style="normal" 
>
</g>

<g fill="none" stroke="#000000" stroke-opacity="1" stroke-width="1" stroke-linecap="square" stroke-linejoin="bevel" transform="matrix(1,0,0,1,268.677,305.159)"
font-family="MS Shell Dlg 2" font-size="8.25" font-weight="400" font-style="normal" 
>
</g>

<g fill="none" stroke="#000000" stroke-opacity="1" stroke-width="1" stroke-linecap="square" stroke-linejoin="bevel" transform="matrix(1,0,0,1,268.677,305.159)"
font-family="MS Shell Dlg 2" font-size="8.25" font-weight="400" font-style="normal" 
>
</g>

<g fill="none" stroke="#000000" stroke-opacity="1" stroke-width="1" stroke-linecap="square" stroke-linejoin="bevel" transform="matrix(0.999658,0,0,0.999658,76.9737,0)"
font-family="MS Shell Dlg 2" font-size="8.25" font-weight="400" font-style="normal" 
>
</g>

<g fill="#000000" fill-opacity="1" stroke="#000000" stroke-opacity="1" stroke-width="1" stroke-linecap="square" stroke-linejoin="bevel" transform="matrix(0.999658,0,0,0.999658,76.9737,0)"
font-family="MS Shell Dlg 2" font-size="8.25" font-weight="400" font-style="normal" 
>
<path vector-effect="none" fill-rule="evenodd" d="M145.753,338.643 C145.753,341.405 143.514,343.643 140.753,343.643 C137.991,343.643 135.753,341.405 135.753,338.643 C135.753,335.882 137.991,333.643 140.753,333.643 C143.514,333.643 145.753,335.882 145.753,338.643 "/>
</g>

<g fill="none" stroke="#000000" stroke-opacity="1" stroke-width="1" stroke-linecap="square" stroke-linejoin="bevel" transform="matrix(0.999658,0,0,0.999658,76.9737,0)"
font-family="MS Shell Dlg 2" font-size="8.25" font-weight="400" font-style="normal" 
>
</g>

<g fill="none" stroke="#000000" stroke-opacity="1" stroke-width="1" stroke-linecap="square" stroke-linejoin="bevel" transform="matrix(1,0,0,1,212.18,333.029)"
font-family="MS Shell Dlg 2" font-size="8.25" font-weight="400" font-style="normal" 
>
</g>

<g fill="none" stroke="#000000" stroke-opacity="1" stroke-width="1" stroke-linecap="square" stroke-linejoin="bevel" transform="matrix(1,0,0,1,212.18,333.029)"
font-family="MS Shell Dlg 2" font-size="8.25" font-weight="400" font-style="normal" 
>
</g>

<g fill="none" stroke="#000000" stroke-opacity="1" stroke-width="1" stroke-linecap="square" stroke-linejoin="bevel" transform="matrix(1,0,0,1,0,0)"
font-family="MS Shell Dlg 2" font-size="8.25" font-weight="400" font-style="normal" 
>
</g>
</g>
</svg>
