<?xml version="1.0" encoding="UTF-8" standalone="no"?>
<!-- Created with Inkscape (http://www.inkscape.org/) -->

<svg
   width="351.61801mm"
   height="214.07941mm"
   viewBox="0 0 351.61801 214.07941"
   version="1.1"
   id="svg8005"
   inkscape:version="1.1.2 (0a00cf5339, 2022-02-04)"
   sodipodi:docname="eyes_only_shapes_no_labels.svg"
   xmlns:inkscape="http://www.inkscape.org/namespaces/inkscape"
   xmlns:sodipodi="http://sodipodi.sourceforge.net/DTD/sodipodi-0.dtd"
   xmlns="http://www.w3.org/2000/svg"
   xmlns:svg="http://www.w3.org/2000/svg">
  <sodipodi:namedview
     id="namedview8007"
     pagecolor="#ffffff"
     bordercolor="#666666"
     borderopacity="1.0"
     inkscape:pageshadow="2"
     inkscape:pageopacity="1"
     inkscape:pagecheckerboard="0"
     inkscape:document-units="mm"
     showgrid="false"
     inkscape:zoom="0.63072391"
     inkscape:cx="1191.488"
     inkscape:cy="447.1053"
     inkscape:window-width="1920"
     inkscape:window-height="1031"
     inkscape:window-x="0"
     inkscape:window-y="25"
     inkscape:window-maximized="1"
     inkscape:current-layer="layer1"
     fit-margin-top="1"
     fit-margin-left="1"
     fit-margin-right="1"
     fit-margin-bottom="1"
     showguides="true"
     inkscape:guide-bbox="true">
    <sodipodi:guide
       position="62.923729,276.16416"
       orientation="0,-1"
       id="guide16833" />
    <sodipodi:guide
       position="80.961864,192.68534"
       orientation="0,-1"
       id="guide16835" />
  </sodipodi:namedview>
  <defs
     id="defs8002" />
  <g
     inkscape:label="Layer 1"
     inkscape:groupmode="layer"
     id="layer1"
     transform="translate(78.933464,-30.1784)">
    <path
       style="fill:#000000;fill-opacity:1;stroke:none;stroke-width:0.492425;stroke-linecap:butt;stroke-linejoin:miter;stroke-miterlimit:4;stroke-dasharray:none;stroke-opacity:1"
       d="m 200.84335,180.90933 0.068,-4.76969 -2.11337,-5.4384 -1.41999,-2.6523 -0.23238,-3.81627 0.59492,-3.31468 0.98284,-1.60212 2.03146,-1.8802 -0.7931,-2.1233 1.07655,-4.81628 -1.52191,-3.02751 -3.1908,-2.09719 -1.8312,-0.12228 -3.65984,1.93481 -0.3388,1.36598 -1.60882,-0.31937 -0.434,2.68182 -1.31671,1.22518 -3.20731,0.17984 -2.60324,3.27512 -0.49542,2.96924 0.0217,2.61996 0.20576,1.83967 -0.6736,1.99937 -0.0198,2.63536 -0.11754,1.9916 -0.87992,1.65148 0.77867,2.41899 -0.0374,2.1384 0.76295,2.19514 1.81512,1.69341 2.22109,1.05692 1.9308,0.48706 1.98608,-0.44339 2.04621,3.24654 4.64363,1.15687 2.33146,-0.15231 1.45079,-1.1426 0.64136,-0.90136 z"
       id="path18887"
       inkscape:export-filename="/mnt/Work/Research/Projects/Genome/texts/2025_Ocm/Figures/23_7.png"
       inkscape:export-xdpi="150"
       inkscape:export-ydpi="150" />
    <path
       style="fill:#000000;fill-opacity:1;stroke:none;stroke-width:0.517718;stroke-linecap:butt;stroke-linejoin:miter;stroke-miterlimit:4;stroke-dasharray:none;stroke-opacity:1"
       d="m 142.19073,183.82762 c 0.94344,0.50137 2.13344,0.83231 3.15997,0.53625 1.45045,-0.41833 2.17686,-2.10157 3.37567,-3.019 0.4554,-0.34852 0.88168,-0.81647 1.44211,-0.9381 1.17965,-0.25599 2.57929,-0.13479 3.58106,0.53872 0.74104,0.49823 0.6394,1.78759 1.36873,2.3028 1.16372,0.82207 2.79539,1.10738 4.19301,0.83035 1.14383,-0.22675 2.22945,-0.9924 2.9129,-1.93719 1.113,-1.5386 1.61396,-3.59645 1.51171,-5.49266 -0.0972,-1.80217 -1.17821,-3.42348 -1.98986,-5.03547 -0.70481,-1.39984 -1.88633,-2.54327 -2.48376,-3.99221 -0.37795,-0.91662 -0.67599,-1.90764 -0.66542,-2.89906 0.0219,-2.07713 0.92903,-4.05224 1.52328,-6.04267 0.49974,-1.67372 0.90532,-3.4038 1.71462,-4.95172 0.52966,-1.01304 2.10773,-1.63091 2.02084,-2.77075 -0.18828,-2.47034 -3.00485,-4.20158 -5.23925,-5.2718 -2.19617,-1.05192 -5.01072,-1.68525 -7.26514,-0.76481 -1.86322,0.76072 -3.06472,2.79932 -3.84623,4.65392 -0.5431,1.28885 -0.31668,2.77941 -0.44795,4.17185 -0.0935,0.99314 0.084,2.04014 -0.2423,2.98278 -0.23046,0.66565 -0.64879,1.28504 -1.1678,1.7613 -0.77793,0.71382 -2.20411,0.63276 -2.78024,1.51752 -0.6033,0.92648 -0.39143,2.20577 -0.2758,3.30529 0.11082,1.05335 0.95237,1.98359 0.91735,3.04216 -0.0336,1.03338 -0.61661,1.98478 -1.0899,2.90403 -0.47514,0.92282 -1.92567,1.56334 -1.73741,2.58408 0.1684,0.91288 1.83147,0.78975 2.27608,1.60463 0.34857,0.63887 0.20824,1.46291 0.0922,2.18134 -0.24898,1.54135 -0.61921,3.21666 -1.6611,4.3795 -0.37881,0.42281 -1.33423,0.23701 -1.51673,0.77458 -0.14524,0.42784 0.32617,0.85185 0.58242,1.22399 0.47566,0.69075 0.99631,1.42677 1.73689,1.82035 z"
       id="path19625"
       sodipodi:nodetypes="ssssssssssssssssssssssssssssssss"
       inkscape:export-filename="/mnt/Work/Research/Projects/Genome/texts/2025_Ocm/Figures/23_6.png"
       inkscape:export-xdpi="150"
       inkscape:export-ydpi="150" />
    <path
       style="fill:#000000;fill-opacity:1;stroke:none;stroke-width:0.50107;stroke-linecap:butt;stroke-linejoin:miter;stroke-miterlimit:4;stroke-dasharray:none;stroke-opacity:1"
       d="m 169.13114,68.201574 c 0.4449,0.0186 0.92321,0.1367 1.26897,0.41726 0.6769,0.54923 0.6172,1.73502 1.31106,2.26264 0.87711,0.66699 2.10088,0.74289 3.19909,0.83272 0.76455,0.0625 1.6105,0.14258 2.29173,-0.2101 0.67093,-0.34735 1.09396,-1.06941 1.47194,-1.72358 0.34233,-0.5925 0.35643,-1.33526 0.68665,-1.9346 0.58409,-1.06037 1.66374,-1.79322 2.24364,-2.85588 0.46676,-0.85532 1.03093,-2.21251 0.95603,-2.7624 -0.0748,-0.54988 -1.01753,-1.81392 -1.13524,-2.05603 -0.11767,-0.24213 -0.58933,-3.39391 -0.67983,-3.76818 -0.0905,-0.37427 -1.69158,-3.58372 -1.8927,-3.92626 -0.2011,-0.34256 -0.41519,-2.12125 -0.42828,-2.40176 -0.0131,-0.28054 0.9612,-2.94342 1.55875,-4.36982 0.55521,-1.32522 1.93966,-3.62535 1.87817,-3.87976 -0.0615,-0.25441 0.94716,-3.87524 0.21084,-5.58748 -0.62588,-1.45547 -2.21143,-2.32309 -3.57061,-3.13713 -0.96081,-0.57544 -2.04418,-0.9801 -3.14641,-1.17846 -0.62177,-0.11185 -1.33291,-0.28361 -1.89525,0.004 -0.56606,0.28984 -0.65105,1.11457 -1.1189,1.54538 -0.3711,0.34174 -0.98662,0.93434 -1.29478,0.78371 -0.30813,-0.1506 -0.77498,-0.34188 -1.04588,-0.32712 -0.27092,0.0148 -2.25344,0.79749 -2.81375,1.74916 -0.38068,0.64652 -0.15919,1.49924 -0.11169,2.24798 0.0361,0.56679 0.53125,1.15897 0.29917,1.67731 -0.35011,0.7819 -1.49767,0.84103 -2.188,1.34836 -0.9811,0.72098 -2.04406,1.40873 -2.75746,2.39533 -0.41694,0.57665 -0.7933,1.25822 -0.82449,1.96912 -0.0454,1.03427 1.15719,1.94574 0.94409,2.95884 -0.19188,0.91251 -1.39996,1.28101 -1.85189,2.09665 -0.49214,0.88824 -0.28404,2.08877 -0.86675,2.9205 -0.42935,0.6132 -1.4511,0.67673 -1.80472,1.33652 -0.34176,0.6377 -0.15168,1.44546 -0.10964,2.16777 0.0536,0.92583 0.48296,2.36256 0.46067,2.74377 -0.0224,0.38119 -0.78901,1.5792 -1.31865,2.27906 -0.31427,0.41523 -0.89668,0.63628 -1.08878,1.12028 -0.25924,0.65327 1.7e-4,1.40615 0.0334,2.10823 0.0328,0.70937 0.21571,1.41583 0.16413,2.12408 -0.0558,0.76821 -1.38536,1.4395 -0.5099,2.25375 0.87541,0.81426 1.18026,1.78879 2.13137,1.99965 1.34051,0.29719 2.59604,-0.89855 3.91367,-1.28475 1.18599,-0.34762 2.39536,-0.60998 3.58955,-0.92825 0.87707,-0.23375 1.74677,-0.49516 2.62598,-0.72073 0.40335,-0.10345 0.799,-0.30747 1.21503,-0.29018 5e-5,1e-5 -2.2e-4,-10e-6 -1.6e-4,-10e-6 z"
       id="path25294"
       sodipodi:nodetypes="sssssssssssssssssssssssssssssssssssssssssssss"
       inkscape:export-filename="/mnt/Work/Research/Projects/Genome/texts/2025_Ocm/Figures/21_8.png"
       inkscape:export-xdpi="150"
       inkscape:export-ydpi="150" />
    <path
       style="fill:#000000;fill-opacity:1;stroke:none;stroke-width:0.101616;stroke-linecap:butt;stroke-linejoin:miter;stroke-miterlimit:4;stroke-dasharray:none;stroke-opacity:1"
       d="m -26.335564,62.491064 c -0.4105,-1.99419 -1.41537,-3.84086 -1.77146,-5.84549 -0.32413,-1.82451 -0.63277,-3.72378 -0.31892,-5.55009 0.24818,-1.44441 1.32498,-2.6375 1.70313,-4.05344 0.43295,-1.62116 0.28941,-3.35078 0.62346,-4.99517 0.20087,-0.98872 1.01399,-1.92025 0.8268,-2.91165 -0.23904,-1.26605 -1.22477,-2.43022 -2.33893,-3.07728 -1.58256,-0.91911 -3.62277,-0.90996 -5.44294,-0.71955 -0.67683,0.0708 -1.55406,0.10998 -1.92476,0.68066 -0.32522,0.50065 0.40946,1.2523 0.14082,1.78547 -0.6,1.19092 -2.27735,1.38904 -3.3923,2.12059 -0.68436,0.44903 -1.4837,0.77612 -2.02294,1.39189 -0.7718,0.88135 -1.66193,1.96349 -1.5927,3.13295 0.0471,0.79553 1.44907,1.20089 1.32732,1.98845 -0.28058,1.815 -4.29987,3.44493 -4.29987,3.44493 v 0 c 0,0 0.0555,0.78309 0.20445,1.13879 0.3838,0.91588 1.73252,1.43858 1.72127,2.43155 -0.0139,1.22844 -2.18311,1.73067 -2.19703,2.95911 -0.0157,1.3858 2.63585,2.02742 2.40222,3.39348 -0.23549,1.37681 -3.12703,1.05543 -3.4202,2.42112 -0.57235,2.66613 4.14872,7.05058 4.14872,7.05058 v 0 c 0,0 1.99951,0.78425 3.04407,1.01384 1.55514,0.34181 3.51084,-0.47315 4.74726,0.53013 1.09897,0.89176 0.0896,3.35076 1.33011,4.03207 1.7532,0.96291 4.42853,-0.0317 5.81758,-1.47092 1.37844,-1.42823 1.15438,-3.83881 1.25398,-5.82122 0.0854,-1.69874 -0.22621,-3.40485 -0.56917,-5.07079 z"
       id="path11389"
       sodipodi:nodetypes="sssssssssssssssssssssssssssss"
       inkscape:export-filename="/mnt/Work/Research/Projects/Genome/texts/2025_Ocm/Figures/21_2"
       inkscape:export-xdpi="150"
       inkscape:export-ydpi="150" />
    <path
       style="fill:#000000;fill-opacity:1;stroke:none;stroke-width:0.530756;stroke-linecap:butt;stroke-linejoin:miter;stroke-miterlimit:4;stroke-dasharray:none;stroke-opacity:1"
       d="m -18.720874,229.9831 c -0.0311,-0.63832 -0.33015,-1.23628 -0.54584,-1.83786 -0.3365,-0.9386 -0.85092,-1.80884 -1.16439,-2.7554 -0.38128,-1.15136 -0.65639,-2.77827 -0.86402,-3.5345 -0.20764,-0.75622 -0.18169,-2.98381 0.0559,-4.44705 0.32724,-2.01042 1.79122,-5.51798 1.86133,-5.82014 0.0712,-0.30193 0.81039,-2.92389 0.41398,-4.31256 -0.26485,-0.92757 -1.31698,-2.09047 -1.7557,-2.30057 -0.43871,-0.2101 -3.04386,-1.55439 -4.70457,-1.68818 -1.39369,-0.11228 -2.89903,0.0924 -4.12396,0.76647 -0.47588,0.26198 -0.80168,0.74624 -1.10872,1.19439 -0.53681,0.78352 -0.68639,1.79544 -1.24732,2.5619 -0.48766,0.66633 -1.37276,0.99753 -1.79485,1.70715 -0.25828,0.4342 -0.54997,0.98313 -0.39374,1.46359 0.24524,0.754 1.88929,0.70218 1.8509,1.49417 -0.0375,0.77453 -1.19689,1.06793 -1.94295,1.2794 -0.62687,0.17766 -1.35572,-0.31774 -1.95377,-0.0585 -0.935,0.40475 -1.4835,1.42672 -2.0242,2.29022 -0.33669,0.53775 -0.47319,1.17774 -0.73252,1.75676 -0.20188,0.45091 -0.52094,0.8572 -0.64086,1.33647 -0.34255,1.36925 -0.34364,3.79613 -0.18269,4.23055 0.16098,0.43441 0.40907,2.41105 0.11313,3.56105 -0.27372,1.06217 -1.40503,1.7672 -1.68107,2.82871 -0.24458,0.94039 0.27989,1.96309 0.0798,2.91389 -0.2388,1.13615 -1.11578,2.04904 -1.49046,3.14786 -0.36604,1.07351 -0.7391,2.19011 -0.72583,3.32426 0.0135,1.16856 -0.0212,2.60328 0.82729,3.40691 0.90384,0.85609 2.43641,0.83751 3.67162,0.68368 1.3106,-0.16376 2.36938,-1.17484 3.59748,-1.66093 1.11577,-0.44163 2.22512,-0.98806 3.41589,-1.13663 0.72784,-0.0908 1.51849,-0.12361 2.19458,0.16054 1.07441,0.45192 1.51777,1.93923 2.62136,2.31425 0.86322,0.29333 1.88634,0.16248 2.72874,-0.18615 0.94707,-0.392 1.57187,-1.31768 2.3185,-2.01992 0.80881,-0.76077 1.86344,-1.36903 2.33773,-2.37301 0.61196,-1.29531 0.34588,-2.84537 0.44955,-4.27419 0.0374,-0.51453 0.055,-0.70793 0.0621,-1.54635 0.004,-0.4747 0.51886,-1.63219 0.47846,-2.46962 z"
       id="path29752"
       sodipodi:nodetypes="ssssssssssssssssssssssssssssssssssssss"
       inkscape:export-filename="/mnt/Work/Research/Projects/Genome/texts/2025_Ocm/Figures/23_11.png"
       inkscape:export-xdpi="150"
       inkscape:export-ydpi="150" />
    <path
       style="fill:#000000;fill-opacity:1;stroke:none;stroke-width:0.0997703;stroke-linecap:butt;stroke-linejoin:miter;stroke-miterlimit:4;stroke-dasharray:none;stroke-opacity:1"
       d="m 11.132086,42.214744 c -0.62842,1.47596 -2.5829897,2.00654 -3.4475097,3.35782 -1.04483,1.63314 -1.85912,3.54671 -1.93819,5.48387 -0.0945,2.31611 0.6495,4.69738 1.77529,6.72368 0.55929,1.00666 2.19275,2.17252 2.37031,2.51338 0.1775497,0.34087 1.8059597,3.01748 1.8668197,3.90379 0.0608,0.88629 0.34479,5.40899 0.2139,5.87248 -0.13096,0.4635 -0.4531,2.508 -1.20448,3.47783 -0.9950797,1.28435 -2.4881797,2.28901 -4.0613497,2.69506 -1.74598,0.45065 -3.72804,0.25868 -5.39198,-0.43615 -2.29875004,-0.95994 -5.42192,-4.40652 -5.66535,-4.8738 -0.24342,-0.4673 -2.57672,-2.50469 -3.04772,-4.15708 -0.26469,-0.92851 0.49745,-1.96203 0.22355,-2.88788 -0.22124,-0.74803 -1.10786,-1.14494 -1.42094,-1.85942 -0.47126,-1.07547 -0.76807,-2.30646 -0.60801,-3.46969 0.0813,-0.59068 0.74375,-1.01752 0.77317,-1.61306 0.0688,-1.39209 -1.43187,-2.53654 -1.42699,-3.93032 0.005,-1.28933 0.59636,-2.57701 1.34535,-3.62648 0.62374,-0.87401 1.69654,-1.32 2.49184,-2.04143 0.68628,-0.6225 1.48024,-1.17745 1.96221,-1.96877 0.66762,-1.09616 0.7753,-2.44711 1.17595,-3.66644 0.40967,-1.24666 0.3121,-2.8191 1.2556,-3.73114 1.24660996,-1.20508 3.25,-1.53575 4.98326,-1.49103 1.82988,0.0472 3.53143,1.03309 5.17283,1.84331 0.93181,0.45994 2.1231197,0.78013 2.6165597,1.69463 0.3462,0.64149 0.27149,1.51613 -0.0142,2.18682 z"
       id="path27622"
       sodipodi:nodetypes="ssssssssssssssssssssssssss"
       inkscape:export-filename="/mnt/Work/Research/Projects/Genome/texts/2025_Ocm/Figures/21_3.png"
       inkscape:export-xdpi="150"
       inkscape:export-ydpi="150" />
    <path
       style="fill:#000000;fill-opacity:1;stroke:none;stroke-width:0.50017;stroke-linecap:butt;stroke-linejoin:miter;stroke-miterlimit:4;stroke-dasharray:none;stroke-opacity:1"
       d="m 169.99259,200.17448 c -0.59127,-0.64036 -1.41745,-1.07909 -2.25309,-1.32689 -1.24283,-0.36854 -2.61382,-0.42573 -3.88512,-0.17234 -1.54809,0.30861 -3.17845,0.88596 -4.28892,2.00788 -0.77384,0.7818 -1.24731,1.90956 -1.3685,3.00288 -0.0764,0.68912 0.52036,1.34862 0.42718,2.03569 -0.13295,0.98031 -0.6363,1.96398 -1.36104,2.6374 -0.43561,0.40473 -1.08509,0.48837 -1.64094,0.69955 -0.26129,0.0993 -0.5893,0.0771 -0.79518,0.26635 0.79518,-0.26635 -1.08692,1.11538 -1.64665,1.65512 -1.49432,1.58488 -1.22683,4.18072 -1.78554,6.28607 -0.42776,1.61182 -1.02986,3.19802 -1.19913,4.85702 -0.12399,1.21523 -0.13691,2.47256 0.1419,3.66193 0.19624,0.83771 0.64565,1.59913 1.0562,2.35528 0.9675,1.782 1.79791,3.74778 3.29896,5.11085 1.48407,1.34714 3.54272,1.87709 5.34282,2.75848 1.75878,0.86115 3.37928,2.29979 5.33006,2.47062 1.67917,0.14707 3.72584,-0.0755 4.88768,-1.2968 1.26956,-1.33446 0.91057,-3.57848 1.14927,-5.40486 0.19618,-1.50123 0.34784,-3.02694 0.2288,-4.53628 -0.21713,-2.75275 -1.38452,-5.36355 -1.70929,-8.1057 -0.17508,-1.47842 -0.12038,-2.97579 -0.12481,-4.46455 -0.003,-1.06946 -0.17811,-2.16741 0.0704,-3.2076 0.1921,-0.804 0.77647,-1.46423 1.0722,-2.23615 0.42989,-1.12215 0.98327,-2.25865 1.01215,-3.45996 0.0255,-1.06285 -0.38827,-2.09998 -0.74737,-3.10064 -0.31208,-0.86977 -0.58549,-1.81415 -1.21222,-2.49308 z"
       id="path41147"
       sodipodi:nodetypes="aaaaaaaaccaaaaaaaaaaaaaaaaaa"
       inkscape:export-filename="/mnt/Work/Research/Projects/Genome/texts/2025_Ocm/Figures/25_hy.png"
       inkscape:export-xdpi="150"
       inkscape:export-ydpi="150" />
    <path
       style="fill:#000000;fill-opacity:1;stroke:none;stroke-width:0.0997739;stroke-linecap:butt;stroke-linejoin:miter;stroke-miterlimit:4;stroke-dasharray:none;stroke-opacity:1"
       d="m -60.985084,37.246684 c 0.45061,0.79741 0.84702,1.62885 1.173,2.4848 0.43667,1.14648 1.02146,2.30355 1.04091,3.53022 0.0108,0.68786 -0.25543,1.36231 -0.52062,1.99709 -0.2312,0.55337 -0.79143,0.96055 -0.91961,1.54642 -0.15404,0.70409 0.37801,1.44517 0.22815,2.15019 -0.24704,1.16242 -1.45001,1.94585 -1.7853,3.08596 -0.15174,0.51596 -0.21031,1.09067 -0.0767,1.61161 0.0987,0.38492 0.46135,0.65341 0.62299,1.01643 0.19814,0.44505 0.34448,0.91929 0.41501,1.40131 0.0764,0.52259 -0.18081,1.08974 0.004,1.58442 0.14122,0.37766 0.64644,0.53859 0.79128,0.91486 0.25277,0.65661 -0.14235,1.43234 0.0461,2.11021 0.25414,0.91452 1.17571,1.55234 1.41567,2.47069 0.096,0.36749 0.10145,0.77646 -0.0105,1.13948 -0.22083,0.71659 -1.06067,1.14511 -1.24911,1.87092 -0.1813,0.69819 0.27672,1.44301 0.17429,2.15706 -0.0825,0.57466 -0.2722,1.16376 -0.62273,1.62655 -0.43561,0.57508 -1.20839,0.80038 -1.73609,1.29237 -0.38703,0.36059 -0.72092,0.77733 -1.03512,1.20286 -0.35705,0.48352 -0.44439,1.2176 -0.96012,1.5263 -0.51988,0.31121 -1.36304,0.53156 -1.81335,0.12615 -0.50971,-0.45887 0.41586,-1.57506 -0.0729,-2.05621 -0.28514,-0.28072 -0.80045,-0.0415 -1.2002,-0.0238 -0.59605,0.0265 -1.32762,0.58317 -1.77946,0.19351 -0.74592,-0.6433 0.51915,-2.19964 -0.11574,-2.95282 -0.23408,-0.27772 -0.73885,-0.38447 -1.06587,-0.22643 -0.25338,0.12247 -0.0949,0.77631 -0.37557,0.75612 -0.50686,-0.0365 -0.027,-1.21003 -0.47578,-1.44834 -0.7321,-0.38871 -1.80717,1.2682 -2.39172,0.68056 -0.47899,-0.4815 0.77143,-1.30881 0.56791,-1.95676 -0.20825,-0.66305 -0.96901,-1.07152 -1.62162,-1.31047 -0.67765,-0.24811 -1.68197,0.4885 -2.16441,-0.0482 -0.34687,-0.38587 0.35911,-1.08516 0.13074,-1.55107 -0.2716,-0.55415 -1.45928,-0.39732 -1.55339,-1.00724 -0.22345,-1.4481 2.61584,-1.93788 2.79582,-3.39203 0.13276,-1.07257 -0.975,-1.93129 -1.38992,-2.92922 -0.26471,-0.63668 -0.94101,-1.30078 -0.6996,-1.94667 0.21521,-0.5758 1.18522,-0.45573 1.60902,-0.90099 0.43307,-0.45503 1.03855,-1.09238 0.83832,-1.68779 -0.0961,-0.28579 -0.71402,-0.11661 -0.81014,-0.40238 -0.14896,-0.44299 0.54445,-0.79513 0.62371,-1.25573 0.10401,-0.6044 0.0104,-1.25847 -0.22058,-1.82658 -0.27852,-0.68496 -1.52026,-1.04423 -1.34639,-1.76292 0.18936,-0.78269 1.70602,-0.38763 2.18177,-1.03734 0.43845,-0.59877 -0.11411,-1.59258 0.30431,-2.20554 0.46678,-0.68385 1.76931,-0.48685 2.16781,-1.21261 0.1809,-0.32946 -0.22605,-0.78684 -0.0636,-1.1258 0.30503,-0.63662 1.11948,-0.86512 1.72278,-1.23166 0.51882,-0.31522 1.29075,-0.31856 1.62271,-0.82685 0.51091,-0.78232 -0.0784,-1.89533 0.16115,-2.79848 0.10819,-0.40803 0.21889,-0.89016 0.56335,-1.13419 0.56525,-0.40046 1.41845,2.6e-4 2.06247,-0.25492 0.42629,-0.1689 0.66614,-0.69819 1.11032,-0.81202 0.64351,-0.16493 1.41207,-0.0935 1.97618,0.25772 0.88129,0.54813 1.21557,1.68767 1.7262,2.59119 z"
       id="path2083"
       sodipodi:nodetypes="aaaaaaaaaaaaaaaaaaaaaaaaaaaaaaaaaaaaaaaaaaaaaaaaaaaaaaaa"
       inkscape:export-filename="/mnt/Work/Research/Projects/Genome/texts/2025_Ocm/Figures/21_1.png"
       inkscape:export-xdpi="150"
       inkscape:export-ydpi="150" />
    <path
       style="fill:#000000;fill-opacity:1;stroke:none;stroke-width:0.12718;stroke-linecap:butt;stroke-linejoin:miter;stroke-miterlimit:4;stroke-dasharray:none;stroke-opacity:1"
       d="m 48.575526,45.585954 c -0.14026,1.61507 -0.25721,3.23211 -0.39457,4.84743 -0.0972,1.14389 -0.1142,2.2984 -0.30428,3.43058 -0.24973,1.48834 -1.15256,2.88528 -1.0939,4.39327 0.0632,1.62497 1.23773,3.03086 1.54296,4.62814 0.21344,1.11691 0.44248,2.29722 0.19041,3.40604 -0.18142,0.79787 -0.72052,1.47584 -1.18309,2.15078 -0.34151,0.49826 -1.06821,0.79133 -1.16575,1.38746 -0.19308,1.17976 1.17652,2.15011 1.31163,3.33791 0.0821,0.7212 0.19537,1.64354 -0.32088,2.15378 -0.61768,0.61048 -1.74545,0.58966 -2.58122,0.3537 -0.77312,-0.21825 -1.277,-0.97921 -1.86404,-1.5276 -0.4953,-0.46268 -0.7791,-1.19369 -1.3928,-1.4814 -1.06399,-0.49883 -2.34771,-0.30949 -3.5189,-0.21325 -0.46858,0.0384 -0.90715,0.35853 -1.37515,0.31364 -0.72509,-0.0695 -1.28992,-0.71688 -1.99941,-0.88185 -0.42259,-0.0983 -0.97352,0.23118 -1.30048,-0.054 -0.69003,-0.60182 -0.56153,-1.791 -0.48588,-2.70346 0.0875,-1.05449 0.90017,-1.94452 1.06842,-2.98918 0.31873,-1.97894 -0.14369,-6.01161 -0.14369,-6.01161 v 0 c 0,0 1.2556,-1.72102 1.32802,-2.73057 0.0599,-0.83329 -0.34456,-1.66429 -0.76322,-2.38725 -0.54486,-0.9409 -1.77322,-1.40809 -2.20028,-2.40799 -0.40859,-0.95669 -0.48468,-2.11088 -0.20869,-3.11389 0.15503,-0.56372 0.47413,-1.18009 0.99603,-1.44368 0.84155,-0.4251 1.89242,0.21256 2.82707,0.0887 0.61469,-0.0815 1.7799,-0.5406 1.7799,-0.5406 v 0 l -0.83127,-3.46133 v 0 c 0,0 1.70045,-1.84378 1.93995,-3.01445 0.0913,-0.44622 -0.35154,-0.90846 -0.22879,-1.34704 0.1812,-0.6475 0.81304,-1.08383 1.32095,-1.5244 0.6023,-0.52246 1.39082,-0.79409 2.0109,-1.29532 0.38,-0.30718 0.57197,-0.88103 1.03451,-1.03856 0.65094,-0.22167 1.39182,0.0552 2.04531,0.26927 0.98879,0.32344 2.02224,0.74512 2.73564,1.50233 0.73467,0.7798 1.12718,1.86241 1.37671,2.90431 0.20054,0.83724 0.0988,1.72131 0.071,2.58178 -0.0261,0.80917 -0.1532,1.61191 -0.22322,2.41848 z"
       id="path13154"
       sodipodi:nodetypes="sssssssssssssssssssssssssssssssssssssssss"
       inkscape:export-filename="/mnt/Work/Research/Projects/Genome/texts/2025_Ocm/Figures/21_4.png"
       inkscape:export-xdpi="150"
       inkscape:export-ydpi="150" />
    <path
       style="fill:#000000;fill-opacity:1;stroke:none;stroke-width:0.0918006;stroke-linecap:butt;stroke-linejoin:miter;stroke-miterlimit:4;stroke-dasharray:none;stroke-opacity:1"
       d="m 88.861336,46.957784 c -0.33983,2.00638 -2.325345,3.34176 -3.414162,5.06093 -0.609741,0.96272 -1.515516,1.82361 -1.744934,2.93985 -0.237176,1.15434 -0.155338,2.49999 0.459289,3.50545 0.561398,0.91835 2.132078,0.89404 2.658466,1.83291 0.440049,0.78487 0.176884,1.79604 0.147869,2.69537 -0.03038,0.92875 -0.496073,1.85346 -0.331295,2.76803 0.171342,0.95108 1.219907,1.61704 1.327447,2.57744 0.16983,1.51602 -0.664926,2.98284 -1.14321,4.4314 -0.196982,0.59673 -0.14083,1.47765 -0.708606,1.74691 -0.518792,0.24603 -1.101771,-0.69236 -1.645724,-0.50855 -0.963641,0.32564 -0.87895,1.9967 -1.771412,2.48477 -0.751584,0.41104 -1.743719,0.36466 -2.566762,0.12702 -0.841598,-0.24294 -1.499013,-0.92449 -2.15163,-1.50877 -0.776413,-0.69508 -1.563448,-1.43339 -2.066074,-2.34642 -0.326007,-0.59192 -0.152323,-1.41418 -0.569898,-1.94557 -0.38667,-0.49221 -1.014434,-0.80597 -1.626014,-0.93946 -1.01222,-0.22091 -2.17193,0.76376 -3.09435,0.29207 -0.6288,-0.32157 -0.91316,-1.13888 -1.07336,-1.82671 -0.20824,-0.89426 0.41429,-1.85359 0.20272,-2.74712 -0.3216,-1.35841 -2.02659,-2.20449 -2.14777,-3.59515 -0.0965,-1.10669 1.42691,-2.02842 1.18863,-3.11343 -0.27231,-1.24012 -1.94998,-1.65577 -2.72461,-2.66173 -0.69387,-0.90109 -1.46534,-1.85216 -1.6815,-2.96872 -0.22669,-1.17087 0.11294,-2.40965 0.47399,-3.54633 0.28929,-0.91069 0.5775,-1.95008 1.32949,-2.53961 1.09456,-0.85811 2.72218,-0.5884 4.05164,-0.99696 0.90539,-0.27832 1.97081,-0.3427 2.66437,-0.98779 1.04473,-0.97168 1.27689,-2.55792 1.774359,-3.89514 0.509676,-1.36992 0.03073,-3.37597 1.232349,-4.20827 0.917951,-0.63588 2.225297,0.30031 3.340737,0.24871 0.947568,-0.0438 1.895891,-0.73862 2.806304,-0.47227 1.395272,0.40816 2.257501,1.84934 3.232562,2.9276 0.984933,1.08925 1.980501,2.22119 2.614909,3.54559 0.5397,1.12671 1.16473,2.39211 0.95616,3.62389 z"
       id="path18654"
       sodipodi:nodetypes="sssssssssssssssssssssssssssssssssss"
       inkscape:export-filename="/mnt/Work/Research/Projects/Genome/texts/2025_Ocm/Figures/21_5.png"
       inkscape:export-xdpi="150"
       inkscape:export-ydpi="150" />
    <path
       style="fill:#000000;fill-opacity:1;stroke:none;stroke-width:0.112063;stroke-linecap:butt;stroke-linejoin:miter;stroke-miterlimit:4;stroke-dasharray:none;stroke-opacity:1"
       d="m 114.51792,69.350434 c -0.18775,-1.36018 -1.59606,-2.30198 -1.9491,-3.62888 -0.25455,-0.95535 0.0437,-1.98411 -0.0807,-2.96493 -0.12408,-0.97863 -0.48116,-1.91472 -0.66027,-2.88479 -0.30751,-1.66566 -0.79865,-3.34018 -0.7096,-5.03164 0.0622,-1.18142 0.46256,-2.32929 0.86187,-3.44292 0.37798,-1.05404 1.04736,-1.98623 1.44091,-3.03456 0.49466,-1.31768 1.3203,-2.66716 1.14634,-4.06383 -0.24915,-2.00018 -1.43923,-3.98768 -3.01923,-5.23925 -2.02866,-1.60696 -4.84918,-2.32104 -7.43572,-2.23386 -1.61546,0.0544 -4.539614,1.70475 -4.539614,1.70475 v 0 c 0,0 -0.98691,2.24326 -1.71062,3.21953 -0.75187,1.01417 -2.279,1.47668 -2.68371,2.67256 -0.27555,0.81429 0.32781,1.69612 0.34668,2.55557 0.0257,1.17262 -0.83863,2.4524 -0.31955,3.5042 0.24055,0.48739 1.05663,0.43257 1.37895,0.87021 0.41246,0.56 0.40327,1.33348 0.54003,2.01539 0.22427,1.11794 0.90194,2.33986 0.45752,3.38991 -0.34185,0.80775 -1.59482,0.85804 -2.11703,1.56278 -0.48935,0.66044 -0.82478,1.50241 -0.82349,2.32438 10e-4,0.89103 0.5925,1.68073 0.90056,2.5168 0.43712,1.18636 1.28659,2.28362 1.34478,3.54663 0.0346,0.75014 -0.74863,1.4346 -0.60164,2.17102 0.19945,0.99914 1.40333,1.50842 1.88452,2.40647 0.29754,0.55532 0.41299,1.19084 0.59352,1.79444 0.20276,0.67792 -0.0391,1.65767 0.54941,2.05044 0.933474,0.62292 2.242554,-0.1968 3.337334,-0.44343 0.83882,-0.18894 1.62319,-1.00454 2.45571,-0.78948 1.28832,0.33279 1.41029,2.76533 2.73307,2.90949 2.37683,0.25903 5.92174,-4.04733 5.92174,-4.04733 0.96118,-0.65697 0.91649,-2.25635 0.7573,-3.40967 z"
       id="path20485"
       sodipodi:nodetypes="ssssssssssssssssssssssssssssssss"
       inkscape:export-filename="/mnt/Work/Research/Projects/Genome/texts/2025_Ocm/Figures/21_6.png"
       inkscape:export-xdpi="150"
       inkscape:export-ydpi="150" />
    <path
       style="fill:#000000;fill-opacity:1;stroke:none;stroke-width:0.0901403;stroke-linecap:butt;stroke-linejoin:miter;stroke-miterlimit:4;stroke-dasharray:none;stroke-opacity:1"
       d="m 144.25267,63.184614 c -0.69585,-2.40796 -3.73498,-3.6658 -4.43446,-6.0727 -0.41883,-1.44118 0.23497,-2.99319 0.29281,-4.49288 0.0547,-1.41972 -0.59597,-2.99722 0.0513,-4.26201 0.64049,-1.25161 3.39109,-2.50824 3.39109,-2.50824 v 0 c 0,0 0.97508,-2.7088 0.88033,-4.10504 -0.13621,-2.00719 -0.30511,-4.67685 -2.05116,-5.67618 -0.81077,-0.46402 -1.85777,0.77389 -2.75499,0.5138 -2.52913,-0.73313 -3.18956,-5.80801 -5.78729,-5.37704 -1.49069,0.24731 -1.3073,2.73622 -2.14671,3.99268 -0.83883,1.25558 -1.7948,2.44368 -2.86477,3.50917 -1.22627,1.22111 -3.66247,1.57638 -4.03549,3.26626 -0.35338,1.60083 1.24138,3.06152 2.16502,4.41593 0.35874,0.52606 1.25452,0.77334 1.28971,1.40911 0.10352,1.87037 -3.36728,2.66642 -3.31354,4.53887 0.0415,1.44541 1.90431,2.18163 2.75458,3.35124 0.66021,0.90816 1.29821,1.84068 1.81543,2.83725 0.48555,0.93556 0.82565,1.94039 1.1971,2.92684 0.49608,1.31745 0.75563,2.72919 1.37653,3.99263 0.77182,1.5705 1.52344,3.286 2.8838,4.38677 0.94011,0.76071 2.18685,1.50965 3.38067,1.31656 1.00647,-0.1628 1.60945,-1.25633 2.35496,-1.95181 1.19664,-1.11635 3.38752,-3.55367 3.38752,-3.55367 v 0 c 0,0 0.39556,-1.66874 0.16761,-2.45754 z"
       id="path1293"
       sodipodi:nodetypes="ssssssssssssssssssssssssss"
       inkscape:export-filename="/mnt/Work/Research/Projects/Genome/texts/2025_Ocm/Figures/21_7.png"
       inkscape:export-xdpi="150"
       inkscape:export-ydpi="150" />
    <path
       style="fill:#000000;fill-opacity:1;stroke:none;stroke-width:0.102995;stroke-linecap:butt;stroke-linejoin:miter;stroke-miterlimit:4;stroke-dasharray:none;stroke-opacity:1"
       d="m 209.5346,67.097434 c 0.0133,-1.49384 -0.96097,-2.85932 -1.75945,-4.12204 -0.897,-1.41935 -3.07129,-2.11548 -3.33746,-3.77347 -0.16843,-1.06095 1.19505,-1.88979 1.27245,-2.96141 0.11692,-1.6162 -1.37903,-3.07995 -1.25776,-4.69578 0.083,-1.09927 0.86084,-2.03013 1.32381,-3.03056 0.6039,-1.30461 1.44145,-2.50978 1.895,-3.87385 0.65011,-1.95586 2.31051,-4.37227 1.14992,-6.07561 -0.59244,-0.87013 -2.34556,0.14222 -3.10323,-0.58885 -0.50383,-0.48653 0.003,-1.52888 -0.46479,-2.04976 -0.75129,-0.83449 -2.15104,-0.65583 -3.18758,-1.08698 -0.87431,-0.3639 -1.60077,-1.2135 -2.5469,-1.26112 -2.22549,-0.11204 -6.25841,2.34968 -6.25841,2.34968 v 0 c 0,0 -1.47934,2.18614 -2.08331,3.35621 -0.43757,0.84698 -0.58816,1.83708 -1.10663,2.63642 -0.79179,1.21913 -2.65786,1.76187 -2.98592,3.17791 -0.42479,1.83551 1.83629,3.52526 1.66517,5.40163 -0.12659,1.38736 -2.29675,2.36032 -1.93346,3.70524 0.0121,0.0425 0.0745,0.0517 0.11211,0.0704 0.87135,0.4063 2.24408,0.0609 2.74792,0.88024 0.78005,1.26882 -0.75186,2.92412 -0.70351,4.41287 0.0509,1.52489 0.22486,3.15763 1.01276,4.46388 1.0794,1.78808 3.38098,2.50586 4.76151,4.07322 0.82868,0.94056 1.12673,2.31104 2.06403,3.14288 0.67344,0.59781 1.56048,0.93162 2.419,1.20397 0.6953,0.22071 1.44509,0.20582 2.16369,0.33268 1.13526,0.20043 2.31967,1.10115 3.39142,0.6767 1.1401,-0.45153 1.28134,-2.1159 2.1366,-2.99469 0.4862,-0.49937 1.23407,-0.71484 1.66819,-1.25993 0.47966,-0.60283 0.93815,-1.33928 0.94493,-2.10986 z"
       id="path6425"
       sodipodi:nodetypes="sssssssssssssssssssssssssssssss"
       inkscape:export-filename="/mnt/Work/Research/Projects/Genome/texts/2025_Ocm/Figures/21_9.png"
       inkscape:export-xdpi="150"
       inkscape:export-ydpi="150" />
    <path
       style="fill:#000000;fill-opacity:1;stroke:none;stroke-width:0.100571;stroke-linecap:butt;stroke-linejoin:miter;stroke-miterlimit:4;stroke-dasharray:none;stroke-opacity:1"
       d="m 245.98201,69.740024 c 0.21319,-1.51632 -1.04494,-2.88145 -1.46371,-4.35433 -0.54979,-1.93368 -1.25439,-3.86573 -1.37341,-5.87254 -0.11687,-1.97056 0.27707,-3.94843 0.65751,-5.88545 0.25852,-1.31628 0.6787,-2.59744 1.09903,-3.87131 0.3633,-1.10101 1.06715,-2.10602 1.22796,-3.25421 0.18951,-1.35324 -0.35915,-2.71909 -0.33794,-4.08537 0.0123,-0.7938 0.35768,-1.57731 0.26991,-2.36636 -0.18487,-1.66192 -0.23619,-3.84442 -1.64996,-4.73743 -1.02054,-0.64461 -2.41861,0.14487 -3.59977,0.39375 -1.22845,0.25874 -2.83686,0.13196 -3.59097,1.13546 -0.64335,0.85628 -0.0678,2.14117 -0.0777,3.21214 -0.01,1.03007 0.75448,2.37076 0.0173,3.09033 -0.713,0.696 -2.31189,-0.82087 -2.98787,-0.0889 -0.6534,0.70757 0.78413,2.03089 0.31512,2.8721 -0.0139,0.0251 -0.0536,0.022 -0.0779,0.0371 -0.57201,0.35245 -1.13271,0.74581 -1.59215,1.23604 -0.88577,0.9452 -1.95518,1.94182 -2.17904,3.21771 -0.19376,1.10424 0.65118,2.15299 0.82516,3.26051 0.13469,0.85752 0.63025,1.86543 0.16589,2.59884 -0.41973,0.66292 -1.59858,0.35072 -2.18758,0.86912 -0.65357,0.57524 -1.23217,1.41522 -1.26487,2.28527 -0.0312,0.82848 0.44094,1.68484 1.03768,2.26037 0.60736,0.5858 2.33728,0.97232 2.33728,0.97232 v 0 c 0,0 -0.39871,1.29428 -0.53445,1.95662 -0.10514,0.51307 -0.55512,1.15758 -0.21557,1.55629 0.57254,0.67231 1.96424,-0.49908 2.64853,0.0591 0.51192,0.41758 0.32475,1.28187 0.44149,1.93211 0.0791,0.4408 -0.13105,1.00516 0.17503,1.3321 0.28958,0.30931 1.09177,-0.14629 1.24664,0.24819 0.28059,0.71463 -1.6126,1.14526 -1.34944,1.86647 0.42192,1.1564 2.7741,-0.0323 3.58249,0.89604 0.4687,0.53822 -0.30851,1.65942 0.22909,2.12885 0.90084,0.78659 2.46538,0.31627 3.58635,-0.10107 1.20535,-0.44808 2.11836,-1.4922 2.99049,-2.43721 0.64894,-0.70319 1.49623,-1.41572 1.62944,-2.36327 z"
       id="path7121"
       sodipodi:nodetypes="aaaaaaaaaaaaaaaaaaaaaaaaaaaaaaaaaaaaa"
       inkscape:export-filename="/mnt/Work/Research/Projects/Genome/texts/2025_Ocm/Figures/21_10.png"
       inkscape:export-xdpi="150"
       inkscape:export-ydpi="150" />
    <path
       style="fill:#000000;fill-opacity:1;stroke:none;stroke-width:0.199126px;stroke-linecap:butt;stroke-linejoin:miter;stroke-opacity:1"
       d="m -41.238274,128.2196 c 0.85979,-1.46997 0.9036,-3.28598 1.45231,-4.8981 0.0269,-0.0783 0.0902,-0.14918 0.0894,-0.23205 -0.0203,-2.00479 -1.38673,-3.77057 -2.27612,-5.56739 -0.64987,-1.313 -1.78903,-2.39131 -2.22611,-3.78961 -0.30177,-0.9654 0.003,-2.04096 -0.22672,-3.02594 -0.16552,-0.70913 -0.74399,-1.30114 -0.81837,-2.02552 -0.0945,-0.91639 0.4011,-1.80279 0.4929,-2.71945 0.0506,-0.5044 0.18113,-1.03636 0.0308,-1.52055 -0.0784,-0.25251 -0.51804,-0.38609 -0.46226,-0.64455 0.14618,-0.67699 1.35553,-0.50718 1.79953,-1.03875 0.56695,-0.67879 0.48428,-1.71465 0.89594,-2.49745 0.3556,-0.676206 0.91582,-1.224126 1.33887,-1.860346 0.48615,-0.73106 1.26066,-1.37537 1.37635,-2.24567 0.14673,-1.10387 -0.25027,-2.332 -0.94104,-3.20545 -0.80174,-1.01379 -2.13428,-1.53689 -3.36861,-1.92019 -0.82463,-0.25607 -1.72261,-0.30865 -2.58124,-0.21755 -1.0375,0.1097 -2.0541,0.45908 -2.99419,0.91144 -0.77005,0.37052 -1.52929,0.82721 -2.11377,1.45063 -0.58952,0.62883 -1.05589,1.40232 -1.32274,2.22191 -0.39335,1.20807 0.30915,2.71069 -0.35233,3.79525 -0.69729,1.142826 -2.52432,1.135146 -3.38635,2.159436 -0.31592,0.37541 -0.30444,0.94406 -0.56784,1.35801 -0.44147,0.69369 -1.34107,1.06745 -1.65874,1.8259 -0.43463,1.03767 -0.42283,2.26951 -0.18834,3.36982 0.22741,1.06715 1.3876,1.8244 1.49918,2.90978 0.0811,0.78008 -0.38327,1.52239 -0.62945,2.26702 -0.35569,1.07559 -1.10117,2.04485 -1.22225,3.17124 -0.11376,1.06149 0.57923,2.10109 0.49003,3.16499 -0.0975,1.16466 -0.61793,2.26508 -1.10485,3.32754 -0.40593,0.8858 -1.35632,1.54519 -1.5,2.50892 -0.0747,0.50039 0.0304,1.09383 0.36497,1.47322 0.71289,0.80811 1.94122,1.0923 3.01651,1.16264 1.00577,0.0657 1.99428,-0.35941 2.93899,-0.71061 0.96303,-0.35802 1.7689,-1.07773 2.7416,-1.40855 0.78962,-0.26856 1.68858,-0.7647 2.46121,-0.45061 0.70636,0.28718 1.0846,1.14134 1.32434,1.8652 0.25129,0.75863 -0.40613,1.74309 0.0534,2.39694 0.63156,0.89861 1.97723,1.1382 3.07456,1.18498 0.98002,0.0417 1.98551,-0.31472 2.82599,-0.82079 0.68675,-0.41316 1.26957,-1.03392 1.67421,-1.72572 z"
       id="path4533"
       sodipodi:nodetypes="sssssssssssssssssssssssssssssssssssssssss"
       inkscape:export-filename="/mnt/Work/Research/Projects/Genome/texts/2025_Ocm/Figures/21_11.png"
       inkscape:export-xdpi="150"
       inkscape:export-ydpi="150" />
    <path
       style="fill:#000000;fill-opacity:1;stroke:none;stroke-width:0.190103px;stroke-linecap:butt;stroke-linejoin:miter;stroke-opacity:1"
       d="m -6.8686037,98.029274 c -0.70752,1.74942 -2.39789,3.033066 -2.93146,4.843146 -0.7023903,2.38259 -0.7794403,5.02943 -0.2164703,7.44879 0.4795703,2.06104 2.1210303,3.67266 2.9667403,5.61241 0.53891,1.23608 1.29842,2.47115 1.33386,3.81913 0.0538,2.04348 -0.56539,4.19753 -1.71491,5.8879 -0.65319,0.96056 -1.66484,1.73056 -2.7533503,2.13612 -1.35193,0.50371 -4.32197,0.2313 -4.32197,0.2313 v 0 c 0,0 -0.0469,-2.04368 -0.67217,-2.75089 -0.58708,-0.66407 -1.60841,-1.06579 -2.48624,-0.94311 -1.28424,0.17949 -1.95645,1.75089 -3.11964,2.32405 -1.43349,0.70634 -3.05393,1.65188 -4.61356,1.3036 -1.37216,-0.30641 -2.87152,-1.39413 -3.18543,-2.76455 -0.47236,-2.06235 1.61988,-3.91031 2.50499,-5.83203 0.49135,-1.06682 1.27849,-2.02001 1.5565,-3.16114 0.18118,-0.74326 -0.17297,-1.56182 0.0469,-2.29456 0.37639,-1.25447 1.68981,-2.07838 2.09561,-3.32364 0.37216,-1.14199 0.48663,-2.41901 0.24294,-3.59515 -0.25988,-1.25444 -1.61006,-2.1438 -1.76124,-3.41591 -0.16393,-1.37946 0.80257,-2.67188 0.98851,-4.048516 0.25668,-1.89934 -0.24506,-3.87561 0.167,-5.7474 0.33175,-1.50682 0.69431,-3.20144 1.821,-4.25549 1.02811,-0.96173 2.5825,-1.27634 3.98495,-1.39917 2.48723,-0.21785 7.3911103,1.21511 7.3911103,1.21511 v 0 c 0,0 1.44375,1.03313 1.98224,1.72357 0.71499,0.9168 1.43624,1.95639 1.57848,3.1103 0.16213,1.3153 -0.38762,2.64755 -0.88448,3.87613 z"
       id="path8021"
       sodipodi:nodetypes="ssssssssassssssssssssssssssss"
       inkscape:export-filename="/mnt/Work/Research/Projects/Genome/texts/2025_Ocm/Figures/21_12.png"
       inkscape:export-xdpi="150"
       inkscape:export-ydpi="150" />
    <path
       style="fill:#000000;fill-opacity:1;stroke:none;stroke-width:0.0463519px;stroke-linecap:butt;stroke-linejoin:miter;stroke-opacity:1"
       d="m 34.921716,90.928894 c 0.34578,0.95845 -0.33306,3.03856 -0.33306,3.03856 v 0 c 0,0 -0.77831,2.21093 -1.22896,3.29211 -0.41663,0.99958 -1.12057,1.89388 -1.36182,2.949596 -0.24665,1.07934 -0.11006,2.2152 -0.0557,3.32106 0.0673,1.3702 0.21391,2.74106 0.47213,4.08838 0.26104,1.36203 0.66088,2.69609 1.08461,4.01659 0.38658,1.20465 1.07132,2.31682 1.3274,3.55577 0.26926,1.30271 0.37946,2.66745 0.20092,3.98565 -0.24299,1.79397 -0.4905,3.81484 -1.70654,5.15598 -0.75475,0.8324 -1.97792,1.15521 -3.08152,1.36649 -0.84721,0.16219 -1.88431,0.40078 -2.58581,-0.10116 -1.26742,-0.90688 -0.27937,-3.68112 -1.68085,-4.36277 -1.6997,-0.82667 -3.74794,0.78346 -5.42086,1.66308 -1.45357,0.7643 -2.23218,2.8459 -3.86026,3.06135 -1.09613,0.14502 -2.68316,-0.26961 -3.04561,-1.31419 -0.47299,-1.3632 1.69517,-2.41167 2.05812,-3.80819 0.29498,-1.135 -0.30301,-2.39822 0.046,-3.51779 0.3286,-1.05429 1.91138,-1.6482 1.84657,-2.7506 -0.0918,-1.56151 -2.73305,-2.0319 -3.05398,-3.56282 -0.11054,-0.52729 0.14609,-1.11614 0.47049,-1.54628 0.66492,-0.88165 2.50251,-0.73016 2.7822,-1.79842 0.37074,-1.41606 -2.04654,-3.88529 -2.04654,-3.88529 v 0 c 0,0 0.86012,-1.45989 1.2705,-2.20094 0.50757,-0.91655 0.85742,-1.928896 1.47357,-2.776286 0.78385,-1.07802 2.83626,-1.54047 2.78194,-2.87224 -1.5e-4,-0.005 -0.008,-0.006 -0.0107,-0.009 -0.46106,-0.80233 -0.63503,-1.80558 -0.5302,-2.72499 0.22395,-1.96419 1.12276,-3.92031 2.4141,-5.4172 0.58212,-0.67477 1.39318,-1.21161 2.256,-1.43459 0.87308,-0.22561 1.80272,0.25042 2.70032,0.1639 0.64254,-0.062 1.25389,-0.66033 1.87497,-0.48442 0.80229,0.22724 1.14545,1.21236 1.73413,1.80294 1.05086,1.05425 2.70335,1.70583 3.20848,3.10605 z"
       id="path10551"
       sodipodi:nodetypes="ssssssssssssssssssssssssssssssssssss"
       inkscape:export-filename="/mnt/Work/Research/Projects/Genome/texts/2025_Ocm/Figures/21_13.png"
       inkscape:export-xdpi="150"
       inkscape:export-ydpi="150" />
    <path
       style="fill:#000000;fill-opacity:1;stroke:none;stroke-width:0.108242;stroke-linecap:butt;stroke-linejoin:miter;stroke-miterlimit:4;stroke-dasharray:none;stroke-opacity:1"
       d="m 65.891866,128.3037 c 1.2015,-2.15935 1.12487,-4.8688 1.04898,-7.33874 -0.1386,-4.50961 -2.73439,-13.25613 -2.73439,-13.25613 v 0 l 2.63018,-14.058486 0.0801,-0.42812 v 0 c 0,0 -0.0943,-0.10218 -0.2614,-0.27234 -0.8054,-0.82026 -3.30191,-3.22054 -5.08106,-3.3763 -1.87031,-0.16373 -5.13238,2.32002 -5.13238,2.32002 v 0 l -4.02828,5.90333 v 0 c 0,0 0.9514,4.069456 0.0169,5.738486 -0.72583,1.29637 -3.41014,0.88662 -3.80676,2.31844 -0.38444,1.38781 2.00085,2.38536 2.00761,3.82542 0.0133,2.84533 -4.44645,4.80386 -3.89553,7.59539 0.35033,1.77513 3.61531,1.79098 4.12641,3.52667 0.79765,2.70883 -3.80565,5.64989 -2.42942,8.11564 0.34391,0.61617 1.34797,0.65898 2.04483,0.54792 2.42726,-0.38688 3.71834,-4.03867 6.17619,-4.0281 1.74886,0.008 2.80405,2.12464 4.36977,2.90381 1.07555,0.53524 2.21945,1.40695 3.40139,1.19172 0.62748,-0.11427 1.15669,-0.67137 1.46685,-1.22863 z"
       id="path11822"
       sodipodi:nodetypes="sssscscssssssssssssssssss"
       inkscape:export-filename="/mnt/Work/Research/Projects/Genome/texts/2025_Ocm/Figures/21_14.png"
       inkscape:export-xdpi="150"
       inkscape:export-ydpi="150" />
    <path
       style="fill:#000000;fill-opacity:1;stroke:none;stroke-width:0.108512;stroke-linecap:butt;stroke-linejoin:miter;stroke-miterlimit:4;stroke-dasharray:none;stroke-opacity:1"
       d="m 98.758396,117.1218 c -0.47849,-1.22866 -1.25406,-2.32211 -1.80024,-3.52219 -0.51494,-1.13141 -1.38918,-3.46084 -1.38918,-3.46084 v 0 c 0,0 1.03151,-1.40423 1.11239,-2.23138 0.0452,-0.46118 -0.43205,-0.88187 -0.36742,-1.34072 0.1577,-1.11969 1.27988,-1.87549 1.76527,-2.89673 0.73061,-1.5371 1.42089,-3.13492 1.70312,-4.813236 0.231634,-1.37751 0.12305,-2.80189 -0.0288,-4.19047 -0.15812,-1.44574 -0.14945,-3.02902 -0.91387,-4.26632 -0.66845,-1.08198 -1.76288,-2.01115 -2.97872,-2.38427 -1.00941,-0.3098 -2.22609,-0.24566 -3.15764,0.25138 -0.9453,0.50442 -1.3176,1.69026 -1.99583,2.51973 -0.3628,0.44365 -0.67071,0.9445 -1.10886,1.31392 -0.59566,0.5022 -1.27466,0.94215 -2.01531,1.18387 -1.141174,0.37248 -2.7179,-0.47313 -3.583373,0.35876 -0.543961,0.52282 0.07173,1.59338 -0.31449,2.2415 -0.517941,0.86903 -1.955588,0.91438 -2.443015,1.80089 -0.633658,1.1525 -0.175996,2.624536 -0.275339,3.935976 -0.113167,1.49417 -0.555551,2.99416 -0.365328,4.48049 0.177168,1.38436 0.791109,2.68773 1.380266,3.95293 0.857877,1.84225 3.163655,3.21113 3.111787,5.24268 -0.03212,1.25988 -2.300983,1.90552 -2.093182,3.14858 0.191807,1.14739 2.229506,1.09095 2.772349,2.11984 0.490704,0.93006 -0.255731,2.18747 0.167088,3.15028 0.432103,0.98393 1.479827,1.55974 2.254897,2.30417 0.54341,0.52192 0.9736,1.24689 1.67794,1.5145 1.19509,0.45407 2.60799,0.32734 3.8352,-0.0308 0.93024,-0.27152 1.70751,-0.93748 2.46312,-1.5442 0.83929,-0.67389 1.62107,-1.43875 2.26567,-2.30074 0.54771,-0.73242 1.19037,-1.49555 1.33099,-2.39926 0.0929,-0.59557 -0.21557,-1.18668 -0.3552,-1.77305 -0.18952,-0.79577 -0.35754,-1.60294 -0.65423,-2.36526 z"
       id="path17126"
       sodipodi:nodetypes="sssssssssssssssssssssssssssssssss"
       inkscape:export-filename="/mnt/Work/Research/Projects/Genome/texts/2025_Ocm/Figures/21_15.png"
       inkscape:export-xdpi="150"
       inkscape:export-ydpi="150" />
    <path
       style="fill:#000000;fill-opacity:1;stroke:none;stroke-width:0.163781px;stroke-linecap:butt;stroke-linejoin:miter;stroke-opacity:1"
       d="m 132.27389,123.48949 c 0.76665,-0.9129 0.81812,-2.32555 0.68466,-3.51017 -0.16722,-1.48426 -1.26417,-2.70856 -1.81485,-4.097 -0.46293,-1.16721 -0.90296,-2.34681 -1.24975,-3.55362 -0.49096,-1.7084 0.53594,-4.7078 -1.17142,-5.20239 -0.005,-0.001 -0.007,0.0135 -0.0115,0.0103 -3.0088,-1.70455 3.44346,-6.73036 2.52122,-10.063196 -0.005,-0.0147 -0.0309,-0.0174 -0.0326,-0.0325 -0.11846,-1.14028 2.00199,-1.73996 1.88005,-2.87986 -0.17819,-1.66573 -2.18685,-2.59464 -3.57534,-3.53193 -1.40665,-0.94954 -2.999,-1.74189 -4.67299,-2.02133 -1.61627,-0.26979 -3.39764,-0.27118 -4.90118,0.38037 -0.52228,0.22632 -0.93073,0.68805 -1.26062,1.15194 -0.55295,0.77758 -1.13019,2.62989 -1.13019,2.62989 v 0 c 0,0 -0.54176,1.66513 -0.38037,2.48864 0.14124,0.7206 1.4145,1.21388 1.1302,1.89093 -0.55545,1.32288 -3.26479,-0.091 -4.18394,1.01067 -0.57182,0.68537 0.0605,1.80648 -0.15215,2.673376 -0.16565,0.67553 -0.85853,1.90179 -0.85853,1.90179 v 0 l 0.85853,3.61884 v 0 c 0,0 -0.90163,1.95418 -0.8042,2.97766 0.0612,0.6419 0.76126,1.0998 0.84767,1.73878 0.15063,1.11384 -0.95197,2.24088 -0.61946,3.31456 0.23791,0.7683 1.13746,1.13745 1.70618,1.70617 0.82955,0.82954 1.96905,1.43683 2.48864,2.48863 0.37713,0.76341 -0.12526,1.81697 0.33689,2.5321 0.4883,0.75562 1.70564,0.74216 2.29302,1.42362 0.6981,0.80995 0.40531,2.31812 1.27148,2.94508 0.65408,0.47343 2.41256,0.21734 2.41256,0.21734 v 0 c 0,0 0.42639,2.61792 1.45123,2.73197 1.48585,0.16533 1.70102,-2.54062 2.92332,-3.40149 1.17131,-0.82496 3.09144,-0.44251 4.01277,-1.53963 z"
       id="path18305"
       sodipodi:nodetypes="ssssssssssssssssssssssssssssssssssss"
       inkscape:export-filename="/mnt/Work/Research/Projects/Genome/texts/2025_Ocm/Figures/21_16.png"
       inkscape:export-xdpi="150"
       inkscape:export-ydpi="150" />
    <path
       style="fill:#000000;fill-opacity:1;stroke:none;stroke-width:0.185941px;stroke-linecap:butt;stroke-linejoin:miter;stroke-opacity:1"
       d="m 162.35927,88.898114 c 1.31249,0.4012 2.71757,0.85192 3.69604,1.8143 0.73267,0.72061 1.40422,2.7446 1.40422,2.7446 v 0 c 0,0 -0.64213,3.80576 -1.07918,5.68415 -0.5942,2.553726 -1.67476,4.993666 -2.0949,7.581736 -0.19176,1.18116 -0.34515,2.39875 -0.18759,3.58497 0.15439,1.16255 0.87369,2.1919 1.09461,3.34367 0.31046,1.61871 1.55368,3.85392 0.30954,4.93492 -0.0366,0.0318 -0.12026,-0.0724 -0.14249,-0.0294 -0.453,0.87794 1.87249,1.07759 2.16868,2.02005 0.33286,1.0592 -0.14121,2.2972 -0.70048,3.25631 -0.42062,0.7213 -1.43123,0.95528 -1.87186,1.66453 -0.35409,0.56995 -0.0748,1.45081 -0.53275,1.94117 -0.7288,0.7803 -1.95695,1.01745 -3.02395,1.05639 -0.88349,0.0322 -1.76823,-0.29849 -2.56097,-0.6899 -0.78752,-0.38881 -1.61759,-0.86335 -2.09105,-1.60311 -0.57087,-0.89195 -0.14622,-2.19606 -0.69939,-3.09906 -0.88172,-1.43915 -2.8522,-1.90844 -3.89412,-3.23622 -1.00105,-1.27568 -1.92778,-2.76455 -2.13035,-4.3734 -0.0199,-0.15877 0.0596,-0.31453 0.0967,-0.4702 0.18802,-0.79407 0.68833,-1.55014 0.63464,-2.36441 -0.0614,-0.92995 -0.98411,-1.65413 -1.07302,-2.58185 -0.13544,-1.41423 0.56602,-2.78446 0.85832,-4.17476 0.22941,-1.09141 0.73101,-2.15636 0.70228,-3.27124 -0.0261,-1.02534 -1.08844,-1.98697 -0.79994,-2.971226 0.29382,-1.00233 1.48053,-1.48466 2.31926,-2.10716 0.89286,-0.66267 2.44578,-0.68236 2.86204,-1.71341 0.26626,-0.65953 -0.2373,-1.42433 -0.55663,-2.05987 -0.32753,-0.65182 -1.41984,-0.99243 -1.3544,-1.71897 0.12025,-1.33479 1.84423,-2.00606 3.01263,-2.66258 0.86837,-0.48794 1.86193,-0.80215 2.8547,-0.88329 0.93216,-0.0762 1.88508,0.10977 2.77951,0.38316 z"
       id="path19403"
       sodipodi:nodetypes="sssssssssssssssssssssssssssssssss"
       inkscape:export-filename="/mnt/Work/Research/Projects/Genome/texts/2025_Ocm/Figures/21_17.png"
       inkscape:export-xdpi="150"
       inkscape:export-ydpi="150" />
    <path
       style="fill:#000000;fill-opacity:1;stroke:none;stroke-width:0.354691px;stroke-linecap:butt;stroke-linejoin:miter;stroke-opacity:1"
       d="m 202.20162,97.374434 c -0.0116,2.20391 -1.83562,4.009456 -2.85297,5.964516 -0.64035,1.2305 -1.94277,2.24134 -2.0442,3.62478 -0.16228,2.21404 1.58792,4.14632 2.39063,6.21606 0.88232,2.27513 2.6661,6.8179 2.6661,6.8179 v 0 c 0,0 -0.39554,3.28526 -0.95321,4.82795 -0.48476,1.34089 -0.973,2.81765 -2.04637,3.7562 -0.82449,0.72083 -1.97426,1.13623 -3.06901,1.17279 -1.04621,0.0357 -2.12395,-0.35137 -3.00245,-0.92061 -0.52033,-0.33726 -0.77959,-0.96841 -1.22436,-1.40045 -0.8455,-0.82129 -1.55401,-2.15149 -2.72868,-2.24918 -0.76338,-0.0635 -1.23054,1.24334 -1.99039,1.14864 -1.06867,-0.13351 -1.76265,-1.32924 -2.31506,-2.25376 -1.40971,-2.35914 -2.94543,-5.26407 -2.26624,-7.92713 0.51803,-1.335 1.33101,-2.2851 1.08959,-3.4747 -0.0996,-0.4906 -0.43238,-0.18052 -0.97244,-1.14445 -0.83174,-1.48498 0.18546,-3.39954 0.2298,-5.10101 0.0236,-0.90516 -0.20214,-1.83834 0.0192,-2.71637 0.57625,-2.28605 2.16269,-4.190846 3.3085,-6.251316 0.47079,-0.84667 0.87405,-1.74235 1.46526,-2.50988 1.28085,-1.6648 2.55505,-3.55181 4.44668,-4.46503 1.38713,-0.66974 3.11932,-0.96843 4.59201,-0.51698 1.09689,0.3362 1.88335,1.3535 2.61682,2.23566 0.51377,0.61791 0.83397,1.37517 1.20494,2.08799 0.52295,1.0046 1.44172,1.9467 1.4362,3.07923 z"
       id="path20503"
       sodipodi:nodetypes="sssssssssssssscssssssssssss"
       inkscape:export-filename="/mnt/Work/Research/Projects/Genome/texts/2025_Ocm/Figures/21_18.png"
       inkscape:export-xdpi="150"
       inkscape:export-ydpi="150" />
    <path
       style="fill:#000000;fill-opacity:1;stroke:none;stroke-width:0.152993px;stroke-linecap:butt;stroke-linejoin:miter;stroke-opacity:1"
       d="m -73.053054,177.7137 c -0.78921,-0.5231 -1.51747,-1.34729 -1.69867,-2.27663 -0.21675,-1.1116 0.50421,-2.21175 0.85992,-3.28697 0.35126,-1.06185 1.07388,-2.0083 1.25412,-3.11211 0.16785,-1.02792 -0.45858,-2.09595 -0.0614,-3.02185 0.35798,-0.83453 1.58119,-0.85017 2.01167,-1.83696 0.32927,-0.87863 -0.25184,-1.86325 -0.47651,-2.77426 -0.14935,-0.6056 -0.48776,-1.1627 -0.57702,-1.78001 -0.0865,-0.59864 0.0182,-1.20982 0.0477,-1.81397 0.0447,-0.91934 0.19595,-2.75432 0.19595,-2.75432 v 0 c 0,0 0.76945,-1.42385 1.3903,-1.9069 0.46104,-0.35869 1.23047,-0.22306 1.62635,-0.65258 0.58058,-0.62991 0.62615,-1.60892 0.75978,-2.4551 0.10182,-0.64478 -0.19594,-1.34417 0.0257,-1.95818 0.2424,-0.67162 1.0143,-1.034 1.34629,-1.66616 0.28691,-0.54628 0.27247,-1.21212 0.52504,-1.77509 0.24103,-0.53728 0.46666,-1.13996 0.93213,-1.50062 0.61179,-0.47403 1.44548,-0.61829 2.21573,-0.69377 0.56173,-0.055 1.17838,-0.0694 1.68338,0.1827 0.46859,0.2339 0.81989,0.68867 1.07436,1.14643 0.12524,0.22528 -0.0231,0.61803 0.20013,0.7469 0.47434,0.27386 1.16703,-0.77668 1.58719,-0.42528 0.59545,0.498 -0.42309,1.57843 -0.19543,2.32055 0.22912,0.74696 0.90612,1.2855 1.47262,1.82357 0.47612,0.45223 1.15457,0.66948 1.59427,1.1572 0.59569,0.6608 1.21519,1.42902 1.33621,2.31042 0.18446,1.3435 -0.67142,2.62778 -1.01224,3.94036 -0.27628,1.06407 -0.83713,3.19007 -0.83713,3.19007 v 0 c 0,0 -1.23983,1.31022 -1.42531,2.14977 -0.24011,1.08686 0.10903,2.25963 0.50102,3.30139 0.52159,1.38619 1.83755,2.37043 2.39457,3.74275 0.5746,1.41559 0.93855,2.96246 0.91961,4.49009 -0.0162,1.30404 -0.42655,2.58936 -0.87982,3.81217 -0.42396,1.14382 -0.8425,2.37315 -1.70002,3.24073 -0.45781,0.46315 -1.21429,0.51664 -1.71941,0.92769 -0.58928,0.47952 -0.76645,1.45083 -1.46731,1.74407 -0.8304,0.34744 -1.84225,0.0841 -2.69207,-0.21261 -1.13553,-0.39654 -2.12838,-1.17975 -2.99205,-2.01686 -0.59797,-0.57957 -0.7987,-1.52136 -1.46041,-2.02697 -0.80752,-0.61699 -1.84491,-1.18149 -2.85498,-1.06956 -0.76963,0.0852 -1.18089,1.14111 -1.94418,1.27143 -0.66316,0.11324 -1.39922,-0.10983 -1.95997,-0.48154 z"
       id="path23865"
       sodipodi:nodetypes="ssssscssssssssssssssssssssssssssssssssssssss"
       inkscape:export-filename="/mnt/Work/Research/Projects/Genome/texts/2025_Ocm/Figures/21_19.png"
       inkscape:export-xdpi="150"
       inkscape:export-ydpi="150" />
    <path
       style="fill:#000000;fill-opacity:1;stroke:none;stroke-width:0.0550134px;stroke-linecap:butt;stroke-linejoin:miter;stroke-opacity:1"
       d="m -16.193434,177.58798 c -0.0563,0.56738 -0.22357,1.15909 -0.56798,1.61347 -0.43319,0.57146 -1.22919,0.7547 -1.76076,1.236 -0.97613,0.88374 -1.4419,2.32797 -2.57867,2.99256 -0.62131,0.36322 -1.86114,-0.24714 -2.1167,0.42569 -0.007,0.0193 0.0396,0.0289 0.037,0.0489 -0.0719,0.54409 -0.76709,0.87764 -1.29945,1.01109 -0.88742,0.22242 -1.87772,-0.0738 -2.70504,-0.46435 -0.82586,-0.38993 -1.362,-1.21839 -2.07395,-1.79036 -0.46878,-0.37667 -1.23161,-0.51751 -1.44538,-1.07957 -0.21146,-0.55599 0.65623,-1.23296 0.35874,-1.74805 -0.32836,-0.56856 -1.26366,-0.36745 -1.86918,-0.62134 -0.83793,-0.35131 -1.51782,-1.24719 -2.4264,-1.24199 -0.79423,0.004 -1.3146,1.0858 -2.10849,1.10986 -0.93974,0.0287 -1.85638,-0.54915 -2.57081,-1.16038 -0.69864,-0.59763 -1.442,-1.39104 -1.51027,-2.30792 -0.086,-1.15476 1.11619,-2.04796 1.45069,-3.15656 0.41326,-1.36974 1.03077,-2.85766 0.66377,-4.24046 -0.22699,-0.85534 -1.68854,-1.18977 -1.65704,-2.07412 0.0164,-0.46156 0.86714,-0.5621 0.93966,-1.01824 0.0602,-0.37679 -0.61704,-0.68549 -0.47715,-1.04047 0.42062,-1.0674 2.75316,-0.24538 3.18325,-1.30876 0.20517,-0.5074 -0.30698,-1.08437 -0.65783,-1.50441 -0.72233,-0.86474 -3.07234,-0.78921 -2.80644,-1.88414 0.2422,-0.99712 3.05818,-0.35241 3.05818,-0.35241 v 0 c 0,0 -1.0881,-1.77295 -1.30516,-2.77048 -0.2036,-0.93566 -0.48227,-2.06584 0.0337,-2.87249 0.68223,-1.06659 2.1995,-1.33225 3.42937,-1.63294 0.81115,-0.19837 1.8621,0.44643 2.50357,-0.0889 0.54665,-0.45552 0.12788,-1.45482 0.45854,-2.08491 0.30726,-0.58544 1.08852,-0.84482 1.35227,-1.4511 0.30002,-0.68964 -0.28747,-1.64539 0.15896,-2.25066 0.4852,-0.65781 1.46883,-0.90726 2.286,-0.88741 2.09915,0.051 3.95649,1.47783 5.75494,2.56164 2.22212,1.33908 4.82695,2.55928 6.12039,4.80826 0.61029,1.06119 0.79119,2.44594 0.50869,3.63706 -0.30364,1.28024 -1.58629,2.10777 -2.24408,3.2473 -0.69323,1.20092 -1.4082,2.42387 -1.78071,3.75955 -0.12458,0.44656 -0.23863,0.93049 -0.14103,1.38374 0.15012,0.69772 0.62275,1.29929 1.07406,1.85215 0.44898,0.54999 1.42692,0.72508 1.5913,1.41578 0.19108,0.80281 -1.02698,1.4855 -0.91006,2.30241 0.12073,0.84335 1.31837,1.20347 1.56843,2.01786 0.14914,0.48578 -0.11825,1.01347 -0.0989,1.52125 0.0523,1.37504 0.71569,2.71782 0.58003,4.08715 z"
       id="path25540"
       sodipodi:nodetypes="ssssssssssssssssssssssssssssssssssssssssssssss"
       inkscape:export-filename="/mnt/Work/Research/Projects/Genome/texts/2025_Ocm/Figures/23_1.png"
       inkscape:export-xdpi="150"
       inkscape:export-ydpi="150" />
    <path
       style="fill:#000000;fill-opacity:1;stroke:none;stroke-width:0.788372px;stroke-linecap:butt;stroke-linejoin:miter;stroke-opacity:1"
       d="m 89.674106,235.60277 c -1.08369,0.28679 -2.18958,0.48538 -3.272176,0.77626 -1.22767,0.32985 -2.49187,0.57868 -3.65217,1.09799 -1.21227,0.54258 -2.23539,1.43858 -3.39766,2.08133 -0.51961,0.28735 -1.0172,0.65775 -1.59563,0.7919 -0.6096,0.14138 -1.26676,-0.14644 -1.87731,-0.009 -0.94416,0.21221 -1.657684,1.13408 -2.617804,1.25511 -0.68194,0.0859 -1.34609,-0.27955 -2.0224,-0.40216 -0.57998,-0.10515 -1.25956,0.0484 -1.74505,-0.28586 -0.67966,-0.46797 -0.97318,-1.3605 -1.2455,-2.13947 -0.29324,-0.83878 -0.48499,-1.75448 -0.38634,-2.63755 0.0696,-0.6227 0.29584,-1.25598 0.67618,-1.75391 0.35736,-0.46785 0.99492,-0.64204 1.42275,-1.04646 0.56695,-0.53594 0.82148,-1.40328 1.49057,-1.80454 0.34765,-0.20848 0.87975,0.017 1.19191,-0.24162 0.56497,-0.46813 0.30398,-1.52756 0.83066,-2.03839 0.45502,-0.44132 1.259294,-0.30514 1.782164,-0.6635 0.18633,-0.12771 0.49243,-0.28521 0.44964,-0.50701 -0.0728,-0.37718 -0.75524,-0.24789 -1.03046,-0.51585 -0.796134,-0.77509 -1.392644,-1.8431 -1.571374,-2.93976 -0.0764,-0.46885 0.20886,-0.93094 0.23799,-1.40507 0.0659,-1.0711 -0.1888,-2.14388 -0.14484,-3.21608 0.0537,-1.30986 0.23796,-2.6163 0.49797,-3.90121 0.13611,-0.67265 0.15529,-1.42427 0.55386,-1.98296 0.248884,-0.34888 0.638054,-0.814 1.058304,-0.73002 0.7996,0.1598 0.93603,1.33966 1.32508,2.05628 0.25711,0.47357 0.18521,1.22465 0.66262,1.47454 0.289,0.15128 0.70905,0.0267 0.96207,-0.17908 0.36532,-0.29725 0.22948,-0.94956 0.53564,-1.30745 0.48066,-0.56184 1.6635,-0.44728 1.89766,-1.1486 0.32984,-0.98801 -1.08989,-1.86061 -1.16514,-2.8995 -0.12472,-1.72175 0.29535,-3.57459 1.21827,-5.03341 1.32612,-2.09618 3.3735,-4.10162 5.78564,-4.67972 1.038126,-0.24879 2.111546,0.35447 3.132436,0.66657 1.41761,0.43338 2.98536,0.71535 4.12374,1.66485 1.03291,0.86155 1.92073,2.08588 2.15754,3.40994 0.28575,1.59776 -0.35859,3.27812 -1.01591,4.76217 -0.37237,0.84069 -1.14939,1.44386 -1.61108,2.23899 -0.75339,1.29751 -1.72197,2.60128 -1.86985,4.09434 -0.24414,2.46495 1.02803,4.84989 1.70099,7.23372 0.4497,1.59287 1.98253,3.11441 1.55876,4.71437 -0.18588,0.70177 -1.02629,1.03714 -1.6176,1.45826 -0.68347,0.48674 -1.7757,0.49432 -2.20413,1.21576 -0.36172,0.60909 0.41544,1.55936 -0.0104,2.12516 -0.25061,0.33268 -0.79662,0.24427 -1.19929,0.35085 z"
       id="path1307"
       sodipodi:nodetypes="sssssssssssssssssssssssssssssssssssssssssssss"
       inkscape:export-filename="/mnt/Work/Research/Projects/Genome/texts/2025_Ocm/Figures/25_1.png"
       inkscape:export-xdpi="150"
       inkscape:export-ydpi="150" />
    <path
       d="m 123.31083,199.11029 c -0.72588,0.75777 -1.05668,1.81334 -1.60175,2.71001 -0.72005,1.1845 -1.79403,2.20238 -2.20399,3.52659 -0.39147,1.26466 0.0327,2.65929 -0.16637,3.96808 -0.0911,0.59902 -0.19567,1.21499 -0.46734,1.75654 -0.17626,0.35156 -0.54552,0.57887 -0.73244,0.92485 -0.4443,0.82262 -0.60886,1.76834 -0.88388,2.66192 -0.27112,0.88124 0.0832,2.27714 -0.75504,2.66101 -0.40555,0.18577 -0.78538,-0.69017 -1.2134,-0.56452 -0.83276,0.24443 -1.15801,1.36444 -1.39233,2.20011 -0.33711,1.20201 -0.11556,2.50941 0.0654,3.7445 0.21401,1.45814 0.65809,2.8844 1.19649,4.2563 0.34313,0.87474 0.72303,1.75625 1.28645,2.50821 0.32225,0.43013 1.15204,0.57221 1.17005,1.10941 0.0208,0.61782 -0.83937,0.90781 -1.25727,1.36343 -0.94255,1.02728 -2.54532,1.7222 -2.81987,3.0891 -0.12384,0.61619 0.19315,1.32843 0.63479,1.77547 0.65089,0.65871 1.67885,0.94378 2.60462,0.96638 1.69461,0.0402 3.28963,-0.86809 4.8482,-1.53438 2.31123,-0.98821 4.49098,-2.2767 6.61202,-3.62551 0.97619,-0.62071 2.15283,-1.0903 2.80178,-2.04789 1.06027,-1.56483 1.55215,-3.60747 1.41054,-5.49232 -0.0593,-0.7894 -0.84056,-1.39928 -0.92778,-2.18608 -0.15187,-1.37066 0.74777,-2.69099 0.74244,-4.07004 -0.005,-1.24029 -0.63712,-2.41627 -0.69598,-3.65517 -0.0799,-1.68035 0.41621,-3.34348 0.46969,-5.02486 0.0487,-1.55237 0.12952,-3.12744 -0.13789,-4.65738 -0.30371,-1.73704 -1.04224,-3.37083 -1.64694,-5.02731 -0.20827,-0.57102 -0.23843,-1.27582 -0.68229,-1.69113 -0.76584,-0.7166 -1.94292,-0.91439 -2.98964,-0.98103 -0.58373,-0.037 -1.18065,0.11259 -1.72309,0.3313 -0.56965,0.22978 -1.12013,0.56084 -1.54515,1.00438 z"
       style="fill:#000000;fill-opacity:1;stroke:none;stroke-width:0.172326px;stroke-linecap:butt;stroke-linejoin:miter;stroke-opacity:1"
       id="path3232"
       inkscape:export-filename="/mnt/Work/Research/Projects/Genome/texts/2025_Ocm/Figures/25_2.png"
       inkscape:export-xdpi="150"
       inkscape:export-ydpi="150" />
    <path
       style="fill:#000000;fill-opacity:1;stroke:none;stroke-width:0.149519px;stroke-linecap:butt;stroke-linejoin:miter;stroke-opacity:1"
       d="m 8.3285263,180.72846 c 1.39005,0.42884 2.2326897,2.15709 3.6737697,2.35553 1.59217,0.2193 3.18297,-0.67159 4.61128,-1.40846 2.20651,-1.13831 4.68879,-2.3777 5.90186,-4.54397 0.70744,-1.26329 0.47863,-2.87135 0.46086,-4.31912 -0.0201,-1.64483 -0.12834,-3.33061 -0.64391,-4.89269 -0.61649,-1.86799 -2.29644,-3.27628 -2.86404,-5.15971 -0.32407,-1.0754 -0.61903,-2.29324 -0.26483,-3.35908 0.55995,-1.68497 3.1254,-2.27084 3.51377,-4.00342 0.54862,-2.44751 -0.76827,-5.09194 -2.07476,-7.23307 -1.26125,-2.06695 -2.91685,-4.51018 -5.29321,-4.97488 -2.70569,-0.52911 -5.13532,2.00834 -7.7165697,2.97683 -2.90885,1.09141 -6.20291,1.42373 -8.75644,3.19352 -2.36275,1.63759 -4.5601,3.87368 -5.61097,6.5495 -1.16097,2.95621 -0.94457,6.39467 -0.38168,9.52041 0.38457,2.13549 1.44633,4.11539 2.5134,6.00474 0.90845,1.60847 2.53504,2.77859 3.27316,4.472 0.21924,0.50292 0.0243,1.14863 0.31128,1.61617 0.86819996,1.41443 2.37125,2.49232 3.93356,3.05223 1.6994,0.609 3.68846,-0.37871 5.41344,0.15348 z"
       id="path1934"
       sodipodi:nodetypes="ssssssssssssssssssss"
       inkscape:export-filename="/mnt/Work/Research/Projects/Genome/texts/2025_Ocm/Figures/23_2.png"
       inkscape:export-xdpi="150"
       inkscape:export-ydpi="150" />
    <path
       style="fill:#000000;fill-opacity:1;stroke:none;stroke-width:0.1371px;stroke-linecap:butt;stroke-linejoin:miter;stroke-opacity:1"
       d="m 45.750636,172.32536 c 1.06704,-0.83508 1.91444,-1.9752 2.52775,-3.18344 0.5945,-1.17117 1.04547,-2.48588 1.04465,-3.7993 -0.001,-1.82409 -1.23097,-3.46472 -1.4575,-5.27475 -0.36706,-2.93291 -0.25555,-5.94235 0.18246,-8.86552 0.24724,-1.64997 1.70013,-3.17946 1.36826,-4.8145 -0.39945,-1.96786 -1.9375,-3.88576 -3.7757,-4.69388 -1.18234,-0.51982 -2.71304,-0.32934 -3.86652,0.25168 -1.46811,0.73963 -2.66806,2.20411 -3.18633,3.76417 -0.76046,2.28931 1.59178,5.10336 0.44105,7.22353 -0.88962,1.63909 -3.38749,1.62338 -4.86834,2.757 -0.91215,0.69827 -1.99367,1.38564 -2.42208,2.45147 -0.77047,1.91688 0.46312,4.16453 0.0931,6.19699 -0.13706,0.75286 -0.7616,1.37492 -0.84127,2.13597 -0.12884,1.23088 0.51895,2.42754 0.61566,3.66133 0.0893,1.1396 0.28197,2.33084 -0.0348,3.42918 -0.33249,1.15265 -1.18925,2.08863 -1.88551,3.0656 -0.77928,1.0934 -2.56146,1.77175 -2.5546,3.11443 0.003,0.64659 0.62678,1.29916 1.24545,1.48718 2.15612,0.65508 4.48088,-0.87184 6.49023,-1.89187 1.36356,-0.69225 2.39422,-1.90501 3.63573,-2.79782 1.37953,-0.99208 2.74972,-2.01134 4.23292,-2.84039 0.96454,-0.53918 2.14522,-0.69608 3.01541,-1.37707 z"
       id="path2808"
       sodipodi:nodetypes="sssssssssssssssssssssss"
       inkscape:export-filename="/mnt/Work/Research/Projects/Genome/texts/2025_Ocm/Figures/23_3.png"
       inkscape:export-xdpi="150"
       inkscape:export-ydpi="150" />
    <path
       style="fill:#000000;fill-opacity:1;stroke:none;stroke-width:0.16312px;stroke-linecap:butt;stroke-linejoin:miter;stroke-opacity:1"
       d="m 62.328126,170.16959 c -0.44433,0.8471 -1.22468,1.51299 -1.55915,2.40919 -0.34496,0.92385 -0.762,2.00715 -0.41295,2.92949 0.24921,0.65854 0.9405,1.14177 1.60577,1.37245 1.25942,0.43662 2.67613,0.0299 3.99566,-0.15875 1.02608,-0.14637 2.03062,-0.43397 3.01734,-0.75133 1.24534,-0.40057 2.58046,-2.20717 3.647,-1.44967 0.99183,0.70449 -0.44883,2.46565 -0.15587,3.6464 0.1632,0.65752 0.55079,1.27159 1.02603,1.75447 0.86811,0.88206 1.968299,1.64909 3.174762,1.92507 0.798096,0.18262 1.771721,0.23204 2.44508,-0.23383 1.344946,-0.93028 1.689588,-2.8387 2.159846,-4.40493 0.470959,-1.56884 0.713757,-3.23849 0.624765,-4.87408 -0.05706,-1.04788 -0.229222,-2.14234 -0.73672,-3.06088 -0.477131,-0.86367 -1.713616,-1.19738 -2.067589,-2.11845 -0.915634,-2.38244 -0.148426,-5.13874 0.301615,-7.6511 0.305316,-1.70399 1.111152,-3.27978 1.609573,-4.93762 0.364873,-1.21365 0.905286,-2.40226 1.010386,-3.66523 0.08562,-1.02799 0.06813,-2.12165 -0.317707,-3.07835 -0.470899,-1.16748 -1.448321,-2.07314 -2.327248,-2.97442 -1.041435,-1.06791 -1.980491,-2.61331 -3.454007,-2.8451 -1.248491,-0.1967 -2.395316,0.82982 -3.525416,1.39571 -0.90456,0.45297 -1.8766,0.86796 -2.58483,1.59032 -0.60252,0.61461 -1.23523,1.36797 -1.3093,2.22546 -0.0692,0.80104 0.77294,1.45742 0.84859,2.25789 0.0639,0.67557 0.0617,1.46392 -0.34647,2.00607 -0.54618,0.72551 -1.85341,0.5049 -2.45164,1.18812 -0.78709,0.89895 -1.21985,2.21294 -1.12338,3.40384 0.074,0.91135 1.0481,1.54487 1.26765,2.43245 0.20101,0.81256 0.2926,1.72267 0.0115,2.51115 -0.36963,1.03692 -1.20362,1.9102 -2.10065,2.54825 -0.99282,0.70617 -2.39317,0.62623 -3.42691,1.27098 -0.37436,0.23344 -1.0237,0.47553 -0.95924,0.912 0.13454,0.91096 1.93278,0.49333 2.46683,1.24354 0.34217,0.48057 0.31155,1.16904 0.23566,1.75409 -0.0662,0.51017 -0.35013,0.97089 -0.58901,1.4265 z"
       id="path3787"
       sodipodi:nodetypes="ssssssssssssssssssssssssssssssssssss"
       inkscape:export-filename="/mnt/Work/Research/Projects/Genome/texts/2025_Ocm/Figures/23_4.png"
       inkscape:export-xdpi="150"
       inkscape:export-ydpi="150" />
    <path
       style="fill:#000000;fill-opacity:1;stroke:none;stroke-width:0.160756px;stroke-linecap:butt;stroke-linejoin:miter;stroke-opacity:1"
       d="m 105.07186,143.54231 c 1.84708,-0.28621 3.74177,0.68985 5.37422,1.60017 2.11829,1.18127 5.35559,2.41721 5.43176,4.84142 0.0461,1.49342 -2.53497,1.82601 -3.15231,3.1866 -0.52469,1.15653 -0.30296,2.53049 -0.27361,3.80016 0.0216,0.93223 0.33457,1.84548 0.32953,2.77792 -0.005,0.83818 -0.19613,1.6652 -0.32311,2.49372 -0.0957,0.62477 -0.49095,1.2557 -0.33069,1.86714 0.31685,1.20902 2.0071,1.70409 2.38073,2.8968 0.28475,0.90888 -0.36001,1.90445 -0.23037,2.84804 0.20112,1.46388 1.486,2.68155 1.53573,4.15832 0.0492,1.45799 -0.52316,2.92561 -1.23657,4.19805 -0.62785,1.11984 -1.6576,1.9673 -2.5843,2.85582 -0.90973,0.87226 -1.65513,2.55665 -2.90771,2.41685 -1.89045,-0.21094 -1.68654,-3.88161 -3.4765,-4.52536 -1.01454,-0.3649 -2.10093,0.48562 -3.15279,0.72236 -1.24063,0.2792 -2.548464,1.30561 -3.725044,0.82324 -1.19801,-0.49117 -2.1315,-1.96479 -2.11283,-3.25943 0.0144,-0.99631 1.58257,-1.47068 1.69765,-2.46046 0.1262,-1.08547 -0.72054,-2.06816 -1.19297,-3.05355 -0.55563,-1.15891 -1.84985,-2.05957 -1.92144,-3.34278 -0.0573,-1.02624 0.86439,-1.86695 1.22972,-2.82763 0.35428,-0.9316 0.94846,-1.84492 0.93086,-2.84145 -0.0264,-1.49449 -1.7814,-2.73339 -1.54557,-4.2094 0.17019,-1.06516 1.14909,-1.88424 2.00635,-2.53892 0.658,-0.50248 1.75537,-0.3366 2.285424,-0.97259 0.5245,-0.62937 0.39165,-1.59207 0.53903,-2.39795 0.31716,-1.7342 0.15661,-3.57351 0.74141,-5.23667 0.28388,-0.80732 0.72394,-1.58449 1.3103,-2.20786 0.65522,-0.69668 1.42802,-1.46615 2.37312,-1.61257 z"
       id="path4480"
       sodipodi:nodetypes="ssssssssssssssssssssssssssssss"
       inkscape:export-filename="/mnt/Work/Research/Projects/Genome/texts/2025_Ocm/Figures/23_5.png"
       inkscape:export-xdpi="150"
       inkscape:export-ydpi="150" />
    <path
       style="fill:#000000;fill-opacity:1;stroke:none;stroke-width:0.121525px;stroke-linecap:butt;stroke-linejoin:miter;stroke-opacity:1"
       d="m 236.18084,179.63249 c 0.64143,-0.95625 0.9893,-2.17229 0.94405,-3.32287 -0.0573,-1.45734 -1.02471,-2.73107 -1.52251,-4.10195 -0.60521,-1.6667 -1.66155,-3.24363 -1.78015,-5.01285 -0.12856,-1.91779 0.59006,-3.81576 1.18712,-5.64277 0.50841,-1.55575 1.79336,-2.85391 2.02167,-4.47463 0.14444,-1.02532 -0.43671,-2.03858 -0.44717,-3.07398 -0.009,-0.93862 0.54609,-1.87655 0.34899,-2.79429 -0.17581,-0.81858 -0.88513,-1.42169 -1.30722,-2.14475 -0.36979,-0.63346 -0.62435,-1.3409 -1.07311,-1.92109 -0.57768,-0.7469 -1.19637,-1.5475 -2.04635,-1.95873 -0.7463,-0.36107 -1.63908,-0.25516 -2.46364,-0.34141 -0.91637,-0.0958 -1.91601,-0.57125 -2.75718,-0.19532 -0.79437,0.35502 -1.03323,1.40218 -1.59938,2.06288 -0.26504,0.3093 -0.52476,0.62938 -0.83958,0.88784 -0.61222,0.50263 -1.55058,0.62108 -2.0115,1.26528 -0.44388,0.62038 -0.34673,1.48575 -0.52793,2.22673 -0.20336,0.83155 -0.0521,1.85662 -0.62766,2.49029 -0.66887,0.73637 -2.11781,0.28953 -2.81068,1.00337 -1.10087,1.13417 -1.45117,2.93069 -1.46039,4.51125 -0.005,0.82685 0.17859,1.7584 0.73639,2.36878 0.37757,0.41314 1.23973,0.17604 1.55211,0.64043 0.54597,0.81164 -0.0946,1.9624 0.0142,2.93452 0.15715,1.4038 0.32979,2.85259 0.91708,4.13728 0.48419,1.05914 1.71017,1.7008 2.08484,2.80345 0.39158,1.15238 0.22078,2.44478 0.0572,3.65083 -0.16802,1.23881 -0.1627,2.72375 -1.05547,3.59886 -0.57256,0.56123 -2.19703,-0.16144 -2.32111,0.63066 -0.08,0.51036 1.25184,0.32984 1.29964,0.84422 0.0832,0.8953 -1.45282,1.11363 -1.95266,1.86106 -0.30736,0.4596 -0.93277,1.106 -0.59901,1.54681 0.62816,0.82962 2.17053,0.15655 3.10779,-0.29555 0.98173,-0.47355 1.44836,-1.63716 2.26863,-2.35495 0.60548,-0.52984 1.19504,-1.13812 1.94512,-1.4292 0.82463,-0.32001 1.76449,-0.41838 2.63853,-0.28256 1.27867,0.19869 2.25855,1.55711 3.55255,1.56518 0.42162,0.003 0.75068,-0.41124 1.16381,-0.49553 0.6048,-0.1234 1.26844,0.20176 1.8518,0 0.60542,-0.20937 1.15434,-0.65529 1.51119,-1.18729 z"
       id="path2693"
       sodipodi:nodetypes="sssssssssssssssssssssssssssssssssssssss"
       inkscape:export-filename="/mnt/Work/Research/Projects/Genome/texts/2025_Ocm/Figures/23_8.png"
       inkscape:export-xdpi="150"
       inkscape:export-ydpi="150" />
    <path
       style="fill:#000000;fill-opacity:1;stroke:none;stroke-width:0.158571px;stroke-linecap:butt;stroke-linejoin:miter;stroke-opacity:1"
       d="m 255.16173,180.22981 c -0.57763,-0.83252 0.33295,-2.29822 -0.3826,-3.01569 -0.96216,-0.96474 -2.8431,0.10001 -4.05365,-0.52529 -1.12403,-0.58061 -2.06427,-1.63023 -2.57614,-2.78717 -0.48645,-1.09949 -0.65943,-2.44179 -0.31349,-3.59325 0.16334,-0.54366 0.66566,-0.92429 1.05853,-1.33406 0.69256,-0.7223 2.10545,-0.97633 2.27115,-1.96319 0.16663,-0.99235 -0.97705,-1.76058 -1.51374,-2.61176 -0.46898,-0.74381 -1.56393,-1.3013 -1.48914,-2.17742 0.0818,-0.95816 1.25132,-1.47815 2.00861,-2.07083 0.42631,-0.33365 1.05192,-0.40569 1.4033,-0.81749 0.94407,-1.10643 1.02313,-2.72354 1.57576,-4.06893 0.34295,-0.83496 0.65616,-1.68624 1.07938,-2.48354 0.50155,-0.94487 1.14639,-1.8064 1.72092,-2.70875 0.7147,-1.12249 1.25822,-2.37536 2.14739,-3.36538 0.68769,-0.76568 1.46029,-1.53339 2.41005,-1.92977 1.0728,-0.44775 2.30823,-0.52525 3.4642,-0.4022 1.8696,0.19903 3.83718,0.68607 5.34037,1.81544 1.08022,0.8116 2.16318,1.981 2.32139,3.32285 0.24718,2.09656 -1.35449,4.01564 -2.32012,5.89292 -0.69256,1.34636 -1.82223,2.44325 -2.47056,3.81147 -0.42401,0.89483 -0.2796,2.06218 -0.90599,2.82908 -0.46312,0.56701 -1.71163,0.37094 -1.91583,1.07401 -0.26399,0.90893 0.81446,1.71731 1.34769,2.49933 0.61035,0.89515 1.47773,1.59394 2.09972,2.48105 0.8556,1.22031 1.53703,2.55614 2.22407,3.87871 0.72126,1.38846 1.93678,2.6879 1.98898,4.25166 0.0493,1.4772 -0.61601,3.03603 -1.60697,4.13264 -0.77741,0.86027 -2.02731,1.13686 -3.09815,1.58147 -0.62164,0.25809 -1.26517,0.46941 -1.91983,0.62574 -0.69067,0.16492 -1.45826,0.0334 -2.10512,0.32617 -0.67238,0.30443 -0.96247,1.36518 -1.69846,1.42058 -1.04795,0.0789 -1.92304,-0.9236 -2.69399,-1.63779 -0.39074,-0.36198 -0.51073,-0.97195 -0.93184,-1.29808 -0.29352,-0.22731 -0.70053,-0.24879 -1.03848,-0.40247 -0.48928,-0.22249 -1.12099,-0.30846 -1.42741,-0.75006 z"
       id="path3426"
       sodipodi:nodetypes="ssssssssssssssssssssssssssssssssssss"
       inkscape:export-filename="/mnt/Work/Research/Projects/Genome/texts/2025_Ocm/Figures/23_9.png"
       inkscape:export-xdpi="150"
       inkscape:export-ydpi="150" />
    <path
       style="fill:#000000;fill-opacity:1;stroke:none;stroke-width:0.143081px;stroke-linecap:butt;stroke-linejoin:miter;stroke-opacity:1"
       d="m -68.225994,235.91229 c 0.51,-0.47912 1.03315,-0.97384 1.65975,-1.2853 0.42283,-0.21021 0.93992,-0.16913 1.36762,-0.36927 0.87173,-0.4079 1.49944,-1.23483 2.36394,-1.65785 0.77474,-0.3791 1.65744,-0.48068 2.47312,-0.76107 0.41518,-0.14272 0.83325,-0.65447 1.23091,-0.46848 0.24061,0.11257 0.0682,0.56936 0.25984,0.75333 0.19158,0.18394 0.51349,0.31965 0.76312,0.22905 0.39636,-0.14391 0.38439,-0.77234 0.69615,-1.05627 0.52176,-0.47518 1.39536,-0.47167 1.86868,-0.99515 0.61203,-0.67685 0.62079,-1.72163 1.03785,-2.53327 0.43224,-0.84117 1.32218,-1.47576 1.50839,-2.40296 0.1386,-0.69014 -0.3705,-1.37989 -0.34518,-2.08335 0.0439,-1.21964 0.7894,-2.34109 0.85661,-3.55969 0.0592,-1.07089 -0.14555,-2.15118 -0.40406,-3.19209 -0.11845,-0.47691 -0.38822,-0.90598 -0.52062,-1.37921 -0.35405,-1.26532 -0.70912,-2.56086 -0.72397,-3.8747 -0.0115,-1.02036 0.3588,-2.00973 0.49405,-3.02115 0.13862,-1.03667 0.34327,-2.07509 0.32501,-3.12083 -0.0204,-1.1644 -0.13378,-2.34921 -0.48306,-3.4602 -0.19566,-0.62234 -0.41764,-1.29157 -0.8872,-1.74443 -1.00025,-0.96467 -2.49101,-1.23966 -3.78191,-1.7541 -0.88452,-0.35253 -1.76311,-1.02932 -2.70776,-0.90985 -1.82871,0.23131 -3.9138,1.316 -4.63819,3.01096 -0.64556,1.51049 1.32078,3.24952 0.91729,4.84185 -0.34541,1.36308 -1.86524,2.11362 -2.66433,3.27067 -0.55849,0.80868 -0.58853,2.13373 -1.47836,2.55094 -1.06479,0.49922 -2.30256,-0.63166 -3.47791,-0.59242 -0.65262,0.0216 -1.59372,-0.11702 -1.90492,0.45698 -0.34853,0.64292 0.57063,1.35447 0.73541,2.06694 0.22203,0.96001 0.20782,1.95984 0.33263,2.93725 0.11854,0.92846 0.17132,1.87122 0.39528,2.78006 0.42502,1.72459 1.81338,3.24399 1.78713,5.02002 -0.023,1.55432 -1.11072,2.90398 -1.69319,4.34522 -0.28013,0.69311 -0.30731,1.57229 -0.86631,2.06868 -0.70012,0.62166 -2.07297,0.0765 -2.70101,0.77094 -0.48054,0.53129 -0.7458,1.49926 -0.38008,2.11522 0.57493,0.96836 2.25105,0.46953 3.20557,1.06701 1.20372,0.75391 1.70226,2.42081 2.97577,3.04967 0.3879,0.19153 0.88444,0.30936 1.28858,0.15492 0.52596,-0.20093 0.70511,-0.88288 1.11545,-1.26839 z"
       id="path1267"
       sodipodi:nodetypes="sssssssssssssssssssssssssssssssssssssssss"
       inkscape:export-filename="/mnt/Work/Research/Projects/Genome/texts/2025_Ocm/Figures/23_10.png"
       inkscape:export-xdpi="150"
       inkscape:export-ydpi="150" />
    <path
       style="fill:#000000;fill-opacity:1;stroke:none;stroke-width:0.146015px;stroke-linecap:butt;stroke-linejoin:miter;stroke-opacity:1"
       d="m 10.811166,240.36198 c 0.6936,-0.21599 0.85318,-1.22523 1.47006,-1.60886 0.94464,-0.58746 2.29874,-0.28465 3.20516,-0.92952 0.78326,-0.55725 1.17333,-1.52834 1.66696,-2.35319 0.65445,-1.09356 1.31175,-2.20984 1.70502,-3.4221 0.29787,-0.91816 0.56802,-1.8955 0.47612,-2.85637 -0.14829,-1.55073 -1.2208,-2.87704 -1.62819,-4.38063 -0.2762,-1.01943 0.0756,-2.26753 -0.54643,-3.12109 -0.42087,-0.5775 -1.61147,-0.34347 -1.89702,-0.99855 -0.36458,-0.83635 0.51919,-1.75095 0.71458,-2.64213 0.24318,-1.10921 0.15865,-2.29974 0.56797,-3.35892 0.27045,-0.69974 0.87,-1.2283 1.21463,-1.89465 0.57243,-1.10684 1.4426,-2.21983 1.4023,-3.46526 -0.045,-1.38841 -0.93661,-2.6735 -1.80973,-3.75394 -1.08589,-1.34371 -2.61205,-2.28971 -4.09236,-3.18049 -1.31512,-0.79135 -2.68634,-2.14768 -4.1992497,-1.88902 -1.36257,0.23294 -1.79219,2.19227 -3.00194,2.86114 -0.53769,0.29728 -1.45725,-0.0649 -1.78647,0.45374 -0.5633,0.88758 0.71969,2.05207 0.59887,3.09633 -0.0662,0.5723 -0.27408,1.19697 -0.70697,1.57708 -0.71317,0.62624 -1.91828,0.32222 -2.72693,0.81906 -1.04357004,0.64119 -1.95878004,1.57989 -2.53322,2.66164 -0.44058,0.82971 -0.76538,1.82775 -0.60302,2.75308 0.17871,1.01831 1.22196996,1.68428 1.65559996,2.62285 0.0965,0.20885 0.23833,0.43112 0.20562,0.65886 -0.0621,0.4326 -0.39111,0.81153 -0.72704,1.0911 -0.38066,0.31679 -0.99645996,0.25526 -1.36544996,0.5856 -0.72551,0.64949 -1.21106,1.59511 -1.44035,2.54149 -0.14558,0.60088 -0.0609,1.25001 0.0746,1.85327 0.10833,0.48272 0.56227,0.8718 0.57978,1.36619 0.0287,0.81291 -0.60304,1.517 -0.79194,2.30816 -0.20142,0.84359 -0.62807,1.75273 -0.35849,2.57705 0.28545,0.87289 1.67585,1.09158 1.91868,1.9773 0.2085,0.76046 -0.94261,1.61595 -0.55122,2.3005 0.57768,1.01036 2.17517996,1.04295 3.33880996,1.02128 1.03353004,-0.0192 1.91551004,-1.21678 2.92971004,-1.01686 1.098,0.21644 1.83141,1.33744 2.51675,2.22218 0.64353,0.83078 0.60166,2.16269 1.42964,2.8098 0.83425,0.65203 2.0843,1.02868 3.0952497,0.71388 z"
       id="path2413"
       sodipodi:nodetypes="sssssssssssssssssssssssssssssssssssssss"
       inkscape:export-filename="/mnt/Work/Research/Projects/Genome/texts/2025_Ocm/Figures/23_12.png"
       inkscape:export-xdpi="150"
       inkscape:export-ydpi="150" />
    <path
       style="fill:#000000;fill-opacity:1;stroke:none;stroke-width:0.14772px;stroke-linecap:butt;stroke-linejoin:miter;stroke-opacity:1"
       d="m 34.210216,228.60472 c 0.55439,0.81437 1.78071,0.88452 2.74042,1.10697 0.5598,0.12972 1.14496,0.1125 1.71951,0.1234 1.04425,0.0193 2.28997,-0.72477 3.13152,-0.10617 1.02078,0.75025 0.48403,2.51152 1.01078,3.66367 0.43546,0.95244 0.73519,2.33198 1.74398,2.61336 0.74477,0.20767 1.35049,-1.17373 2.10019,-0.98463 0.9481,0.23911 0.90064,1.86746 1.74769,2.35594 0.54431,0.31392 1.24892,0.28779 1.87287,0.21365 0.75038,-0.0885 1.575,-0.26394 2.12924,-0.77727 0.58216,-0.5394 0.44552,-1.58522 0.98438,-2.16785 0.46679,-0.50472 1.58233,-0.34631 1.80577,-0.99643 0.21434,-0.62384 -0.78464,-1.15954 -0.77899,-1.81916 0.005,-0.44915 0.45564,-0.79071 0.55151,-1.22953 0.18601,-0.85133 0.16086,-1.75389 0.022,-2.61417 -0.16768,-1.0421 -0.78039,-1.96966 -1.02142,-2.99728 -0.18338,-0.78116 0.0844,-1.69168 -0.31753,-2.38607 -0.47134,-0.81395 -1.75047,-0.91252 -2.24056,-1.71531 -0.5957,-0.97587 -0.55568,-2.23326 -0.60995,-3.37533 -0.10526,-2.21446 -0.42863,-4.64173 0.55769,-6.62749 0.37444,-0.75409 1.4024,-0.99468 1.87702,-1.69004 0.64783,-0.94923 0.93243,-2.11254 1.21468,-3.22659 0.24949,-0.98484 0.76075,-2.06474 0.41392,-3.01967 -0.80091,-2.20491 -3.08919,-3.72621 -5.20772,-4.73357 -1.13294,-0.53875 -2.46787,-0.61516 -3.72124,-0.56235 -1.44456,0.0611 -2.92707,0.35771 -4.21918,1.00648 -0.57162,0.28704 -1.27852,0.62141 -1.47199,1.23109 -0.14369,0.45286 0.38041,0.90261 0.36616,1.37752 -0.0178,0.58914 -0.39979,1.11013 -0.55589,1.67844 -0.21828,0.79578 0.11691,1.90532 -0.52952,2.41812 -0.40101,0.31807 -1.07559,-0.24653 -1.53535,-0.022 -0.9461,0.46286 -1.22324,1.71796 -1.90405,2.52162 -0.53546,0.63205 -1.48737,1.00525 -1.71016,1.80317 -0.12488,0.44712 0.20897,0.90487 0.29629,1.36083 0.14238,0.74458 0.0745,1.54583 0.37001,2.24394 0.37304,0.88125 1.57794,1.35897 1.70871,2.30693 0.0705,0.50615 -0.2637,1.00625 -0.54489,1.43297 -0.31993,0.48553 -0.76992,0.89031 -1.25378,1.21283 -0.54197,0.36122 -1.27274,0.3834 -1.79436,0.77346 -0.32067,0.2398 -0.47693,0.64873 -0.76803,0.92366 -0.15444,0.14577 -0.47017,0.17046 -0.51238,0.3786 -0.15771,0.77711 0.75267,1.40042 1.21071,2.04771 0.33129,0.4681 0.91035,0.77905 1.10541,1.31835 0.23898,0.66063 -0.009,1.40507 -0.008,2.10756 0.002,0.94343 -0.50684,2.05032 0.0241,2.83017 z"
       id="path3155"
       sodipodi:nodetypes="sssssssssssssssssssssssssssssssssssssssssssss"
       inkscape:export-filename="/mnt/Work/Research/Projects/Genome/texts/2025_Ocm/Figures/23_13.png"
       inkscape:export-xdpi="150"
       inkscape:export-ydpi="150" />
    <path
       style="fill:#000000;fill-opacity:1;stroke:none;stroke-width:0.795161px;stroke-linecap:butt;stroke-linejoin:miter;stroke-opacity:1"
       d="m 229.42864,123.46774 c 0.79798,-1.08238 0.675,-2.60368 1.04601,-3.89624 0.31439,-1.09004 0.48674,-2.23994 0.99495,-3.25364 0.57942,-1.15369 1.97667,-1.86968 2.29193,-3.12134 0.42678,-1.69721 -0.53168,-3.46065 -0.73168,-5.19951 -0.2233,-1.92068 -0.76766,-3.85753 -0.52657,-5.77587 0.16109,-1.23919 1.35312,-2.286876 1.25202,-3.531956 -0.13944,-1.71274 -1.3704,-3.2082 -2.48331,-4.51705 -0.65441,-0.7691 -1.51838,-1.35057 -2.38726,-1.86508 -1.17664,-0.69664 -2.47435,-2.06194 -3.76809,-1.61997 -1.14707,0.39195 -0.788,2.46119 -1.76386,3.18028 -0.53483,0.39406 -1.39556,0.0448 -1.95082,0.40686 -0.66331,0.43574 -1.11547,1.19453 -1.37215,1.94535 -0.31878,0.93713 -0.19234,1.97878 -0.14065,2.96735 0.0421,0.64808 0.29362,1.274986 0.30194,1.923746 0.0301,0.59683 0.15298,1.31868 -0.24102,1.77318 -0.81084,0.95296 -2.97412,-0.006 -3.59285,1.08739 -0.33804,0.59614 0.23892,1.36196 0.49368,1.99699 0.2783,0.68876 1.11357,1.17701 1.13635,1.92011 0.0301,0.72218 -0.93938,1.20721 -0.98972,1.92768 0.006,0.4969 0.28852,0.95242 0.48708,1.40785 0.31532,0.73478 0.9587,1.33912 1.11645,2.12336 0.36984,1.82935 0.23261,3.85182 -0.47472,5.57872 -0.4682,1.14377 -1.43129,2.04703 -2.36815,2.8533 -0.69997,0.60251 -1.87335,0.65462 -2.37157,1.4321 -0.48569,0.75753 -0.28611,1.78256 -0.29873,2.68248 0.0301,0.70346 -0.0926,1.43192 0.13734,2.10238 0.29633,0.94731 0.60405,2.24925 1.55394,2.54041 1.24863,0.38408 2.38883,-1.05776 3.56869,-1.61912 1.30101,-0.61883 2.52521,-1.40773 3.86955,-1.92609 0.94094,-0.36248 1.9908,-0.40891 2.9123,-0.8183 1.54513,-0.68687 3.2875,-1.34429 4.2906,-2.7054 z"
       id="path3853"
       sodipodi:nodetypes="ssssssssssssssssssssssssssssssss"
       inkscape:export-filename="/mnt/Work/Research/Projects/Genome/texts/2025_Ocm/Figures/21_35.png"
       inkscape:export-xdpi="150"
       inkscape:export-ydpi="150" />
    <path
       style="fill:#000000;fill-opacity:1;stroke:none;stroke-width:0.95089px;stroke-linecap:butt;stroke-linejoin:miter;stroke-opacity:1"
       d="m 255.23416,129.51175 c 0.90121,-0.27386 1.57363,-1.03336 2.34626,-1.57083 0.73122,-0.50854 1.37262,-1.16062 2.16634,-1.56483 0.89302,-0.45492 1.8848,-0.69406 2.85724,-0.93543 0.68841,-0.16747 1.42039,-0.14555 2.09641,-0.35508 1.0877,-0.34681 2.2173,-0.73671 3.09134,-1.47009 0.54315,-0.45596 0.85669,-1.1327 1.2329,-1.73378 0.5352,-0.85524 1.20317,-1.67818 1.45212,-2.65594 0.33603,-1.32059 0.26523,-2.75252 -0.004,-4.08791 -0.21133,-1.04906 -0.63138,-2.08397 -1.24857,-2.95869 -0.40643,-0.57618 -1.48303,-0.72727 -1.5603,-1.42798 -0.12291,-1.1186 1.44544,-1.75361 1.93253,-2.76796 0.50663,-1.05475 1.24536,-2.22565 0.99023,-3.36754 -0.19192,-0.86937 -1.64774,-1.11725 -1.77328,-1.99905 -0.0924,-0.63487 0.51232,-1.17802 0.82423,-1.73838 0.39271,-0.70563 1.25813,-1.230226 1.31315,-2.035956 0.0636,-0.93973 -0.48072,-1.94711 -1.1953,-2.56102 -0.38826,-0.33352 -1.12921,-0.0525 -1.47276,-0.43235 -0.2929,-0.32166 -0.21779,-0.84731 -0.24438,-1.28113 -0.0503,-0.76565 0.51454,-1.60407 0.18221,-2.29508 -0.31052,-0.6428 -1.12695,-0.89894 -1.77608,-1.19598 -1.32562,-0.60608 -2.79593,-0.83526 -4.22016,-1.14596 -0.44267,-0.0952 -0.92321,-0.3972 -1.34165,-0.2239 -0.94657,0.39321 -1.3525,1.57672 -1.77928,2.5091 -0.28032,0.60755 -0.39734,1.28324 -0.48004,1.94643 -0.12399,1.01215 0.39023,2.1262 -0.0216,3.06051 -0.38426,0.87645 -1.67894,1.0992 -2.09892,1.95908 -0.37923,0.77647 -0.16065,1.720906 -0.23217,2.582016 -0.0428,0.54257 0.31087,1.29981 -0.12507,1.62887 -0.42627,0.32597 -1.06448,-0.15454 -1.57453,-0.31519 -1.08993,-0.34465 -2.14701,-1.95627 -3.1375,-1.38524 -1.0211,0.58865 -0.3872,2.3363 -0.38512,3.515 0.007,1.64684 0.31591,3.2796 0.55742,4.90858 0.13764,0.90567 -0.27997,2.22331 0.50067,2.70141 0.55774,0.34142 1.2363,-0.66991 1.88077,-0.55897 0.39752,0.0697 0.77481,0.36428 0.97754,0.71293 0.59559,1.02373 0.72601,2.39132 0.40206,3.53006 -0.47498,1.6628 -2.2563,2.63201 -3.21937,4.06846 -0.80173,1.19573 -1.735,2.37677 -2.11545,3.76506 -0.18149,0.66427 -0.12687,1.38172 -0.046,2.06565 0.0812,0.67278 0.0952,1.44486 0.51842,1.96547 0.57291,0.68605 1.55721,0.93877 2.42913,1.13471 0.74861,0.1664 1.56699,0.23217 2.30162,0.018 z"
       id="path4067"
       sodipodi:nodetypes="sssssssssssssssssssssssssssssssssssssssssss"
       inkscape:export-filename="/mnt/Work/Research/Projects/Genome/texts/2025_Ocm/Figures/21_36.png"
       inkscape:export-xdpi="150"
       inkscape:export-ydpi="150" />
  </g>
</svg>
