<?xml version="1.0" encoding="UTF-8" standalone="no"?>
<svg width="213.783mm" height="107.244mm"
 viewBox="0 0 606 304"
 xmlns="http://www.w3.org/2000/svg" xmlns:xlink="http://www.w3.org/1999/xlink"  version="1.2" baseProfile="tiny">
<title>PopART SVG Image</title>
<desc>A haplotype network image created by PopART.</desc>
<defs>
</defs>
<g fill="none" stroke="black" stroke-width="1" fill-rule="evenodd" stroke-linecap="square" stroke-linejoin="bevel" >

<g fill="none" stroke="#000000" stroke-opacity="1" stroke-width="1" stroke-linecap="square" stroke-linejoin="bevel" transform="matrix(1,0,0,1,0,0)"
font-family="MS Shell Dlg 2" font-size="8.25" font-weight="400" font-style="normal" 
>
</g>

<g fill="none" stroke="#000000" stroke-opacity="1" stroke-width="1" stroke-linecap="square" stroke-linejoin="bevel" transform="matrix(0.997997,0,0,0.997997,73.9118,-104.415)"
font-family="MS Shell Dlg 2" font-size="8.25" font-weight="400" font-style="normal" 
>
</g>

<g fill="#000000" fill-opacity="0" stroke="none" transform="matrix(0.997997,0,0,0.997997,73.9118,-104.415)"
font-family="MS Shell Dlg 2" font-size="8.25" font-weight="400" font-style="normal" 
>
<path vector-effect="non-scaling-stroke" fill-rule="evenodd" d="M-74.0602,104.625 L532.145,104.625 L532.145,409.235 L-74.0602,409.235 L-74.0602,104.625"/>
</g>

<g fill="none" stroke="#000000" stroke-opacity="1" stroke-width="1" stroke-linecap="square" stroke-linejoin="bevel" transform="matrix(0.997997,0,0,0.997997,73.9118,-104.415)"
font-family="MS Shell Dlg 2" font-size="8.25" font-weight="400" font-style="normal" 
>
</g>

<g fill="none" stroke="#000000" stroke-opacity="1" stroke-width="1" stroke-linecap="square" stroke-linejoin="bevel" transform="matrix(0.997997,0,0,0.997997,73.9118,-104.415)"
font-family="MS Shell Dlg 2" font-size="8.25" font-weight="400" font-style="normal" 
>
</g>

<g fill="none" stroke="#000000" stroke-opacity="1" stroke-width="2" stroke-linecap="round" stroke-linejoin="bevel" transform="matrix(0.997997,0,0,0.997997,73.9118,-104.415)"
font-family="MS Shell Dlg 2" font-size="8.25" font-weight="400" font-style="normal" 
>
<polyline fill="none" vector-effect="none" points="161.522,357.27 138.229,382.735 " />
<polyline fill="none" vector-effect="none" points="147,364 155,371 " />
</g>

<g fill="none" stroke="#000000" stroke-opacity="1" stroke-width="1" stroke-linecap="square" stroke-linejoin="bevel" transform="matrix(0.997997,0,0,0.997997,73.9118,-104.415)"
font-family="MS Shell Dlg 2" font-size="8.25" font-weight="400" font-style="normal" 
>
</g>

<g fill="none" stroke="#000000" stroke-opacity="1" stroke-width="1" stroke-linecap="square" stroke-linejoin="bevel" transform="matrix(0.997997,0,0,0.997997,73.9118,-104.415)"
font-family="MS Shell Dlg 2" font-size="8.25" font-weight="400" font-style="normal" 
>
</g>

<g fill="none" stroke="#000000" stroke-opacity="1" stroke-width="2" stroke-linecap="round" stroke-linejoin="bevel" transform="matrix(0.997997,0,0,0.997997,73.9118,-104.415)"
font-family="MS Shell Dlg 2" font-size="8.25" font-weight="400" font-style="normal" 
>
<polyline fill="none" vector-effect="none" points="161.522,357.27 200.946,314.736 " />
<polyline fill="none" vector-effect="none" points="170,339 178,346 " />
<polyline fill="none" vector-effect="none" points="174,336 181,343 " />
<polyline fill="none" vector-effect="none" points="177,332 184,339 " />
<polyline fill="none" vector-effect="none" points="180,328 188,335 " />
</g>

<g fill="none" stroke="#000000" stroke-opacity="1" stroke-width="1" stroke-linecap="square" stroke-linejoin="bevel" transform="matrix(0.997997,0,0,0.997997,73.9118,-104.415)"
font-family="MS Shell Dlg 2" font-size="8.25" font-weight="400" font-style="normal" 
>
</g>

<g fill="none" stroke="#000000" stroke-opacity="1" stroke-width="1" stroke-linecap="square" stroke-linejoin="bevel" transform="matrix(0.997997,0,0,0.997997,73.9118,-104.415)"
font-family="MS Shell Dlg 2" font-size="8.25" font-weight="400" font-style="normal" 
>
</g>

<g fill="none" stroke="#000000" stroke-opacity="1" stroke-width="2" stroke-linecap="round" stroke-linejoin="bevel" transform="matrix(0.997997,0,0,0.997997,73.9118,-104.415)"
font-family="MS Shell Dlg 2" font-size="8.25" font-weight="400" font-style="normal" 
>
<polyline fill="none" vector-effect="none" points="351.917,314.332 380.793,284.236 " />
<polyline fill="none" vector-effect="none" points="361,297 368,304 " />
</g>

<g fill="none" stroke="#000000" stroke-opacity="1" stroke-width="1" stroke-linecap="square" stroke-linejoin="bevel" transform="matrix(0.997997,0,0,0.997997,73.9118,-104.415)"
font-family="MS Shell Dlg 2" font-size="8.25" font-weight="400" font-style="normal" 
>
</g>

<g fill="none" stroke="#000000" stroke-opacity="1" stroke-width="1" stroke-linecap="square" stroke-linejoin="bevel" transform="matrix(0.997997,0,0,0.997997,73.9118,-104.415)"
font-family="MS Shell Dlg 2" font-size="8.25" font-weight="400" font-style="normal" 
>
</g>

<g fill="none" stroke="#000000" stroke-opacity="1" stroke-width="2" stroke-linecap="round" stroke-linejoin="bevel" transform="matrix(0.997997,0,0,0.997997,73.9118,-104.415)"
font-family="MS Shell Dlg 2" font-size="8.25" font-weight="400" font-style="normal" 
>
<polyline fill="none" vector-effect="none" points="351.917,314.332 379.26,338.316 " />
<polyline fill="none" vector-effect="none" points="367,320 360,328 " />
</g>

<g fill="none" stroke="#000000" stroke-opacity="1" stroke-width="1" stroke-linecap="square" stroke-linejoin="bevel" transform="matrix(0.997997,0,0,0.997997,73.9118,-104.415)"
font-family="MS Shell Dlg 2" font-size="8.25" font-weight="400" font-style="normal" 
>
</g>

<g fill="none" stroke="#000000" stroke-opacity="1" stroke-width="1" stroke-linecap="square" stroke-linejoin="bevel" transform="matrix(0.997997,0,0,0.997997,73.9118,-104.415)"
font-family="MS Shell Dlg 2" font-size="8.25" font-weight="400" font-style="normal" 
>
</g>

<g fill="none" stroke="#000000" stroke-opacity="1" stroke-width="2" stroke-linecap="round" stroke-linejoin="bevel" transform="matrix(0.997997,0,0,0.997997,73.9118,-104.415)"
font-family="MS Shell Dlg 2" font-size="8.25" font-weight="400" font-style="normal" 
>
<polyline fill="none" vector-effect="none" points="228.911,238.216 329.145,123.896 " />
<polyline fill="none" vector-effect="none" points="237,220 244,227 " />
<polyline fill="none" vector-effect="none" points="240,217 248,223 " />
<polyline fill="none" vector-effect="none" points="243,213 251,220 " />
<polyline fill="none" vector-effect="none" points="247,209 254,216 " />
<polyline fill="none" vector-effect="none" points="250,205 258,212 " />
<polyline fill="none" vector-effect="none" points="253,202 261,208 " />
<polyline fill="none" vector-effect="none" points="257,198 264,205 " />
<polyline fill="none" vector-effect="none" points="260,194 267,201 " />
<polyline fill="none" vector-effect="none" points="263,190 271,197 " />
<polyline fill="none" vector-effect="none" points="267,187 274,193 " />
<polyline fill="none" vector-effect="none" points="270,183 277,189 " />
<polyline fill="none" vector-effect="none" points="273,179 281,186 " />
<polyline fill="none" vector-effect="none" points="276,175 284,182 " />
<polyline fill="none" vector-effect="none" points="280,172 287,178 " />
<polyline fill="none" vector-effect="none" points="283,168 291,174 " />
<polyline fill="none" vector-effect="none" points="286,164 294,171 " />
<polyline fill="none" vector-effect="none" points="290,160 297,167 " />
<polyline fill="none" vector-effect="none" points="293,157 300,163 " />
<polyline fill="none" vector-effect="none" points="296,153 304,159 " />
<polyline fill="none" vector-effect="none" points="299,149 307,156 " />
<polyline fill="none" vector-effect="none" points="303,145 310,152 " />
<polyline fill="none" vector-effect="none" points="306,142 314,148 " />
<polyline fill="none" vector-effect="none" points="309,138 317,144 " />
</g>

<g fill="none" stroke="#000000" stroke-opacity="1" stroke-width="1" stroke-linecap="square" stroke-linejoin="bevel" transform="matrix(0.997997,0,0,0.997997,73.9118,-104.415)"
font-family="MS Shell Dlg 2" font-size="8.25" font-weight="400" font-style="normal" 
>
</g>

<g fill="none" stroke="#000000" stroke-opacity="1" stroke-width="1" stroke-linecap="square" stroke-linejoin="bevel" transform="matrix(0.997997,0,0,0.997997,73.9118,-104.415)"
font-family="MS Shell Dlg 2" font-size="8.25" font-weight="400" font-style="normal" 
>
</g>

<g fill="none" stroke="#000000" stroke-opacity="1" stroke-width="2" stroke-linecap="round" stroke-linejoin="bevel" transform="matrix(0.997997,0,0,0.997997,73.9118,-104.415)"
font-family="MS Shell Dlg 2" font-size="8.25" font-weight="400" font-style="normal" 
>
<polyline fill="none" vector-effect="none" points="228.911,238.216 148.009,124.846 " />
<polyline fill="none" vector-effect="none" points="221,219 213,225 " />
<polyline fill="none" vector-effect="none" points="218,215 210,221 " />
<polyline fill="none" vector-effect="none" points="215,211 207,216 " />
<polyline fill="none" vector-effect="none" points="212,207 204,212 " />
<polyline fill="none" vector-effect="none" points="209,203 201,208 " />
<polyline fill="none" vector-effect="none" points="207,198 198,204 " />
<polyline fill="none" vector-effect="none" points="204,194 196,200 " />
<polyline fill="none" vector-effect="none" points="201,190 193,196 " />
<polyline fill="none" vector-effect="none" points="198,186 190,192 " />
<polyline fill="none" vector-effect="none" points="195,182 187,188 " />
<polyline fill="none" vector-effect="none" points="192,178 184,184 " />
<polyline fill="none" vector-effect="none" points="189,174 181,180 " />
<polyline fill="none" vector-effect="none" points="186,170 178,176 " />
<polyline fill="none" vector-effect="none" points="183,166 175,172 " />
<polyline fill="none" vector-effect="none" points="180,162 172,168 " />
<polyline fill="none" vector-effect="none" points="178,158 169,164 " />
<polyline fill="none" vector-effect="none" points="175,154 166,160 " />
<polyline fill="none" vector-effect="none" points="172,150 164,155 " />
<polyline fill="none" vector-effect="none" points="169,146 161,151 " />
<polyline fill="none" vector-effect="none" points="166,141 158,147 " />
</g>

<g fill="none" stroke="#000000" stroke-opacity="1" stroke-width="1" stroke-linecap="square" stroke-linejoin="bevel" transform="matrix(0.997997,0,0,0.997997,73.9118,-104.415)"
font-family="MS Shell Dlg 2" font-size="8.25" font-weight="400" font-style="normal" 
>
</g>

<g fill="none" stroke="#000000" stroke-opacity="1" stroke-width="1" stroke-linecap="square" stroke-linejoin="bevel" transform="matrix(0.997997,0,0,0.997997,73.9118,-104.415)"
font-family="MS Shell Dlg 2" font-size="8.25" font-weight="400" font-style="normal" 
>
</g>

<g fill="none" stroke="#000000" stroke-opacity="1" stroke-width="2" stroke-linecap="round" stroke-linejoin="bevel" transform="matrix(0.997997,0,0,0.997997,73.9118,-104.415)"
font-family="MS Shell Dlg 2" font-size="8.25" font-weight="400" font-style="normal" 
>
<polyline fill="none" vector-effect="none" points="200.946,314.736 122.886,289.9 " />
<polyline fill="none" vector-effect="none" points="184,304 181,313 " />
<polyline fill="none" vector-effect="none" points="180,302 177,312 " />
<polyline fill="none" vector-effect="none" points="175,301 172,310 " />
<polyline fill="none" vector-effect="none" points="170,299 167,309 " />
<polyline fill="none" vector-effect="none" points="165,298 162,307 " />
<polyline fill="none" vector-effect="none" points="161,296 158,306 " />
<polyline fill="none" vector-effect="none" points="156,295 153,304 " />
<polyline fill="none" vector-effect="none" points="151,293 148,303 " />
<polyline fill="none" vector-effect="none" points="146,292 143,301 " />
</g>

<g fill="none" stroke="#000000" stroke-opacity="1" stroke-width="1" stroke-linecap="square" stroke-linejoin="bevel" transform="matrix(0.997997,0,0,0.997997,73.9118,-104.415)"
font-family="MS Shell Dlg 2" font-size="8.25" font-weight="400" font-style="normal" 
>
</g>

<g fill="none" stroke="#000000" stroke-opacity="1" stroke-width="1" stroke-linecap="square" stroke-linejoin="bevel" transform="matrix(0.997997,0,0,0.997997,73.9118,-104.415)"
font-family="MS Shell Dlg 2" font-size="8.25" font-weight="400" font-style="normal" 
>
</g>

<g fill="none" stroke="#000000" stroke-opacity="1" stroke-width="2" stroke-linecap="round" stroke-linejoin="bevel" transform="matrix(0.997997,0,0,0.997997,73.9118,-104.415)"
font-family="MS Shell Dlg 2" font-size="8.25" font-weight="400" font-style="normal" 
>
<polyline fill="none" vector-effect="none" points="228.593,314.725 351.917,314.332 " />
<polyline fill="none" vector-effect="none" points="250,309 250,319 " />
<polyline fill="none" vector-effect="none" points="255,309 255,319 " />
<polyline fill="none" vector-effect="none" points="260,309 260,319 " />
<polyline fill="none" vector-effect="none" points="265,309 265,319 " />
<polyline fill="none" vector-effect="none" points="270,309 270,319 " />
<polyline fill="none" vector-effect="none" points="275,309 275,319 " />
<polyline fill="none" vector-effect="none" points="280,309 280,319 " />
<polyline fill="none" vector-effect="none" points="285,309 285,319 " />
<polyline fill="none" vector-effect="none" points="290,309 290,319 " />
<polyline fill="none" vector-effect="none" points="295,309 295,319 " />
<polyline fill="none" vector-effect="none" points="300,309 300,319 " />
<polyline fill="none" vector-effect="none" points="305,309 305,319 " />
<polyline fill="none" vector-effect="none" points="310,309 310,319 " />
<polyline fill="none" vector-effect="none" points="315,309 315,319 " />
<polyline fill="none" vector-effect="none" points="320,309 320,319 " />
<polyline fill="none" vector-effect="none" points="325,309 325,319 " />
</g>

<g fill="none" stroke="#000000" stroke-opacity="1" stroke-width="1" stroke-linecap="square" stroke-linejoin="bevel" transform="matrix(0.997997,0,0,0.997997,73.9118,-104.415)"
font-family="MS Shell Dlg 2" font-size="8.25" font-weight="400" font-style="normal" 
>
</g>

<g fill="none" stroke="#000000" stroke-opacity="1" stroke-width="1" stroke-linecap="square" stroke-linejoin="bevel" transform="matrix(0.997997,0,0,0.997997,73.9118,-104.415)"
font-family="MS Shell Dlg 2" font-size="8.25" font-weight="400" font-style="normal" 
>
</g>

<g fill="none" stroke="#000000" stroke-opacity="1" stroke-width="2" stroke-linecap="round" stroke-linejoin="bevel" transform="matrix(0.997997,0,0,0.997997,73.9118,-104.415)"
font-family="MS Shell Dlg 2" font-size="8.25" font-weight="400" font-style="normal" 
>
<polyline fill="none" vector-effect="none" points="228.593,314.725 200.946,314.736 " />
<polyline fill="none" vector-effect="none" points="217,309 217,319 " />
</g>

<g fill="none" stroke="#000000" stroke-opacity="1" stroke-width="1" stroke-linecap="square" stroke-linejoin="bevel" transform="matrix(0.997997,0,0,0.997997,73.9118,-104.415)"
font-family="MS Shell Dlg 2" font-size="8.25" font-weight="400" font-style="normal" 
>
</g>

<g fill="none" stroke="#000000" stroke-opacity="1" stroke-width="1" stroke-linecap="square" stroke-linejoin="bevel" transform="matrix(0.997997,0,0,0.997997,73.9118,-104.415)"
font-family="MS Shell Dlg 2" font-size="8.25" font-weight="400" font-style="normal" 
>
</g>

<g fill="none" stroke="#000000" stroke-opacity="1" stroke-width="2" stroke-linecap="round" stroke-linejoin="bevel" transform="matrix(0.997997,0,0,0.997997,73.9118,-104.415)"
font-family="MS Shell Dlg 2" font-size="8.25" font-weight="400" font-style="normal" 
>
<polyline fill="none" vector-effect="none" points="228.593,314.725 228.911,238.216 " />
<polyline fill="none" vector-effect="none" points="223,293 233,293 " />
<polyline fill="none" vector-effect="none" points="223,288 233,288 " />
<polyline fill="none" vector-effect="none" points="223,283 233,283 " />
<polyline fill="none" vector-effect="none" points="223,278 233,278 " />
<polyline fill="none" vector-effect="none" points="223,273 233,273 " />
<polyline fill="none" vector-effect="none" points="223,268 233,268 " />
<polyline fill="none" vector-effect="none" points="223,263 233,263 " />
</g>

<g fill="none" stroke="#000000" stroke-opacity="1" stroke-width="1" stroke-linecap="square" stroke-linejoin="bevel" transform="matrix(0.997997,0,0,0.997997,73.9118,-104.415)"
font-family="MS Shell Dlg 2" font-size="8.25" font-weight="400" font-style="normal" 
>
</g>

<g fill="none" stroke="#000000" stroke-opacity="1" stroke-width="1" stroke-linecap="square" stroke-linejoin="bevel" transform="matrix(0.997997,0,0,0.997997,-22.8939,-174.275)"
font-family="MS Shell Dlg 2" font-size="8.25" font-weight="400" font-style="normal" 
>
</g>

<g fill="#000000" fill-opacity="1" stroke="#000000" stroke-opacity="1" stroke-width="1" stroke-linecap="square" stroke-linejoin="bevel" transform="matrix(0.997997,0,0,0.997997,-22.8939,-174.275)"
font-family="MS Shell Dlg 2" font-size="8.25" font-weight="400" font-style="normal" 
>
<path vector-effect="none" fill-rule="evenodd" d="M485.293,354.236 C485.293,358.378 481.935,361.736 477.793,361.736 C473.651,361.736 470.293,358.378 470.293,354.236 C470.293,350.093 473.651,346.736 477.793,346.736 C481.935,346.736 485.293,350.093 485.293,354.236 "/>
</g>

<g fill="none" stroke="#000000" stroke-opacity="1" stroke-width="1" stroke-linecap="square" stroke-linejoin="bevel" transform="matrix(0.997997,0,0,0.997997,-22.8939,-174.275)"
font-family="MS Shell Dlg 2" font-size="8.25" font-weight="400" font-style="normal" 
>
</g>

<g fill="none" stroke="#000000" stroke-opacity="1" stroke-width="1" stroke-linecap="square" stroke-linejoin="bevel" transform="matrix(1,0,0,1,370.11,171.267)"
font-family="MS Shell Dlg 2" font-size="8.25" font-weight="400" font-style="normal" 
>
</g>

<g fill="none" stroke="#000000" stroke-opacity="1" stroke-width="1" stroke-linecap="square" stroke-linejoin="bevel" transform="matrix(1,0,0,1,370.11,171.267)"
font-family="Baskerville" font-size="10" font-weight="400" font-style="normal" 
>
<text fill="#000000" fill-opacity="1" stroke="none" xml:space="preserve" x="0" y="9" font-family="Baskerville" font-size="10" font-weight="400" font-style="normal" 
 >Ome_D2@rrnL</text>
</g>

<g fill="none" stroke="#000000" stroke-opacity="1" stroke-width="1" stroke-linecap="square" stroke-linejoin="bevel" transform="matrix(1,0,0,1,370.11,171.267)"
font-family="MS Shell Dlg 2" font-size="8.25" font-weight="400" font-style="normal" 
>
</g>

<g fill="none" stroke="#000000" stroke-opacity="1" stroke-width="1" stroke-linecap="square" stroke-linejoin="bevel" transform="matrix(0.997997,0,0,0.997997,120.818,-209.205)"
font-family="MS Shell Dlg 2" font-size="8.25" font-weight="400" font-style="normal" 
>
</g>

<g fill="#000000" fill-opacity="1" stroke="#000000" stroke-opacity="1" stroke-width="1" stroke-linecap="square" stroke-linejoin="bevel" transform="matrix(0.997997,0,0,0.997997,120.818,-209.205)"
font-family="MS Shell Dlg 2" font-size="8.25" font-weight="400" font-style="normal" 
>
<path vector-effect="none" fill-rule="evenodd" d="M122.022,462.27 C122.022,466.412 118.664,469.77 114.522,469.77 C110.38,469.77 107.022,466.412 107.022,462.27 C107.022,458.128 110.38,454.77 114.522,454.77 C118.664,454.77 122.022,458.128 122.022,462.27 "/>
</g>

<g fill="none" stroke="#000000" stroke-opacity="1" stroke-width="1" stroke-linecap="square" stroke-linejoin="bevel" transform="matrix(0.997997,0,0,0.997997,120.818,-209.205)"
font-family="MS Shell Dlg 2" font-size="8.25" font-weight="400" font-style="normal" 
>
</g>

<g fill="none" stroke="#000000" stroke-opacity="1" stroke-width="1" stroke-linecap="square" stroke-linejoin="bevel" transform="matrix(1,0,0,1,184.988,239.535)"
font-family="MS Shell Dlg 2" font-size="8.25" font-weight="400" font-style="normal" 
>
</g>

<g fill="none" stroke="#000000" stroke-opacity="1" stroke-width="1" stroke-linecap="square" stroke-linejoin="bevel" transform="matrix(1,0,0,1,184.988,239.535)"
font-family="Baskerville" font-size="10" font-weight="400" font-style="normal" 
>
<text fill="#000000" fill-opacity="1" stroke="none" xml:space="preserve" x="0" y="9" font-family="Baskerville" font-size="10" font-weight="400" font-style="normal" 
 >Oal_D2@rrnL</text>
</g>

<g fill="none" stroke="#000000" stroke-opacity="1" stroke-width="1" stroke-linecap="square" stroke-linejoin="bevel" transform="matrix(1,0,0,1,184.988,239.535)"
font-family="MS Shell Dlg 2" font-size="8.25" font-weight="400" font-style="normal" 
>
</g>

<g fill="none" stroke="#000000" stroke-opacity="1" stroke-width="1" stroke-linecap="square" stroke-linejoin="bevel" transform="matrix(0.997997,0,0,0.997997,154.75,-120.383)"
font-family="MS Shell Dlg 2" font-size="8.25" font-weight="400" font-style="normal" 
>
</g>

<g fill="#000000" fill-opacity="1" stroke="#000000" stroke-opacity="1" stroke-width="1" stroke-linecap="square" stroke-linejoin="bevel" transform="matrix(0.997997,0,0,0.997997,154.75,-120.383)"
font-family="MS Shell Dlg 2" font-size="8.25" font-weight="400" font-style="normal" 
>
<path vector-effect="none" fill-rule="evenodd" d="M49.3858,305.9 C49.3858,310.042 46.028,313.4 41.8858,313.4 C37.7437,313.4 34.3858,310.042 34.3858,305.9 C34.3858,301.758 37.7437,298.4 41.8858,298.4 C46.028,298.4 49.3858,301.758 49.3858,305.9 "/>
</g>

<g fill="none" stroke="#000000" stroke-opacity="1" stroke-width="1" stroke-linecap="square" stroke-linejoin="bevel" transform="matrix(0.997997,0,0,0.997997,154.75,-120.383)"
font-family="MS Shell Dlg 2" font-size="8.25" font-weight="400" font-style="normal" 
>
</g>

<g fill="none" stroke="#000000" stroke-opacity="1" stroke-width="1" stroke-linecap="square" stroke-linejoin="bevel" transform="matrix(1,0,0,1,168.407,167.198)"
font-family="MS Shell Dlg 2" font-size="8.25" font-weight="400" font-style="normal" 
>
</g>

<g fill="none" stroke="#000000" stroke-opacity="1" stroke-width="1" stroke-linecap="square" stroke-linejoin="bevel" transform="matrix(1,0,0,1,168.407,167.198)"
font-family="Baskerville" font-size="10" font-weight="400" font-style="normal" 
>
<text fill="#000000" fill-opacity="1" stroke="none" xml:space="preserve" x="0" y="9" font-family="Baskerville" font-size="10" font-weight="400" font-style="normal" 
 >Ofl_D2@rrnL</text>
</g>

<g fill="none" stroke="#000000" stroke-opacity="1" stroke-width="1" stroke-linecap="square" stroke-linejoin="bevel" transform="matrix(1,0,0,1,168.407,167.198)"
font-family="MS Shell Dlg 2" font-size="8.25" font-weight="400" font-style="normal" 
>
</g>

<g fill="none" stroke="#000000" stroke-opacity="1" stroke-width="1" stroke-linecap="square" stroke-linejoin="bevel" transform="matrix(0.997997,0,0,0.997997,50.9579,-22.5797)"
font-family="MS Shell Dlg 2" font-size="8.25" font-weight="400" font-style="normal" 
>
</g>

<g fill="#000000" fill-opacity="1" stroke="#000000" stroke-opacity="1" stroke-width="1" stroke-linecap="square" stroke-linejoin="bevel" transform="matrix(0.997997,0,0,0.997997,50.9579,-22.5797)"
font-family="MS Shell Dlg 2" font-size="8.25" font-weight="400" font-style="normal" 
>
<path vector-effect="none" fill-rule="evenodd" d="M359.645,41.8956 C359.645,46.0378 356.287,49.3956 352.145,49.3956 C348.003,49.3956 344.645,46.0378 344.645,41.8956 C344.645,37.7535 348.003,34.3956 352.145,34.3956 C356.287,34.3956 359.645,37.7535 359.645,41.8956 "/>
</g>

<g fill="none" stroke="#000000" stroke-opacity="1" stroke-width="1" stroke-linecap="square" stroke-linejoin="bevel" transform="matrix(0.997997,0,0,0.997997,50.9579,-22.5797)"
font-family="MS Shell Dlg 2" font-size="8.25" font-weight="400" font-style="normal" 
>
</g>

<g fill="none" stroke="#000000" stroke-opacity="1" stroke-width="1" stroke-linecap="square" stroke-linejoin="bevel" transform="matrix(1,0,0,1,400.328,32.3123)"
font-family="MS Shell Dlg 2" font-size="8.25" font-weight="400" font-style="normal" 
>
</g>

<g fill="none" stroke="#000000" stroke-opacity="1" stroke-width="1" stroke-linecap="square" stroke-linejoin="bevel" transform="matrix(1,0,0,1,400.328,32.3123)"
font-family="Baskerville" font-size="10" font-weight="400" font-style="normal" 
>
<text fill="#000000" fill-opacity="1" stroke="none" xml:space="preserve" x="0" y="9" font-family="Baskerville" font-size="10" font-weight="400" font-style="normal" 
 >Ofl_SRA_NODE_24403_length_939_cov_40494.617978_g18215_i0</text>
</g>

<g fill="none" stroke="#000000" stroke-opacity="1" stroke-width="1" stroke-linecap="square" stroke-linejoin="bevel" transform="matrix(1,0,0,1,400.328,32.3123)"
font-family="MS Shell Dlg 2" font-size="8.25" font-weight="400" font-style="normal" 
>
</g>

<g fill="none" stroke="#000000" stroke-opacity="1" stroke-width="1" stroke-linecap="square" stroke-linejoin="bevel" transform="matrix(0.997997,0,0,0.997997,65.9279,-15.5937)"
font-family="MS Shell Dlg 2" font-size="8.25" font-weight="400" font-style="normal" 
>
</g>

<g fill="#000000" fill-opacity="1" stroke="#000000" stroke-opacity="1" stroke-width="1" stroke-linecap="square" stroke-linejoin="bevel" transform="matrix(0.997997,0,0,0.997997,65.9279,-15.5937)"
font-family="MS Shell Dlg 2" font-size="8.25" font-weight="400" font-style="normal" 
>
<path vector-effect="none" fill-rule="evenodd" d="M163.509,35.8464 C163.509,39.9885 160.151,43.3464 156.009,43.3464 C151.867,43.3464 148.509,39.9885 148.509,35.8464 C148.509,31.7042 151.867,28.3464 156.009,28.3464 C160.151,28.3464 163.509,31.7042 163.509,35.8464 "/>
</g>

<g fill="none" stroke="#000000" stroke-opacity="1" stroke-width="1" stroke-linecap="square" stroke-linejoin="bevel" transform="matrix(0.997997,0,0,0.997997,65.9279,-15.5937)"
font-family="MS Shell Dlg 2" font-size="8.25" font-weight="400" font-style="normal" 
>
</g>

<g fill="none" stroke="#000000" stroke-opacity="1" stroke-width="1" stroke-linecap="square" stroke-linejoin="bevel" transform="matrix(1,0,0,1,12.3964,24.9583)"
font-family="MS Shell Dlg 2" font-size="8.25" font-weight="400" font-style="normal" 
>
</g>

<g fill="none" stroke="#000000" stroke-opacity="1" stroke-width="1" stroke-linecap="square" stroke-linejoin="bevel" transform="matrix(1,0,0,1,12.3964,24.9583)"
font-family="Baskerville" font-size="10" font-weight="400" font-style="normal" 
>
<text fill="#000000" fill-opacity="1" stroke="none" xml:space="preserve" x="0" y="9" font-family="Baskerville" font-size="10" font-weight="400" font-style="normal" 
 >Oal_SRA_NODE_36416_length_711_cov_24608.587613_g27481_i0</text>
</g>

<g fill="none" stroke="#000000" stroke-opacity="1" stroke-width="1" stroke-linecap="square" stroke-linejoin="bevel" transform="matrix(1,0,0,1,12.3964,24.9583)"
font-family="MS Shell Dlg 2" font-size="8.25" font-weight="400" font-style="normal" 
>
</g>

<g fill="none" stroke="#000000" stroke-opacity="1" stroke-width="1" stroke-linecap="square" stroke-linejoin="bevel" transform="matrix(0.997997,0,0,0.997997,131.796,-245.133)"
font-family="MS Shell Dlg 2" font-size="8.25" font-weight="400" font-style="normal" 
>
</g>

<g fill="#000000" fill-opacity="1" stroke="#000000" stroke-opacity="1" stroke-width="1" stroke-linecap="square" stroke-linejoin="bevel" transform="matrix(0.997997,0,0,0.997997,131.796,-245.133)"
font-family="MS Shell Dlg 2" font-size="8.25" font-weight="400" font-style="normal" 
>
<path vector-effect="none" fill-rule="evenodd" d="M87.7285,523.735 C87.7285,527.877 84.3707,531.235 80.2285,531.235 C76.0864,531.235 72.7285,527.877 72.7285,523.735 C72.7285,519.593 76.0864,516.235 80.2285,516.235 C84.3707,516.235 87.7285,519.593 87.7285,523.735 "/>
</g>

<g fill="none" stroke="#000000" stroke-opacity="1" stroke-width="1" stroke-linecap="square" stroke-linejoin="bevel" transform="matrix(0.997997,0,0,0.997997,131.796,-245.133)"
font-family="MS Shell Dlg 2" font-size="8.25" font-weight="400" font-style="normal" 
>
</g>

<g fill="none" stroke="#000000" stroke-opacity="1" stroke-width="1" stroke-linecap="square" stroke-linejoin="bevel" transform="matrix(1,0,0,1,98.0208,287.584)"
font-family="MS Shell Dlg 2" font-size="8.25" font-weight="400" font-style="normal" 
>
</g>

<g fill="none" stroke="#000000" stroke-opacity="1" stroke-width="1" stroke-linecap="square" stroke-linejoin="bevel" transform="matrix(1,0,0,1,98.0208,287.584)"
font-family="Baskerville" font-size="10" font-weight="400" font-style="normal" 
>
<text fill="#000000" fill-opacity="1" stroke="none" xml:space="preserve" x="0" y="9" font-family="Baskerville" font-size="10" font-weight="400" font-style="normal" 
 >AY926740_Ommatogammarus_albinus_16S</text>
</g>

<g fill="none" stroke="#000000" stroke-opacity="1" stroke-width="1" stroke-linecap="square" stroke-linejoin="bevel" transform="matrix(1,0,0,1,98.0208,287.584)"
font-family="MS Shell Dlg 2" font-size="8.25" font-weight="400" font-style="normal" 
>
</g>

<g fill="none" stroke="#000000" stroke-opacity="1" stroke-width="1" stroke-linecap="square" stroke-linejoin="bevel" transform="matrix(0.997997,0,0,0.997997,17.026,-226.171)"
font-family="MS Shell Dlg 2" font-size="8.25" font-weight="400" font-style="normal" 
>
</g>

<g fill="#000000" fill-opacity="1" stroke="#000000" stroke-opacity="1" stroke-width="1" stroke-linecap="square" stroke-linejoin="bevel" transform="matrix(0.997997,0,0,0.997997,17.026,-226.171)"
font-family="MS Shell Dlg 2" font-size="8.25" font-weight="400" font-style="normal" 
>
<path vector-effect="none" fill-rule="evenodd" d="M443.76,460.316 C443.76,464.458 440.402,467.816 436.26,467.816 C432.118,467.816 428.76,464.458 428.76,460.316 C428.76,456.174 432.118,452.816 436.26,452.816 C440.402,452.816 443.76,456.174 443.76,460.316 "/>
</g>

<g fill="none" stroke="#000000" stroke-opacity="1" stroke-width="1" stroke-linecap="square" stroke-linejoin="bevel" transform="matrix(0.997997,0,0,0.997997,17.026,-226.171)"
font-family="MS Shell Dlg 2" font-size="8.25" font-weight="400" font-style="normal" 
>
</g>

<g fill="none" stroke="#000000" stroke-opacity="1" stroke-width="1" stroke-linecap="square" stroke-linejoin="bevel" transform="matrix(1,0,0,1,372.573,250.188)"
font-family="MS Shell Dlg 2" font-size="8.25" font-weight="400" font-style="normal" 
>
</g>

<g fill="none" stroke="#000000" stroke-opacity="1" stroke-width="1" stroke-linecap="square" stroke-linejoin="bevel" transform="matrix(1,0,0,1,372.573,250.188)"
font-family="Baskerville" font-size="10" font-weight="400" font-style="normal" 
>
<text fill="#000000" fill-opacity="1" stroke="none" xml:space="preserve" x="0" y="9" font-family="Baskerville" font-size="10" font-weight="400" font-style="normal" 
 >AY926692_Abludogammarus_flavus_16S</text>
</g>

<g fill="none" stroke="#000000" stroke-opacity="1" stroke-width="1" stroke-linecap="square" stroke-linejoin="bevel" transform="matrix(1,0,0,1,372.573,250.188)"
font-family="MS Shell Dlg 2" font-size="8.25" font-weight="400" font-style="normal" 
>
</g>

<g fill="none" stroke="#000000" stroke-opacity="1" stroke-width="1" stroke-linecap="square" stroke-linejoin="bevel" transform="matrix(0.997997,0,0,0.997997,8.04404,-180.263)"
font-family="MS Shell Dlg 2" font-size="8.25" font-weight="400" font-style="normal" 
>
</g>

<g fill="#000000" fill-opacity="1" stroke="#000000" stroke-opacity="1" stroke-width="1" stroke-linecap="square" stroke-linejoin="bevel" transform="matrix(0.997997,0,0,0.997997,8.04404,-180.263)"
font-family="MS Shell Dlg 2" font-size="8.25" font-weight="400" font-style="normal" 
>
<path vector-effect="none" fill-rule="evenodd" d="M422.917,390.332 C422.917,393.093 420.679,395.332 417.917,395.332 C415.156,395.332 412.917,393.093 412.917,390.332 C412.917,387.57 415.156,385.332 417.917,385.332 C420.679,385.332 422.917,387.57 422.917,390.332 "/>
</g>

<g fill="none" stroke="#000000" stroke-opacity="1" stroke-width="1" stroke-linecap="square" stroke-linejoin="bevel" transform="matrix(0.997997,0,0,0.997997,8.04404,-180.263)"
font-family="MS Shell Dlg 2" font-size="8.25" font-weight="400" font-style="normal" 
>
</g>

<g fill="none" stroke="#000000" stroke-opacity="1" stroke-width="1" stroke-linecap="square" stroke-linejoin="bevel" transform="matrix(1,0,0,1,419.635,203.798)"
font-family="MS Shell Dlg 2" font-size="8.25" font-weight="400" font-style="normal" 
>
</g>

<g fill="none" stroke="#000000" stroke-opacity="1" stroke-width="1" stroke-linecap="square" stroke-linejoin="bevel" transform="matrix(1,0,0,1,419.635,203.798)"
font-family="MS Shell Dlg 2" font-size="8.25" font-weight="400" font-style="normal" 
>
</g>

<g fill="none" stroke="#000000" stroke-opacity="1" stroke-width="1" stroke-linecap="square" stroke-linejoin="bevel" transform="matrix(0.997997,0,0,0.997997,61.9359,-39.5456)"
font-family="MS Shell Dlg 2" font-size="8.25" font-weight="400" font-style="normal" 
>
</g>

<g fill="#000000" fill-opacity="1" stroke="#000000" stroke-opacity="1" stroke-width="1" stroke-linecap="square" stroke-linejoin="bevel" transform="matrix(0.997997,0,0,0.997997,61.9359,-39.5456)"
font-family="MS Shell Dlg 2" font-size="8.25" font-weight="400" font-style="normal" 
>
<path vector-effect="none" fill-rule="evenodd" d="M245.911,173.216 C245.911,175.978 243.672,178.216 240.911,178.216 C238.15,178.216 235.911,175.978 235.911,173.216 C235.911,170.455 238.15,168.216 240.911,168.216 C243.672,168.216 245.911,170.455 245.911,173.216 "/>
</g>

<g fill="none" stroke="#000000" stroke-opacity="1" stroke-width="1" stroke-linecap="square" stroke-linejoin="bevel" transform="matrix(0.997997,0,0,0.997997,61.9359,-39.5456)"
font-family="MS Shell Dlg 2" font-size="8.25" font-weight="400" font-style="normal" 
>
</g>

<g fill="none" stroke="#000000" stroke-opacity="1" stroke-width="1" stroke-linecap="square" stroke-linejoin="bevel" transform="matrix(1,0,0,1,296.875,127.835)"
font-family="MS Shell Dlg 2" font-size="8.25" font-weight="400" font-style="normal" 
>
</g>

<g fill="none" stroke="#000000" stroke-opacity="1" stroke-width="1" stroke-linecap="square" stroke-linejoin="bevel" transform="matrix(1,0,0,1,296.875,127.835)"
font-family="MS Shell Dlg 2" font-size="8.25" font-weight="400" font-style="normal" 
>
</g>

<g fill="none" stroke="#000000" stroke-opacity="1" stroke-width="1" stroke-linecap="square" stroke-linejoin="bevel" transform="matrix(0.997997,0,0,0.997997,109.84,-144.335)"
font-family="MS Shell Dlg 2" font-size="8.25" font-weight="400" font-style="normal" 
>
</g>

<g fill="#000000" fill-opacity="1" stroke="#000000" stroke-opacity="1" stroke-width="1" stroke-linecap="square" stroke-linejoin="bevel" transform="matrix(0.997997,0,0,0.997997,109.84,-144.335)"
font-family="MS Shell Dlg 2" font-size="8.25" font-weight="400" font-style="normal" 
>
<path vector-effect="none" fill-rule="evenodd" d="M169.946,354.736 C169.946,357.497 167.708,359.736 164.946,359.736 C162.185,359.736 159.946,357.497 159.946,354.736 C159.946,351.975 162.185,349.736 164.946,349.736 C167.708,349.736 169.946,351.975 169.946,354.736 "/>
</g>

<g fill="none" stroke="#000000" stroke-opacity="1" stroke-width="1" stroke-linecap="square" stroke-linejoin="bevel" transform="matrix(0.997997,0,0,0.997997,109.84,-144.335)"
font-family="MS Shell Dlg 2" font-size="8.25" font-weight="400" font-style="normal" 
>
</g>

<g fill="none" stroke="#000000" stroke-opacity="1" stroke-width="1" stroke-linecap="square" stroke-linejoin="bevel" transform="matrix(1,0,0,1,268.966,204.201)"
font-family="MS Shell Dlg 2" font-size="8.25" font-weight="400" font-style="normal" 
>
</g>

<g fill="none" stroke="#000000" stroke-opacity="1" stroke-width="1" stroke-linecap="square" stroke-linejoin="bevel" transform="matrix(1,0,0,1,268.966,204.201)"
font-family="MS Shell Dlg 2" font-size="8.25" font-weight="400" font-style="normal" 
>
</g>

<g fill="none" stroke="#000000" stroke-opacity="1" stroke-width="1" stroke-linecap="square" stroke-linejoin="bevel" transform="matrix(0.997997,0,0,0.997997,73.9118,-104.415)"
font-family="MS Shell Dlg 2" font-size="8.25" font-weight="400" font-style="normal" 
>
</g>

<g fill="#000000" fill-opacity="1" stroke="#000000" stroke-opacity="1" stroke-width="1" stroke-linecap="square" stroke-linejoin="bevel" transform="matrix(0.997997,0,0,0.997997,73.9118,-104.415)"
font-family="MS Shell Dlg 2" font-size="8.25" font-weight="400" font-style="normal" 
>
<path vector-effect="none" fill-rule="evenodd" d="M233.593,314.725 C233.593,317.486 231.354,319.725 228.593,319.725 C225.831,319.725 223.593,317.486 223.593,314.725 C223.593,311.964 225.831,309.725 228.593,309.725 C231.354,309.725 233.593,311.964 233.593,314.725 "/>
</g>

<g fill="none" stroke="#000000" stroke-opacity="1" stroke-width="1" stroke-linecap="square" stroke-linejoin="bevel" transform="matrix(0.997997,0,0,0.997997,73.9118,-104.415)"
font-family="MS Shell Dlg 2" font-size="8.25" font-weight="400" font-style="normal" 
>
</g>

<g fill="none" stroke="#000000" stroke-opacity="1" stroke-width="1" stroke-linecap="square" stroke-linejoin="bevel" transform="matrix(1,0,0,1,296.558,204.19)"
font-family="MS Shell Dlg 2" font-size="8.25" font-weight="400" font-style="normal" 
>
</g>

<g fill="none" stroke="#000000" stroke-opacity="1" stroke-width="1" stroke-linecap="square" stroke-linejoin="bevel" transform="matrix(1,0,0,1,296.558,204.19)"
font-family="MS Shell Dlg 2" font-size="8.25" font-weight="400" font-style="normal" 
>
</g>

<g fill="none" stroke="#000000" stroke-opacity="1" stroke-width="1" stroke-linecap="square" stroke-linejoin="bevel" transform="matrix(1,0,0,1,0,0)"
font-family="MS Shell Dlg 2" font-size="8.25" font-weight="400" font-style="normal" 
>
</g>
</g>
</svg>
