<?xml version="1.0" encoding="UTF-8" standalone="no"?>
<svg width="82.1972mm" height="32.4556mm"
 viewBox="0 0 233 92"
 xmlns="http://www.w3.org/2000/svg" xmlns:xlink="http://www.w3.org/1999/xlink"  version="1.2" baseProfile="tiny">
<title>PopART SVG Image</title>
<desc>A haplotype network image created by PopART.</desc>
<defs>
</defs>
<g fill="none" stroke="black" stroke-width="1" fill-rule="evenodd" stroke-linecap="square" stroke-linejoin="bevel" >

<g fill="none" stroke="#000000" stroke-opacity="1" stroke-width="1" stroke-linecap="square" stroke-linejoin="bevel" transform="matrix(1,0,0,1,0,0)"
font-family="MS Shell Dlg 2" font-size="8.25" font-weight="400" font-style="normal" 
>
</g>

<g fill="none" stroke="#000000" stroke-opacity="1" stroke-width="1" stroke-linecap="square" stroke-linejoin="bevel" transform="matrix(0.989352,0,0,0.989352,-43.5315,-173.137)"
font-family="MS Shell Dlg 2" font-size="8.25" font-weight="400" font-style="normal" 
>
</g>

<g fill="#000000" fill-opacity="0" stroke="none" transform="matrix(0.989352,0,0,0.989352,-43.5315,-173.137)"
font-family="MS Shell Dlg 2" font-size="8.25" font-weight="400" font-style="normal" 
>
<path vector-effect="non-scaling-stroke" fill-rule="evenodd" d="M44,175 L277.868,175 L277.868,267.99 L44,267.99 L44,175"/>
</g>

<g fill="none" stroke="#000000" stroke-opacity="1" stroke-width="1" stroke-linecap="square" stroke-linejoin="bevel" transform="matrix(0.989352,0,0,0.989352,-43.5315,-173.137)"
font-family="MS Shell Dlg 2" font-size="8.25" font-weight="400" font-style="normal" 
>
</g>

<g fill="none" stroke="#000000" stroke-opacity="1" stroke-width="1" stroke-linecap="square" stroke-linejoin="bevel" transform="matrix(0.989352,0,0,0.989352,-43.5315,-173.137)"
font-family="MS Shell Dlg 2" font-size="8.25" font-weight="400" font-style="normal" 
>
</g>

<g fill="none" stroke="#000000" stroke-opacity="1" stroke-width="2" stroke-linecap="round" stroke-linejoin="bevel" transform="matrix(0.989352,0,0,0.989352,-43.5315,-173.137)"
font-family="MS Shell Dlg 2" font-size="8.25" font-weight="400" font-style="normal" 
>
<polyline fill="none" vector-effect="none" points="94.3993,221.692 233.432,221.554 " />
<polyline fill="none" vector-effect="none" points="161,216 161,226 " />
</g>

<g fill="none" stroke="#000000" stroke-opacity="1" stroke-width="1" stroke-linecap="square" stroke-linejoin="bevel" transform="matrix(0.989352,0,0,0.989352,-43.5315,-173.137)"
font-family="MS Shell Dlg 2" font-size="8.25" font-weight="400" font-style="normal" 
>
</g>

<g fill="none" stroke="#000000" stroke-opacity="1" stroke-width="1" stroke-linecap="square" stroke-linejoin="bevel" transform="matrix(0.989352,0,0,0.989352,-111.797,-152.36)"
font-family="MS Shell Dlg 2" font-size="8.25" font-weight="400" font-style="normal" 
>
</g>

<g fill="#000000" fill-opacity="1" stroke="#000000" stroke-opacity="1" stroke-width="1" stroke-linecap="square" stroke-linejoin="bevel" transform="matrix(0.989352,0,0,0.989352,-111.797,-152.36)"
font-family="MS Shell Dlg 2" font-size="8.25" font-weight="400" font-style="normal" 
>
<path vector-effect="none" fill-rule="evenodd" d="M184.612,200.692 C184.612,212.408 175.115,221.905 163.399,221.905 C151.684,221.905 142.186,212.408 142.186,200.692 C142.186,188.976 151.684,179.479 163.399,179.479 C175.115,179.479 184.612,188.976 184.612,200.692 "/>
</g>

<g fill="none" stroke="#000000" stroke-opacity="1" stroke-width="1" stroke-linecap="square" stroke-linejoin="bevel" transform="matrix(0.989352,0,0,0.989352,-111.797,-152.36)"
font-family="MS Shell Dlg 2" font-size="8.25" font-weight="400" font-style="normal" 
>
</g>

<g fill="none" stroke="#000000" stroke-opacity="1" stroke-width="1" stroke-linecap="square" stroke-linejoin="bevel" transform="matrix(1,0,0,1,9.58292,24.7128)"
font-family="MS Shell Dlg 2" font-size="8.25" font-weight="400" font-style="normal" 
>
</g>

<g fill="none" stroke="#000000" stroke-opacity="1" stroke-width="1" stroke-linecap="square" stroke-linejoin="bevel" transform="matrix(1,0,0,1,9.58292,24.7128)"
font-family="Baskerville" font-size="10" font-weight="400" font-style="normal" 
>
<text fill="#000000" fill-opacity="1" stroke="none" xml:space="preserve" x="0" y="9" font-family="Baskerville" font-size="10" font-weight="400" font-style="normal" 
 >Oal</text>
</g>

<g fill="none" stroke="#000000" stroke-opacity="1" stroke-width="1" stroke-linecap="square" stroke-linejoin="bevel" transform="matrix(1,0,0,1,9.58292,24.7128)"
font-family="MS Shell Dlg 2" font-size="8.25" font-weight="400" font-style="normal" 
>
</g>

<g fill="none" stroke="#000000" stroke-opacity="1" stroke-width="1" stroke-linecap="square" stroke-linejoin="bevel" transform="matrix(0.989352,0,0,0.989352,-43.5315,-175.115)"
font-family="MS Shell Dlg 2" font-size="8.25" font-weight="400" font-style="normal" 
>
</g>

<g fill="#000000" fill-opacity="1" stroke="#000000" stroke-opacity="1" stroke-width="1" stroke-linecap="square" stroke-linejoin="bevel" transform="matrix(0.989352,0,0,0.989352,-43.5315,-175.115)"
font-family="MS Shell Dlg 2" font-size="8.25" font-weight="400" font-style="normal" 
>
<path vector-effect="none" fill-rule="evenodd" d="M246.423,223.554 C246.423,230.728 240.607,236.544 233.432,236.544 C226.258,236.544 220.442,230.728 220.442,223.554 C220.442,216.38 226.258,210.564 233.432,210.564 C240.607,210.564 246.423,216.38 246.423,223.554 "/>
</g>

<g fill="none" stroke="#000000" stroke-opacity="1" stroke-width="1" stroke-linecap="square" stroke-linejoin="bevel" transform="matrix(0.989352,0,0,0.989352,-43.5315,-175.115)"
font-family="MS Shell Dlg 2" font-size="8.25" font-weight="400" font-style="normal" 
>
</g>

<g fill="none" stroke="#000000" stroke-opacity="1" stroke-width="1" stroke-linecap="square" stroke-linejoin="bevel" transform="matrix(1,0,0,1,157.25,32.7117)"
font-family="MS Shell Dlg 2" font-size="8.25" font-weight="400" font-style="normal" 
>
</g>

<g fill="none" stroke="#000000" stroke-opacity="1" stroke-width="1" stroke-linecap="square" stroke-linejoin="bevel" transform="matrix(1,0,0,1,157.25,32.7117)"
font-family="Baskerville" font-size="10" font-weight="400" font-style="normal" 
>
<text fill="#000000" fill-opacity="1" stroke="none" xml:space="preserve" x="0" y="9" font-family="Baskerville" font-size="10" font-weight="400" font-style="normal" 
 >Ofl</text>
</g>

<g fill="none" stroke="#000000" stroke-opacity="1" stroke-width="1" stroke-linecap="square" stroke-linejoin="bevel" transform="matrix(1,0,0,1,157.25,32.7117)"
font-family="MS Shell Dlg 2" font-size="8.25" font-weight="400" font-style="normal" 
>
</g>

<g fill="none" stroke="#000000" stroke-opacity="1" stroke-width="1" stroke-linecap="square" stroke-linejoin="bevel" transform="matrix(1,0,0,1,0,0)"
font-family="MS Shell Dlg 2" font-size="8.25" font-weight="400" font-style="normal" 
>
</g>
</g>
</svg>
